{"glyphs":{"0":{"ha":1010,"x_min":81,"x_max":929,"o":"m 929 263 q 911 147 929 199 q 846 58 893 94 q 716 0 799 21 q 506 -21 633 -21 q 295 0 378 -21 q 165 58 213 21 q 99 147 118 94 q 81 263 81 199 l 81 736 q 99 852 81 800 q 165 942 118 904 q 295 1000 213 979 q 506 1021 378 1021 q 716 1000 633 1021 q 846 942 799 979 q 911 852 893 904 q 929 736 929 800 l 929 263 m 231 294 q 243 218 231 253 q 286 159 256 183 q 370 121 317 135 q 504 107 424 107 q 723 159 665 107 q 781 294 781 211 l 781 704 q 723 839 781 786 q 504 892 665 892 q 370 878 424 892 q 286 840 317 864 q 243 781 256 815 q 231 704 231 746 l 231 294 m 504 878 q 710 830 653 878 q 767 704 767 782 l 767 294 q 710 168 767 215 q 504 121 653 121 q 300 168 356 121 q 244 294 244 215 l 244 704 q 300 831 244 783 q 504 878 356 878 m 394 313 q 415 266 394 285 q 506 247 435 247 q 597 266 576 247 q 617 313 617 285 l 617 686 q 597 731 617 713 q 506 750 576 750 q 415 731 435 750 q 394 686 394 713 l 394 313 z "},"1":{"ha":835,"x_min":67,"x_max":781,"o":"m 731 0 l 117 0 q 78 12 90 0 q 67 50 67 24 l 67 218 q 78 256 67 244 q 117 268 90 268 l 272 268 l 272 732 l 144 732 q 106 744 118 732 q 94 782 94 756 l 94 950 q 106 988 94 976 q 144 1000 118 1000 l 547 1000 q 585 988 574 1000 q 597 950 597 976 l 597 268 l 731 268 q 769 256 757 268 q 781 218 781 244 l 781 50 q 769 12 781 24 q 731 0 757 0 m 192 118 l 656 118 l 656 132 l 442 132 l 442 875 l 219 875 l 219 861 l 428 861 l 428 132 l 192 132 l 192 118 z "},"2":{"ha":888,"x_min":56,"x_max":817,"o":"m 767 0 l 106 0 q 67 12 79 0 q 56 50 56 24 l 56 289 q 72 422 56 369 q 117 507 88 474 q 186 560 146 540 q 274 593 226 579 l 460 651 q 490 668 482 657 q 497 701 497 679 q 489 730 497 722 q 460 738 481 738 l 158 738 q 120 749 132 738 q 108 788 108 761 l 108 950 q 120 988 108 976 q 158 1000 132 1000 l 568 1000 q 749 941 686 1000 q 813 769 813 882 l 813 639 q 754 479 813 535 q 596 393 696 424 l 407 333 q 378 321 386 328 q 371 292 371 314 l 371 263 l 767 263 q 805 251 793 263 q 817 213 817 239 l 817 50 q 805 12 817 24 q 767 0 793 0 m 283 456 q 224 417 240 442 q 207 342 207 393 l 207 125 l 692 125 l 692 139 l 219 139 l 219 342 q 235 409 219 389 q 289 443 250 429 l 613 550 q 648 578 635 560 q 661 628 661 596 l 661 754 q 622 849 661 824 q 513 875 583 875 l 233 875 l 233 861 l 513 861 q 611 840 575 861 q 647 754 647 818 l 647 628 q 636 585 647 601 q 607 563 625 569 l 283 456 z "},"3":{"ha":885,"x_min":68,"x_max":826,"o":"m 118 263 l 467 263 q 510 275 500 263 q 519 304 519 288 l 519 342 q 510 370 519 358 q 467 382 500 382 l 231 382 q 192 394 204 382 q 181 432 181 406 l 181 581 q 192 619 181 607 q 231 631 204 631 l 376 631 q 419 643 410 631 q 429 672 429 656 l 429 693 q 419 722 429 710 q 376 735 410 735 l 118 735 q 80 747 92 735 q 68 785 68 758 l 68 950 q 80 988 68 976 q 118 1000 92 1000 l 506 1000 q 677 947 621 1000 q 733 801 733 893 l 733 721 q 715 629 733 668 q 651 571 697 590 q 788 510 750 560 q 826 369 826 461 l 826 231 q 758 62 826 124 q 557 0 690 0 l 118 0 q 80 12 92 0 q 68 50 68 24 l 68 213 q 80 251 68 239 q 118 263 92 263 m 306 499 l 517 499 q 631 464 596 499 q 667 360 667 429 l 667 264 q 635 173 667 207 q 499 139 603 139 l 193 139 l 193 125 l 499 125 q 593 135 557 125 q 648 164 629 146 q 674 208 667 182 q 681 264 681 233 l 681 360 q 643 471 681 432 q 519 510 606 510 l 497 510 q 574 562 560 524 q 589 639 589 600 l 589 728 q 582 785 589 758 q 556 831 575 811 q 500 863 536 851 q 407 875 464 875 l 193 875 l 193 861 l 407 861 q 542 824 508 861 q 575 733 575 788 l 575 639 q 571 591 575 614 q 551 551 567 568 q 504 523 535 533 q 421 513 474 513 l 306 513 l 306 499 z "},"4":{"ha":985,"x_min":88,"x_max":889,"o":"m 575 232 l 340 232 q 147 288 206 232 q 88 463 88 344 l 88 950 q 99 988 88 976 q 138 1000 111 1000 l 353 1000 q 391 988 379 1000 q 403 950 403 976 l 403 569 q 415 535 403 547 q 446 522 426 522 l 575 522 l 575 950 q 587 988 575 976 q 625 1000 599 1000 l 839 1000 q 877 988 865 1000 q 889 950 889 976 l 889 50 q 877 12 889 24 q 839 0 865 0 l 625 0 q 587 12 599 0 q 575 50 575 24 l 575 232 m 725 125 l 739 125 l 739 875 l 725 875 l 725 385 l 393 385 q 288 417 322 385 q 253 517 253 450 l 253 875 l 239 875 l 239 517 q 276 408 239 444 q 393 371 314 371 l 725 371 l 725 125 z "},"5":{"ha":899,"x_min":76,"x_max":839,"o":"m 568 0 l 126 0 q 88 12 100 0 q 76 50 76 24 l 76 213 q 88 251 76 239 q 126 263 100 263 l 485 263 q 512 270 501 263 q 522 294 522 278 l 522 349 q 512 373 522 365 q 485 381 501 381 l 140 381 q 102 392 114 381 q 90 431 90 404 l 90 950 q 102 988 90 976 q 140 1000 114 1000 l 739 1000 q 777 988 765 1000 q 789 950 789 976 l 789 785 q 777 747 789 758 q 739 735 765 735 l 406 735 l 406 644 l 596 644 q 774 589 708 644 q 839 424 839 533 l 839 231 q 766 63 839 125 q 568 0 693 0 m 201 125 l 529 125 q 651 158 615 125 q 688 261 688 190 l 688 383 q 651 487 688 454 q 542 519 614 519 l 256 519 l 256 861 l 664 861 l 664 875 l 242 875 l 242 506 l 542 506 q 640 477 606 506 q 674 383 674 449 l 674 261 q 640 168 674 197 q 529 139 607 139 l 201 139 l 201 125 z "},"6":{"ha":963,"x_min":81,"x_max":897,"o":"m 497 -21 q 288 -1 369 -21 q 161 56 207 19 q 98 144 115 93 q 81 260 81 196 l 81 715 q 153 921 81 842 q 422 1000 226 1000 l 742 1000 q 780 988 768 1000 q 792 950 792 976 l 792 786 q 780 748 792 760 q 742 736 768 736 l 482 736 q 413 720 431 736 q 394 653 394 704 l 394 622 q 472 638 428 632 q 571 643 515 643 q 828 580 758 643 q 897 393 897 517 l 897 260 q 880 144 897 196 q 817 56 863 93 q 694 -1 772 19 q 497 -21 617 -21 m 501 99 q 598 104 553 99 q 676 126 643 110 q 728 175 710 143 q 747 260 747 207 l 747 382 q 728 465 747 435 q 677 510 710 496 q 601 528 644 525 q 506 532 557 532 q 344 521 414 532 q 250 454 275 510 l 250 715 q 297 831 250 801 q 422 861 343 861 l 667 861 l 667 875 l 422 875 q 285 841 335 875 q 236 715 236 807 l 236 260 q 256 174 236 207 q 313 125 276 142 q 397 103 349 108 q 501 99 446 99 m 501 113 q 404 117 450 113 q 324 135 358 121 q 270 180 290 150 q 250 260 250 210 l 250 386 q 273 463 250 436 q 332 503 296 490 q 414 517 368 515 q 506 518 460 518 q 593 516 551 518 q 665 501 635 514 q 715 460 696 488 q 733 382 733 432 l 733 260 q 715 181 733 211 q 665 136 697 151 q 591 117 633 121 q 501 113 549 113 m 394 364 l 394 282 q 411 245 394 260 q 488 231 428 231 q 567 245 550 231 q 583 282 583 260 l 583 364 q 567 399 583 385 q 488 414 550 414 q 411 399 428 414 q 394 364 394 385 z "},"7":{"ha":871,"x_min":53,"x_max":799,"o":"m 749 1000 q 787 988 775 1000 q 799 950 799 976 l 799 599 q 785 488 799 533 q 746 411 772 442 q 678 360 719 381 q 582 324 638 340 l 479 293 l 479 50 q 467 12 479 24 q 429 0 456 0 l 204 0 q 166 12 178 0 q 154 50 154 24 l 154 301 q 167 413 154 367 q 207 489 181 458 q 274 540 233 519 q 371 576 315 560 l 483 607 l 483 732 l 103 732 q 65 744 76 732 q 53 782 53 756 l 53 950 q 65 988 53 976 q 103 1000 76 1000 l 749 1000 m 310 125 l 324 125 l 324 333 q 335 375 324 360 q 364 397 346 390 l 600 492 q 637 519 625 501 q 649 569 649 538 l 649 875 l 178 875 l 178 861 l 635 861 l 635 569 q 625 528 635 543 q 594 506 615 514 l 358 411 q 323 383 336 401 q 310 333 310 365 l 310 125 z "},"8":{"ha":988,"x_min":65,"x_max":922,"o":"m 922 356 l 922 221 q 902 122 922 167 q 833 46 882 78 q 702 -3 785 14 q 494 -21 619 -21 q 286 -3 369 -21 q 154 46 203 14 q 85 122 106 78 q 65 221 65 167 l 65 356 q 108 506 65 453 q 213 571 150 558 q 149 629 167 590 q 131 721 131 668 l 131 801 q 149 893 131 853 q 208 962 167 933 q 321 1006 250 990 q 496 1021 392 1021 q 670 1006 600 1021 q 781 962 740 990 q 840 893 822 933 q 857 801 857 853 l 857 721 q 839 629 857 668 q 775 571 821 590 q 880 506 838 558 q 922 356 922 453 m 494 93 q 633 104 578 93 q 719 135 688 115 q 763 181 750 154 q 775 240 775 208 l 775 369 q 738 460 775 422 q 600 513 700 499 q 696 553 667 524 q 725 632 725 583 l 725 764 q 670 871 725 836 q 494 906 615 906 q 318 872 374 906 q 263 775 263 839 l 263 632 q 292 553 263 583 q 389 513 322 524 q 251 460 289 499 q 213 368 213 421 l 213 240 q 225 181 213 208 q 269 135 238 154 q 356 104 301 115 q 494 93 411 93 m 276 775 q 331 863 276 835 q 494 892 386 892 q 657 862 603 892 q 711 764 711 832 l 711 632 q 658 546 711 572 q 494 519 604 519 q 331 546 385 519 q 276 632 276 572 l 276 775 m 407 667 q 422 630 407 644 q 494 615 436 615 q 567 630 554 615 q 581 667 581 644 l 581 728 q 567 763 581 749 q 494 778 554 778 q 422 763 436 778 q 407 728 407 749 l 407 667 m 226 368 q 286 467 226 428 q 494 506 346 506 q 702 467 643 506 q 761 369 761 429 l 761 240 q 703 144 761 181 q 494 107 644 107 q 285 144 344 107 q 226 240 226 181 l 226 368 m 372 274 q 396 237 372 251 q 494 222 419 222 q 592 237 569 222 q 615 274 615 251 l 615 347 q 592 383 615 368 q 494 397 569 397 q 396 383 419 397 q 372 347 372 368 l 372 274 z "},"9":{"ha":963,"x_min":65,"x_max":882,"o":"m 540 0 l 221 0 q 183 12 194 0 q 171 50 171 24 l 171 214 q 183 252 171 240 q 221 264 194 264 l 481 264 q 550 280 532 264 q 568 347 568 296 l 568 378 q 491 363 535 368 q 392 357 447 357 q 135 420 204 357 q 65 607 65 483 l 65 740 q 83 856 65 804 q 145 944 100 907 q 268 1001 190 981 q 465 1021 346 1021 q 674 1001 593 1021 q 801 944 756 981 q 865 856 847 907 q 882 740 882 804 l 882 285 q 809 79 882 158 q 540 0 736 0 m 296 125 l 540 125 q 677 159 628 125 q 726 285 726 193 l 726 740 q 706 826 726 793 q 650 875 686 858 q 565 897 614 892 q 461 901 517 901 q 365 896 410 901 q 286 874 319 890 q 234 825 253 857 q 215 740 215 793 l 215 618 q 234 535 215 565 q 285 490 253 504 q 362 472 318 475 q 457 468 406 468 q 618 479 549 468 q 713 546 688 490 l 713 285 q 666 169 713 199 q 540 139 619 139 l 296 139 l 296 125 m 457 482 q 369 484 411 482 q 297 499 328 486 q 248 540 267 513 q 229 618 229 568 l 229 740 q 247 819 229 789 q 297 864 265 849 q 372 883 329 879 q 461 888 414 888 q 558 883 513 888 q 638 865 604 879 q 692 820 672 850 q 713 740 713 790 l 713 614 q 690 537 713 564 q 631 497 667 510 q 549 483 594 485 q 457 482 503 482 m 568 636 l 568 718 q 551 755 568 740 q 475 769 535 769 q 396 755 413 769 q 379 718 379 740 l 379 636 q 396 601 379 615 q 475 586 413 586 q 551 601 535 586 q 568 636 568 615 z "}," ":{"ha":313,"x_min":0,"x_max":0,"o":""},"A":{"ha":1014,"x_min":75,"x_max":939,"o":"m 236 421 q 242 490 236 458 q 258 550 249 522 l 347 778 q 378 837 361 813 q 436 861 394 861 l 572 861 q 628 837 611 861 q 660 776 644 813 l 756 550 q 772 490 765 522 q 778 421 778 458 l 778 378 l 236 378 l 236 421 m 458 708 l 393 497 l 611 497 l 546 708 q 534 726 540 721 q 519 732 528 732 l 485 732 q 470 726 476 732 q 458 708 464 721 m 778 125 l 792 125 l 792 421 q 785 492 792 460 q 768 556 779 525 l 672 782 q 637 849 656 822 q 572 875 618 875 l 436 875 q 369 849 389 875 q 335 783 350 822 l 246 556 q 228 492 235 525 q 222 421 222 460 l 222 125 l 236 125 l 236 364 l 778 364 l 778 125 m 379 50 q 367 12 379 24 q 329 0 356 0 l 125 0 q 87 12 99 0 q 75 50 75 24 l 75 417 q 88 513 75 458 q 129 639 101 567 l 250 954 q 276 989 258 978 q 321 1000 293 1000 l 694 1000 q 738 989 721 1000 q 764 954 756 978 l 885 639 q 926 513 913 567 q 939 417 939 458 l 939 50 q 927 12 939 24 q 889 0 915 0 l 679 0 q 638 12 651 0 q 625 50 625 24 l 625 244 l 379 244 l 379 50 z "},"À":{"ha":1014,"x_min":75,"x_max":939,"o":"m 236 421 q 242 490 236 458 q 258 550 249 522 l 347 778 q 378 837 361 813 q 436 861 394 861 l 572 861 q 628 837 611 861 q 660 776 644 813 l 756 550 q 772 490 765 522 q 778 421 778 458 l 778 378 l 236 378 l 236 421 m 458 708 l 393 497 l 611 497 l 546 708 q 534 726 540 721 q 519 732 528 732 l 485 732 q 470 726 476 732 q 458 708 464 721 m 778 125 l 792 125 l 792 421 q 785 492 792 460 q 768 556 779 525 l 672 782 q 637 849 656 822 q 572 875 618 875 l 436 875 q 369 849 389 875 q 335 783 350 822 l 246 556 q 228 492 235 525 q 222 421 222 460 l 222 125 l 236 125 l 236 364 l 778 364 l 778 125 m 379 50 q 367 12 379 24 q 329 0 356 0 l 125 0 q 87 12 99 0 q 75 50 75 24 l 75 417 q 88 513 75 458 q 129 639 101 567 l 250 954 q 276 989 258 978 q 321 1000 293 1000 l 694 1000 q 738 989 721 1000 q 764 954 756 978 l 885 639 q 926 513 913 567 q 939 417 939 458 l 939 50 q 927 12 939 24 q 889 0 915 0 l 679 0 q 638 12 651 0 q 625 50 625 24 l 625 244 l 379 244 l 379 50 m 750 1046 l 265 1106 q 227 1119 239 1108 q 215 1156 215 1129 l 215 1289 q 227 1325 215 1313 q 263 1335 239 1338 l 747 1275 q 785 1262 774 1272 q 797 1225 797 1251 l 797 1092 q 785 1056 797 1068 q 750 1046 774 1043 m 340 1204 l 672 1163 l 672 1176 l 340 1218 l 340 1204 z "},"Á":{"ha":1014,"x_min":75,"x_max":939,"o":"m 236 421 q 242 490 236 458 q 258 550 249 522 l 347 778 q 378 837 361 813 q 436 861 394 861 l 572 861 q 628 837 611 861 q 660 776 644 813 l 756 550 q 772 490 765 522 q 778 421 778 458 l 778 378 l 236 378 l 236 421 m 458 708 l 393 497 l 611 497 l 546 708 q 534 726 540 721 q 519 732 528 732 l 485 732 q 470 726 476 732 q 458 708 464 721 m 778 125 l 792 125 l 792 421 q 785 492 792 460 q 768 556 779 525 l 672 782 q 637 849 656 822 q 572 875 618 875 l 436 875 q 369 849 389 875 q 335 783 350 822 l 246 556 q 228 492 235 525 q 222 421 222 460 l 222 125 l 236 125 l 236 364 l 778 364 l 778 125 m 379 50 q 367 12 379 24 q 329 0 356 0 l 125 0 q 87 12 99 0 q 75 50 75 24 l 75 417 q 88 513 75 458 q 129 639 101 567 l 250 954 q 276 989 258 978 q 321 1000 293 1000 l 694 1000 q 738 989 721 1000 q 764 954 756 978 l 885 639 q 926 513 913 567 q 939 417 939 458 l 939 50 q 927 12 939 24 q 889 0 915 0 l 679 0 q 638 12 651 0 q 625 50 625 24 l 625 244 l 379 244 l 379 50 m 747 1106 l 263 1046 q 227 1056 239 1043 q 215 1092 215 1068 l 215 1225 q 227 1262 215 1251 q 265 1275 239 1272 l 750 1335 q 785 1325 774 1338 q 797 1289 797 1313 l 797 1156 q 785 1119 797 1129 q 747 1106 774 1108 m 340 1176 l 340 1163 l 672 1204 l 672 1218 l 340 1176 z "},"Â":{"ha":1014,"x_min":75,"x_max":939,"o":"m 236 421 q 242 490 236 458 q 258 550 249 522 l 347 778 q 378 837 361 813 q 436 861 394 861 l 572 861 q 628 837 611 861 q 660 776 644 813 l 756 550 q 772 490 765 522 q 778 421 778 458 l 778 378 l 236 378 l 236 421 m 458 708 l 393 497 l 611 497 l 546 708 q 534 726 540 721 q 519 732 528 732 l 485 732 q 470 726 476 732 q 458 708 464 721 m 778 125 l 792 125 l 792 421 q 785 492 792 460 q 768 556 779 525 l 672 782 q 637 849 656 822 q 572 875 618 875 l 436 875 q 369 849 389 875 q 335 783 350 822 l 246 556 q 228 492 235 525 q 222 421 222 460 l 222 125 l 236 125 l 236 364 l 778 364 l 778 125 m 379 50 q 367 12 379 24 q 329 0 356 0 l 125 0 q 87 12 99 0 q 75 50 75 24 l 75 417 q 88 513 75 458 q 129 639 101 567 l 250 954 q 276 989 258 978 q 321 1000 293 1000 l 694 1000 q 738 989 721 1000 q 764 954 756 978 l 885 639 q 926 513 913 567 q 939 417 939 458 l 939 50 q 927 12 939 24 q 889 0 915 0 l 679 0 q 638 12 651 0 q 625 50 625 24 l 625 244 l 379 244 l 379 50 m 463 1107 l 272 1051 q 226 1049 238 1040 q 215 1094 215 1057 l 215 1207 q 227 1256 215 1244 q 272 1281 239 1267 l 450 1344 q 477 1353 463 1350 q 504 1357 492 1356 q 528 1356 517 1357 q 549 1350 539 1354 l 739 1281 q 785 1256 774 1267 q 797 1207 797 1244 l 797 1094 q 786 1049 797 1057 q 739 1051 775 1040 l 549 1107 q 506 1113 525 1113 q 463 1107 486 1113 m 671 1181 l 671 1196 l 556 1233 q 532 1239 543 1236 q 506 1242 521 1242 q 479 1239 490 1242 q 456 1233 468 1236 l 340 1196 l 340 1181 l 461 1219 q 481 1225 471 1222 q 506 1228 492 1228 q 530 1225 519 1228 q 550 1219 540 1222 l 671 1181 z "},"Ã":{"ha":1014,"x_min":75,"x_max":939,"o":"m 236 421 q 242 490 236 458 q 258 550 249 522 l 347 778 q 378 837 361 813 q 436 861 394 861 l 572 861 q 628 837 611 861 q 660 776 644 813 l 756 550 q 772 490 765 522 q 778 421 778 458 l 778 378 l 236 378 l 236 421 m 458 708 l 393 497 l 611 497 l 546 708 q 534 726 540 721 q 519 732 528 732 l 485 732 q 470 726 476 732 q 458 708 464 721 m 778 125 l 792 125 l 792 421 q 785 492 792 460 q 768 556 779 525 l 672 782 q 637 849 656 822 q 572 875 618 875 l 436 875 q 369 849 389 875 q 335 783 350 822 l 246 556 q 228 492 235 525 q 222 421 222 460 l 222 125 l 236 125 l 236 364 l 778 364 l 778 125 m 379 50 q 367 12 379 24 q 329 0 356 0 l 125 0 q 87 12 99 0 q 75 50 75 24 l 75 417 q 88 513 75 458 q 129 639 101 567 l 250 954 q 276 989 258 978 q 321 1000 293 1000 l 694 1000 q 738 989 721 1000 q 764 954 756 978 l 885 639 q 926 513 913 567 q 939 417 939 458 l 939 50 q 927 12 939 24 q 889 0 915 0 l 679 0 q 638 12 651 0 q 625 50 625 24 l 625 244 l 379 244 l 379 50 m 506 1061 l 467 1067 q 401 1074 428 1072 q 354 1074 375 1076 q 313 1067 333 1072 q 265 1054 293 1063 q 228 1056 240 1047 q 215 1090 215 1064 l 215 1231 q 228 1267 215 1257 q 265 1288 242 1278 q 321 1302 299 1297 q 365 1307 343 1307 q 413 1303 386 1307 q 482 1294 440 1300 l 506 1292 l 536 1288 q 609 1278 582 1281 q 656 1276 636 1275 q 696 1283 676 1278 q 746 1299 715 1289 q 783 1297 771 1306 q 796 1263 796 1289 l 796 1122 q 783 1085 796 1096 q 746 1065 769 1075 q 690 1051 713 1056 q 646 1046 668 1046 q 597 1049 624 1046 q 528 1058 569 1053 l 506 1061 m 671 1168 q 613 1168 643 1165 q 529 1179 582 1171 l 507 1182 l 468 1188 q 392 1195 421 1193 q 340 1194 364 1197 l 340 1179 q 391 1182 363 1183 q 465 1174 419 1181 l 504 1168 l 526 1165 q 611 1154 579 1157 q 671 1154 643 1151 l 671 1168 z "},"Ä":{"ha":1014,"x_min":75,"x_max":939,"o":"m 236 421 q 242 490 236 458 q 258 550 249 522 l 347 778 q 378 837 361 813 q 436 861 394 861 l 572 861 q 628 837 611 861 q 660 776 644 813 l 756 550 q 772 490 765 522 q 778 421 778 458 l 778 378 l 236 378 l 236 421 m 458 708 l 393 497 l 611 497 l 546 708 q 534 726 540 721 q 519 732 528 732 l 485 732 q 470 726 476 732 q 458 708 464 721 m 778 125 l 792 125 l 792 421 q 785 492 792 460 q 768 556 779 525 l 672 782 q 637 849 656 822 q 572 875 618 875 l 436 875 q 369 849 389 875 q 335 783 350 822 l 246 556 q 228 492 235 525 q 222 421 222 460 l 222 125 l 236 125 l 236 364 l 778 364 l 778 125 m 379 50 q 367 12 379 24 q 329 0 356 0 l 125 0 q 87 12 99 0 q 75 50 75 24 l 75 417 q 88 513 75 458 q 129 639 101 567 l 250 954 q 276 989 258 978 q 321 1000 293 1000 l 694 1000 q 738 989 721 1000 q 764 954 756 978 l 885 639 q 926 513 913 567 q 939 417 939 458 l 939 50 q 927 12 939 24 q 889 0 915 0 l 679 0 q 638 12 651 0 q 625 50 625 24 l 625 244 l 379 244 l 379 50 m 421 1056 l 229 1056 q 194 1067 206 1056 q 182 1101 182 1078 l 182 1269 q 194 1304 182 1293 q 229 1315 206 1315 l 421 1315 q 456 1304 444 1315 q 467 1269 467 1293 l 467 1101 q 456 1067 467 1078 q 421 1056 444 1056 m 779 1056 l 588 1056 q 553 1067 564 1056 q 542 1101 542 1078 l 542 1269 q 553 1304 542 1293 q 588 1315 564 1315 l 779 1315 q 814 1304 803 1315 q 825 1269 825 1293 l 825 1101 q 814 1067 825 1078 q 779 1056 803 1056 m 332 1153 l 332 1218 l 318 1218 l 318 1153 l 332 1153 m 690 1153 l 690 1218 l 676 1218 l 676 1153 l 690 1153 z "},"Å":{"ha":1014,"x_min":75,"x_max":939,"o":"m 313 1056 q 320 999 313 1025 q 349 955 328 974 q 408 926 369 936 q 508 917 447 917 q 669 955 632 917 q 707 1056 707 993 l 707 1118 q 669 1219 707 1179 q 508 1258 632 1258 q 408 1248 447 1258 q 349 1219 369 1238 q 320 1175 328 1201 q 313 1118 313 1149 l 313 1056 m 508 1244 q 656 1210 619 1244 q 693 1118 693 1175 l 693 1056 q 656 964 693 997 q 508 931 619 931 q 362 964 397 931 q 326 1056 326 997 l 326 1118 q 362 1210 326 1176 q 508 1244 397 1244 m 590 1061 l 590 1110 q 575 1151 590 1136 q 508 1165 560 1165 q 443 1151 457 1165 q 429 1110 429 1136 l 429 1061 q 443 1016 429 1031 q 508 1001 457 1001 q 575 1016 560 1001 q 590 1061 590 1031 m 236 421 q 242 490 236 458 q 258 550 249 522 l 347 778 q 378 837 361 813 q 436 861 394 861 l 572 861 q 628 837 611 861 q 660 776 644 813 l 756 550 q 772 490 765 522 q 778 421 778 458 l 778 378 l 236 378 l 236 421 m 458 708 l 393 497 l 611 497 l 546 708 q 535 726 542 721 q 519 732 528 732 l 485 732 q 469 726 476 732 q 458 708 463 721 m 778 125 l 792 125 l 792 421 q 785 492 792 460 q 768 556 779 525 l 672 782 q 637 849 656 822 q 572 875 618 875 l 436 875 q 369 849 389 875 q 335 783 350 822 l 246 556 q 228 492 235 525 q 222 421 222 460 l 222 125 l 236 125 l 236 364 l 778 364 l 778 125 m 379 50 q 367 12 379 24 q 329 0 356 0 l 125 0 q 87 12 99 0 q 75 50 75 24 l 75 417 q 88 513 75 458 q 129 639 101 567 l 246 944 q 215 1001 224 969 q 206 1071 206 1033 l 206 1151 q 219 1233 206 1196 q 266 1295 232 1269 q 358 1335 300 1321 q 507 1350 417 1350 q 656 1335 597 1350 q 748 1295 714 1321 q 795 1233 782 1269 q 808 1151 808 1196 l 808 1071 q 799 1001 808 1033 q 768 944 790 969 l 885 639 q 926 513 913 567 q 939 417 939 458 l 939 50 q 927 12 939 24 q 889 0 915 0 l 679 0 q 638 12 651 0 q 625 50 625 24 l 625 244 l 379 244 l 379 50 z "},"Ā":{"ha":1014,"x_min":75,"x_max":939,"o":"m 236 421 q 242 490 236 458 q 258 550 249 522 l 347 778 q 378 837 361 813 q 436 861 394 861 l 572 861 q 628 837 611 861 q 660 776 644 813 l 756 550 q 772 490 765 522 q 778 421 778 458 l 778 378 l 236 378 l 236 421 m 458 708 l 393 497 l 611 497 l 546 708 q 534 726 540 721 q 519 732 528 732 l 485 732 q 470 726 476 732 q 458 708 464 721 m 778 125 l 792 125 l 792 421 q 785 492 792 460 q 768 556 779 525 l 672 782 q 637 849 656 822 q 572 875 618 875 l 436 875 q 369 849 389 875 q 335 783 350 822 l 246 556 q 228 492 235 525 q 222 421 222 460 l 222 125 l 236 125 l 236 364 l 778 364 l 778 125 m 379 50 q 367 12 379 24 q 329 0 356 0 l 125 0 q 87 12 99 0 q 75 50 75 24 l 75 417 q 88 513 75 458 q 129 639 101 567 l 250 954 q 276 989 258 978 q 321 1000 293 1000 l 694 1000 q 738 989 721 1000 q 764 954 756 978 l 885 639 q 926 513 913 567 q 939 417 939 458 l 939 50 q 927 12 939 24 q 889 0 915 0 l 679 0 q 638 12 651 0 q 625 50 625 24 l 625 244 l 379 244 l 379 50 m 747 1056 l 265 1056 q 227 1067 239 1056 q 215 1106 215 1079 l 215 1235 q 227 1273 215 1261 q 265 1285 239 1285 l 747 1285 q 785 1273 774 1285 q 797 1235 797 1261 l 797 1106 q 785 1067 797 1079 q 747 1056 774 1056 m 340 1176 l 340 1163 l 672 1163 l 672 1176 l 340 1176 z "},"Ă":{"ha":1014,"x_min":75,"x_max":939,"o":"m 236 421 q 242 490 236 458 q 258 550 249 522 l 347 778 q 378 837 361 813 q 436 861 394 861 l 572 861 q 628 837 611 861 q 660 776 644 813 l 756 550 q 772 490 765 522 q 778 421 778 458 l 778 378 l 236 378 l 236 421 m 458 708 l 393 497 l 611 497 l 546 708 q 534 726 540 721 q 519 732 528 732 l 485 732 q 470 726 476 732 q 458 708 464 721 m 778 125 l 792 125 l 792 421 q 785 492 792 460 q 768 556 779 525 l 672 782 q 637 849 656 822 q 572 875 618 875 l 436 875 q 369 849 389 875 q 335 783 350 822 l 246 556 q 228 492 235 525 q 222 421 222 460 l 222 125 l 236 125 l 236 364 l 778 364 l 778 125 m 379 50 q 367 12 379 24 q 329 0 356 0 l 125 0 q 87 12 99 0 q 75 50 75 24 l 75 417 q 88 513 75 458 q 129 639 101 567 l 250 954 q 276 989 258 978 q 321 1000 293 1000 l 694 1000 q 738 989 721 1000 q 764 954 756 978 l 885 639 q 926 513 913 567 q 939 417 939 458 l 939 50 q 927 12 939 24 q 889 0 915 0 l 679 0 q 638 12 651 0 q 625 50 625 24 l 625 244 l 379 244 l 379 50 m 808 1246 q 795 1165 808 1201 q 748 1102 782 1128 q 656 1062 714 1076 q 507 1047 597 1047 q 358 1062 417 1047 q 266 1102 300 1076 q 219 1165 232 1128 q 206 1246 206 1201 l 206 1307 q 217 1345 206 1333 q 256 1357 229 1357 l 389 1357 q 420 1348 411 1357 q 429 1314 429 1339 l 429 1285 q 443 1252 429 1265 q 508 1239 457 1239 q 575 1252 560 1239 q 590 1285 590 1265 l 590 1314 q 599 1348 590 1339 q 632 1357 608 1357 l 758 1357 q 797 1345 785 1357 q 808 1307 808 1333 l 808 1246 m 693 1260 l 693 1247 q 656 1180 693 1210 q 506 1150 618 1150 q 359 1180 393 1150 q 325 1247 325 1210 l 325 1260 l 311 1260 l 311 1247 q 317 1208 311 1228 q 344 1172 324 1188 q 403 1146 364 1156 q 506 1136 442 1136 q 610 1146 569 1136 q 671 1172 650 1156 q 699 1208 692 1188 q 707 1247 707 1228 l 707 1260 l 693 1260 z "},"Ą":{"ha":1014,"x_min":75,"x_max":939,"o":"m 939 -211 q 929 -248 939 -237 q 893 -258 919 -258 l 739 -258 q 617 -212 650 -258 q 599 -71 585 -167 l 625 78 l 625 244 l 379 244 l 379 50 q 367 12 379 24 q 329 0 356 0 l 125 0 q 87 12 99 0 q 75 50 75 24 l 75 417 q 88 513 75 458 q 129 639 101 567 l 250 954 q 276 989 258 978 q 321 1000 293 1000 l 694 1000 q 738 989 721 1000 q 764 954 756 978 l 885 639 q 926 513 913 567 q 939 417 939 458 l 939 50 q 927 12 939 24 q 889 0 915 0 l 842 0 l 832 -64 l 889 -64 q 928 -74 918 -64 q 939 -111 939 -85 l 939 -211 m 781 -161 l 814 -161 l 814 -147 l 781 -147 q 728 -124 738 -147 q 724 -60 718 -101 l 740 58 q 752 100 744 89 q 786 125 760 111 l 792 125 l 792 421 q 785 492 792 460 q 768 556 779 525 l 672 782 q 637 849 656 822 q 572 875 618 875 l 436 875 q 369 849 389 875 q 335 783 350 822 l 246 556 q 228 492 235 525 q 222 421 222 460 l 222 125 l 236 125 l 236 364 l 778 364 l 778 136 q 740 106 749 119 q 726 58 732 92 l 710 -57 q 715 -135 701 -108 q 781 -161 729 -161 m 236 421 q 242 490 236 458 q 258 550 249 522 l 347 778 q 378 837 361 813 q 436 861 394 861 l 572 861 q 628 837 611 861 q 660 776 644 813 l 756 550 q 772 490 765 522 q 778 421 778 458 l 778 378 l 236 378 l 236 421 m 458 708 l 393 497 l 611 497 l 546 708 q 534 726 540 721 q 519 732 528 732 l 485 732 q 470 726 476 732 q 458 708 464 721 z "},"B":{"ha":1007,"x_min":96,"x_max":949,"o":"m 679 0 l 146 0 q 108 12 119 0 q 96 50 96 24 l 96 950 q 108 988 96 976 q 146 1000 119 1000 l 589 1000 q 790 948 725 1000 q 856 788 856 896 l 856 721 q 835 626 856 663 q 774 571 815 589 q 906 510 863 563 q 949 356 949 457 l 949 228 q 883 56 949 111 q 679 0 817 0 m 250 125 l 624 125 q 718 135 682 125 q 773 164 754 146 q 799 208 792 182 q 806 264 806 233 l 806 353 q 799 417 806 388 q 774 467 793 446 q 718 501 754 489 q 625 513 682 513 q 699 563 685 528 q 714 639 714 597 l 714 728 q 707 785 714 758 q 681 831 700 811 q 625 863 661 851 q 532 875 589 875 l 250 875 l 250 125 m 532 861 q 668 822 636 861 q 700 728 700 783 l 700 639 q 695 591 700 614 q 673 551 690 568 q 622 523 656 533 q 532 513 589 513 l 264 513 l 264 861 l 532 861 m 408 764 l 408 614 l 526 614 q 566 628 553 614 q 579 669 579 642 l 579 708 q 566 750 579 736 q 526 764 553 764 l 408 764 m 625 499 q 760 457 729 499 q 792 353 792 415 l 792 264 q 760 173 792 207 q 624 139 728 139 l 264 139 l 264 499 l 625 499 m 408 400 l 408 236 l 589 236 q 628 250 615 236 q 642 292 642 264 l 642 346 q 628 387 642 374 q 589 400 615 400 l 408 400 z "},"C":{"ha":872,"x_min":81,"x_max":811,"o":"m 761 0 l 422 0 q 165 69 249 0 q 81 283 81 139 l 81 715 q 165 930 81 860 q 422 1000 249 1000 l 761 1000 q 799 988 788 1000 q 811 950 811 976 l 811 782 q 799 744 811 756 q 761 732 788 732 l 482 732 q 418 715 439 732 q 397 663 397 697 l 397 332 q 418 281 397 297 q 482 265 439 265 l 761 265 q 799 253 788 265 q 811 215 811 242 l 811 50 q 799 12 811 24 q 761 0 788 0 m 685 139 l 453 139 q 286 176 328 139 q 244 304 244 214 l 244 693 q 288 823 244 785 q 453 861 331 861 l 685 861 l 685 875 l 453 875 q 275 833 319 875 q 231 693 231 792 l 231 304 q 274 167 231 208 q 453 125 318 125 l 685 125 l 685 139 z "},"Ç":{"ha":872,"x_min":81,"x_max":811,"o":"m 604 -133 q 582 -165 597 -156 q 540 -175 567 -175 l 365 -175 q 322 -160 331 -175 q 324 -119 314 -144 l 368 1 q 151 81 222 11 q 81 283 81 150 l 81 715 q 165 930 81 860 q 422 1000 249 1000 l 761 1000 q 799 988 788 1000 q 811 950 811 976 l 811 782 q 799 744 811 756 q 761 732 788 732 l 482 732 q 418 715 439 732 q 397 663 397 697 l 397 332 q 418 281 397 297 q 482 265 439 265 l 761 265 q 799 253 788 265 q 811 215 811 242 l 811 50 q 799 12 811 24 q 761 0 788 0 l 651 0 l 604 -133 m 485 -50 l 499 -50 l 563 125 l 685 125 l 685 139 l 453 139 q 286 176 328 139 q 244 304 244 214 l 244 693 q 288 823 244 785 q 453 861 331 861 l 685 861 l 685 875 l 453 875 q 275 833 319 875 q 231 693 231 792 l 231 304 q 274 167 231 208 q 453 125 318 125 l 547 125 l 485 -50 z "},"Ć":{"ha":872,"x_min":81,"x_max":811,"o":"m 761 0 l 422 0 q 165 69 249 0 q 81 283 81 139 l 81 715 q 165 930 81 860 q 422 1000 249 1000 l 761 1000 q 799 988 788 1000 q 811 950 811 976 l 811 782 q 799 744 811 756 q 761 732 788 732 l 482 732 q 418 715 439 732 q 397 663 397 697 l 397 332 q 418 281 397 297 q 482 265 439 265 l 761 265 q 799 253 788 265 q 811 215 811 242 l 811 50 q 799 12 811 24 q 761 0 788 0 m 685 139 l 453 139 q 286 176 328 139 q 244 304 244 214 l 244 693 q 288 823 244 785 q 453 861 331 861 l 685 861 l 685 875 l 453 875 q 275 833 319 875 q 231 693 231 792 l 231 304 q 274 167 231 208 q 453 125 318 125 l 685 125 l 685 139 m 761 1106 l 276 1046 q 241 1056 253 1043 q 229 1092 229 1068 l 229 1225 q 241 1262 229 1251 q 279 1275 253 1272 l 764 1335 q 799 1325 788 1338 q 811 1289 811 1313 l 811 1156 q 799 1119 811 1129 q 761 1106 788 1108 m 354 1176 l 354 1163 l 686 1204 l 686 1218 l 354 1176 z "},"Ĉ":{"ha":872,"x_min":81,"x_max":811,"o":"m 761 0 l 422 0 q 165 69 249 0 q 81 283 81 139 l 81 715 q 165 930 81 860 q 422 1000 249 1000 l 761 1000 q 799 988 788 1000 q 811 950 811 976 l 811 782 q 799 744 811 756 q 761 732 788 732 l 482 732 q 418 715 439 732 q 397 663 397 697 l 397 332 q 418 281 397 297 q 482 265 439 265 l 761 265 q 799 253 788 265 q 811 215 811 242 l 811 50 q 799 12 811 24 q 761 0 788 0 m 685 139 l 453 139 q 286 176 328 139 q 244 304 244 214 l 244 693 q 288 823 244 785 q 453 861 331 861 l 685 861 l 685 875 l 453 875 q 275 833 319 875 q 231 693 231 792 l 231 304 q 274 167 231 208 q 453 125 318 125 l 685 125 l 685 139 m 435 1107 l 244 1051 q 199 1049 210 1040 q 188 1094 188 1057 l 188 1207 q 199 1256 188 1244 q 244 1281 211 1267 l 422 1344 q 449 1353 435 1350 q 476 1357 464 1356 q 500 1356 489 1357 q 521 1350 511 1354 l 711 1281 q 758 1256 746 1267 q 769 1207 769 1244 l 769 1094 q 758 1049 769 1057 q 711 1051 747 1040 l 521 1107 q 478 1113 497 1113 q 435 1107 458 1113 m 643 1181 l 643 1196 l 528 1233 q 504 1239 515 1236 q 478 1242 493 1242 q 451 1239 463 1242 q 428 1233 440 1236 l 313 1196 l 313 1181 l 433 1219 q 453 1225 443 1222 q 478 1228 464 1228 q 502 1225 492 1228 q 522 1219 513 1222 l 643 1181 z "},"Ċ":{"ha":872,"x_min":81,"x_max":811,"o":"m 761 0 l 422 0 q 165 69 249 0 q 81 283 81 139 l 81 715 q 165 930 81 860 q 422 1000 249 1000 l 761 1000 q 799 988 788 1000 q 811 950 811 976 l 811 782 q 799 744 811 756 q 761 732 788 732 l 482 732 q 418 715 439 732 q 397 663 397 697 l 397 332 q 418 281 397 297 q 482 265 439 265 l 761 265 q 799 253 788 265 q 811 215 811 242 l 811 50 q 799 12 811 24 q 761 0 788 0 m 685 139 l 453 139 q 286 176 328 139 q 244 304 244 214 l 244 693 q 288 823 244 785 q 453 861 331 861 l 685 861 l 685 875 l 453 875 q 275 833 319 875 q 231 693 231 792 l 231 304 q 274 167 231 208 q 453 125 318 125 l 685 125 l 685 139 m 604 1056 l 385 1056 q 347 1067 358 1056 q 335 1106 335 1079 l 335 1282 q 347 1320 335 1308 q 385 1332 358 1332 l 604 1332 q 642 1320 631 1332 q 654 1282 654 1308 l 654 1106 q 642 1067 654 1079 q 604 1056 631 1056 m 501 1153 l 501 1235 l 488 1235 l 488 1153 l 501 1153 z "},"Č":{"ha":872,"x_min":81,"x_max":811,"o":"m 761 0 l 422 0 q 165 69 249 0 q 81 283 81 139 l 81 715 q 165 930 81 860 q 422 1000 249 1000 l 761 1000 q 799 988 788 1000 q 811 950 811 976 l 811 782 q 799 744 811 756 q 761 732 788 732 l 482 732 q 418 715 439 732 q 397 663 397 697 l 397 332 q 418 281 397 297 q 482 265 439 265 l 761 265 q 799 253 788 265 q 811 215 811 242 l 811 50 q 799 12 811 24 q 761 0 788 0 m 685 139 l 453 139 q 286 176 328 139 q 244 304 244 214 l 244 693 q 288 823 244 785 q 453 861 331 861 l 685 861 l 685 875 l 453 875 q 275 833 319 875 q 231 693 231 792 l 231 304 q 274 167 231 208 q 453 125 318 125 l 685 125 l 685 139 m 522 1294 l 713 1350 q 758 1353 747 1361 q 769 1307 769 1344 l 769 1194 q 758 1146 769 1157 q 713 1121 746 1135 l 535 1057 q 508 1049 522 1051 q 481 1044 493 1046 q 457 1046 468 1044 q 436 1051 446 1047 l 246 1121 q 199 1146 211 1135 q 188 1194 188 1157 l 188 1307 q 199 1353 188 1344 q 246 1350 210 1361 l 436 1294 q 479 1289 460 1289 q 522 1294 499 1289 m 313 1221 l 313 1206 l 428 1168 q 451 1163 440 1165 q 478 1160 463 1160 q 504 1163 493 1160 q 528 1168 515 1165 l 643 1206 l 643 1221 l 522 1182 q 502 1176 513 1179 q 478 1174 492 1174 q 453 1176 464 1174 q 433 1182 443 1179 l 313 1221 z "},"D":{"ha":1036,"x_min":96,"x_max":956,"o":"m 614 0 l 146 0 q 108 12 119 0 q 96 50 96 24 l 96 950 q 108 988 96 976 q 146 1000 119 1000 l 614 1000 q 872 931 788 1000 q 956 717 956 861 l 956 283 q 872 69 956 139 q 614 0 788 0 m 247 125 l 583 125 q 699 140 654 125 q 767 179 743 154 q 798 239 790 204 q 806 314 806 274 l 806 682 q 797 758 806 722 q 765 819 789 793 q 698 860 742 844 q 583 875 654 875 l 247 875 l 247 125 m 583 861 q 690 847 649 861 q 753 810 731 833 q 783 753 775 786 q 792 682 792 719 l 792 314 q 784 244 792 276 q 754 188 776 211 q 691 152 732 165 q 583 139 650 139 l 261 139 l 261 861 l 583 861 m 411 735 l 411 263 l 576 263 q 626 279 610 263 q 642 331 642 296 l 642 668 q 626 719 642 703 q 576 735 610 735 l 411 735 z "},"Ď":{"ha":1036,"x_min":96,"x_max":956,"o":"m 614 0 l 146 0 q 108 12 119 0 q 96 50 96 24 l 96 950 q 108 988 96 976 q 146 1000 119 1000 l 614 1000 q 872 931 788 1000 q 956 717 956 861 l 956 283 q 872 69 956 139 q 614 0 788 0 m 247 125 l 583 125 q 699 140 654 125 q 767 179 743 154 q 798 239 790 204 q 806 314 806 274 l 806 682 q 797 758 806 722 q 765 819 789 793 q 698 860 742 844 q 583 875 654 875 l 247 875 l 247 125 m 583 861 q 690 847 649 861 q 753 810 731 833 q 783 753 775 786 q 792 682 792 719 l 792 314 q 784 244 792 276 q 754 188 776 211 q 691 152 732 165 q 583 139 650 139 l 261 139 l 261 861 l 583 861 m 411 735 l 411 263 l 576 263 q 626 279 610 263 q 642 331 642 296 l 642 668 q 626 719 642 703 q 576 735 610 735 l 411 735 m 561 1294 l 751 1350 q 797 1353 786 1361 q 808 1307 808 1344 l 808 1194 q 797 1146 808 1157 q 751 1121 785 1135 l 574 1057 q 547 1049 561 1051 q 519 1044 532 1046 q 496 1046 507 1044 q 475 1051 485 1047 l 285 1121 q 238 1146 250 1135 q 226 1194 226 1157 l 226 1307 q 238 1353 226 1344 q 285 1350 249 1361 l 475 1294 q 518 1289 499 1289 q 561 1294 538 1289 m 351 1221 l 351 1206 l 467 1168 q 490 1163 479 1165 q 517 1160 501 1160 q 543 1163 532 1160 q 567 1168 554 1165 l 682 1206 l 682 1221 l 561 1182 q 541 1176 551 1179 q 517 1174 531 1174 q 492 1176 503 1174 q 472 1182 482 1179 l 351 1221 z "},"E":{"ha":908,"x_min":96,"x_max":840,"o":"m 790 0 l 146 0 q 108 12 119 0 q 96 50 96 24 l 96 950 q 108 988 96 976 q 146 1000 119 1000 l 790 1000 q 828 988 817 1000 q 840 950 840 976 l 840 788 q 828 749 840 761 q 790 738 817 738 l 407 738 l 407 631 l 678 631 q 716 619 704 631 q 728 581 728 607 l 728 432 q 716 394 728 406 q 678 382 704 382 l 407 382 l 407 263 l 790 263 q 828 251 817 263 q 840 213 840 239 l 840 50 q 828 12 840 24 q 790 0 817 0 m 715 139 l 261 139 l 261 499 l 603 499 l 603 513 l 261 513 l 261 861 l 715 861 l 715 875 l 247 875 l 247 125 l 715 125 l 715 139 z "},"È":{"ha":908,"x_min":96,"x_max":840,"o":"m 790 0 l 146 0 q 108 12 119 0 q 96 50 96 24 l 96 950 q 108 988 96 976 q 146 1000 119 1000 l 790 1000 q 828 988 817 1000 q 840 950 840 976 l 840 788 q 828 749 840 761 q 790 738 817 738 l 407 738 l 407 631 l 678 631 q 716 619 704 631 q 728 581 728 607 l 728 432 q 716 394 728 406 q 678 382 704 382 l 407 382 l 407 263 l 790 263 q 828 251 817 263 q 840 213 840 239 l 840 50 q 828 12 840 24 q 790 0 817 0 m 715 139 l 261 139 l 261 499 l 603 499 l 603 513 l 261 513 l 261 861 l 715 861 l 715 875 l 247 875 l 247 125 l 715 125 l 715 139 m 697 1046 l 213 1106 q 174 1119 186 1108 q 163 1156 163 1129 l 163 1289 q 174 1325 163 1313 q 210 1335 186 1338 l 694 1275 q 733 1262 721 1272 q 744 1225 744 1251 l 744 1092 q 733 1056 744 1068 q 697 1046 721 1043 m 288 1204 l 619 1163 l 619 1176 l 288 1218 l 288 1204 z "},"É":{"ha":908,"x_min":96,"x_max":840,"o":"m 790 0 l 146 0 q 108 12 119 0 q 96 50 96 24 l 96 950 q 108 988 96 976 q 146 1000 119 1000 l 790 1000 q 828 988 817 1000 q 840 950 840 976 l 840 788 q 828 749 840 761 q 790 738 817 738 l 407 738 l 407 631 l 678 631 q 716 619 704 631 q 728 581 728 607 l 728 432 q 716 394 728 406 q 678 382 704 382 l 407 382 l 407 263 l 790 263 q 828 251 817 263 q 840 213 840 239 l 840 50 q 828 12 840 24 q 790 0 817 0 m 715 139 l 261 139 l 261 499 l 603 499 l 603 513 l 261 513 l 261 861 l 715 861 l 715 875 l 247 875 l 247 125 l 715 125 l 715 139 m 736 1106 l 251 1046 q 216 1056 228 1043 q 204 1092 204 1068 l 204 1225 q 216 1262 204 1251 q 254 1275 228 1272 l 739 1335 q 774 1325 763 1338 q 786 1289 786 1313 l 786 1156 q 774 1119 786 1129 q 736 1106 763 1108 m 329 1176 l 329 1163 l 661 1204 l 661 1218 l 329 1176 z "},"Ê":{"ha":908,"x_min":96,"x_max":840,"o":"m 790 0 l 146 0 q 108 12 119 0 q 96 50 96 24 l 96 950 q 108 988 96 976 q 146 1000 119 1000 l 790 1000 q 828 988 817 1000 q 840 950 840 976 l 840 788 q 828 749 840 761 q 790 738 817 738 l 407 738 l 407 631 l 678 631 q 716 619 704 631 q 728 581 728 607 l 728 432 q 716 394 728 406 q 678 382 704 382 l 407 382 l 407 263 l 790 263 q 828 251 817 263 q 840 213 840 239 l 840 50 q 828 12 840 24 q 790 0 817 0 m 715 139 l 261 139 l 261 499 l 603 499 l 603 513 l 261 513 l 261 861 l 715 861 l 715 875 l 247 875 l 247 125 l 715 125 l 715 139 m 424 1107 l 233 1051 q 188 1049 199 1040 q 176 1094 176 1057 l 176 1207 q 188 1256 176 1244 q 233 1281 200 1267 l 411 1344 q 438 1353 424 1350 q 465 1357 453 1356 q 489 1356 478 1357 q 510 1350 500 1354 l 700 1281 q 747 1256 735 1267 q 758 1207 758 1244 l 758 1094 q 747 1049 758 1057 q 700 1051 736 1040 l 510 1107 q 467 1113 486 1113 q 424 1107 447 1113 m 632 1181 l 632 1196 l 517 1233 q 493 1239 504 1236 q 467 1242 482 1242 q 440 1239 451 1242 q 417 1233 429 1236 l 301 1196 l 301 1181 l 422 1219 q 442 1225 432 1222 q 467 1228 453 1228 q 491 1225 481 1228 q 511 1219 501 1222 l 632 1181 z "},"Ë":{"ha":908,"x_min":96,"x_max":840,"o":"m 790 0 l 146 0 q 108 12 119 0 q 96 50 96 24 l 96 950 q 108 988 96 976 q 146 1000 119 1000 l 790 1000 q 828 988 817 1000 q 840 950 840 976 l 840 788 q 828 749 840 761 q 790 738 817 738 l 407 738 l 407 631 l 678 631 q 716 619 704 631 q 728 581 728 607 l 728 432 q 716 394 728 406 q 678 382 704 382 l 407 382 l 407 263 l 790 263 q 828 251 817 263 q 840 213 840 239 l 840 50 q 828 12 840 24 q 790 0 817 0 m 715 139 l 261 139 l 261 499 l 603 499 l 603 513 l 261 513 l 261 861 l 715 861 l 715 875 l 247 875 l 247 125 l 715 125 l 715 139 m 396 1056 l 204 1056 q 169 1067 181 1056 q 157 1101 157 1078 l 157 1269 q 169 1304 157 1293 q 204 1315 181 1315 l 396 1315 q 431 1304 419 1315 q 442 1269 442 1293 l 442 1101 q 431 1067 442 1078 q 396 1056 419 1056 m 754 1056 l 563 1056 q 528 1067 539 1056 q 517 1101 517 1078 l 517 1269 q 528 1304 517 1293 q 563 1315 539 1315 l 754 1315 q 789 1304 778 1315 q 800 1269 800 1293 l 800 1101 q 789 1067 800 1078 q 754 1056 778 1056 m 307 1153 l 307 1218 l 293 1218 l 293 1153 l 307 1153 m 665 1153 l 665 1218 l 651 1218 l 651 1153 l 665 1153 z "},"Ē":{"ha":908,"x_min":96,"x_max":840,"o":"m 790 0 l 146 0 q 108 12 119 0 q 96 50 96 24 l 96 950 q 108 988 96 976 q 146 1000 119 1000 l 790 1000 q 828 988 817 1000 q 840 950 840 976 l 840 788 q 828 749 840 761 q 790 738 817 738 l 407 738 l 407 631 l 678 631 q 716 619 704 631 q 728 581 728 607 l 728 432 q 716 394 728 406 q 678 382 704 382 l 407 382 l 407 263 l 790 263 q 828 251 817 263 q 840 213 840 239 l 840 50 q 828 12 840 24 q 790 0 817 0 m 715 139 l 261 139 l 261 499 l 603 499 l 603 513 l 261 513 l 261 861 l 715 861 l 715 875 l 247 875 l 247 125 l 715 125 l 715 139 m 708 1056 l 226 1056 q 188 1067 200 1056 q 176 1106 176 1079 l 176 1235 q 188 1273 176 1261 q 226 1285 200 1285 l 708 1285 q 747 1273 735 1285 q 758 1235 758 1261 l 758 1106 q 747 1067 758 1079 q 708 1056 735 1056 m 301 1176 l 301 1163 l 633 1163 l 633 1176 l 301 1176 z "},"Ĕ":{"ha":908,"x_min":96,"x_max":840,"o":"m 790 0 l 146 0 q 108 12 119 0 q 96 50 96 24 l 96 950 q 108 988 96 976 q 146 1000 119 1000 l 790 1000 q 828 988 817 1000 q 840 950 840 976 l 840 788 q 828 749 840 761 q 790 738 817 738 l 407 738 l 407 631 l 678 631 q 716 619 704 631 q 728 581 728 607 l 728 432 q 716 394 728 406 q 678 382 704 382 l 407 382 l 407 263 l 790 263 q 828 251 817 263 q 840 213 840 239 l 840 50 q 828 12 840 24 q 790 0 817 0 m 715 139 l 261 139 l 261 499 l 603 499 l 603 513 l 261 513 l 261 861 l 715 861 l 715 875 l 247 875 l 247 125 l 715 125 l 715 139 m 783 1246 q 770 1165 783 1201 q 723 1102 757 1128 q 631 1062 689 1076 q 482 1047 572 1047 q 333 1062 392 1047 q 241 1102 275 1076 q 194 1165 207 1128 q 181 1246 181 1201 l 181 1307 q 192 1345 181 1333 q 231 1357 204 1357 l 364 1357 q 395 1348 386 1357 q 404 1314 404 1339 l 404 1285 q 418 1252 404 1265 q 483 1239 432 1239 q 550 1252 535 1239 q 565 1285 565 1265 l 565 1314 q 574 1348 565 1339 q 607 1357 583 1357 l 733 1357 q 772 1345 760 1357 q 783 1307 783 1333 l 783 1246 m 668 1260 l 668 1247 q 631 1180 668 1210 q 481 1150 593 1150 q 334 1180 368 1150 q 300 1247 300 1210 l 300 1260 l 286 1260 l 286 1247 q 292 1208 286 1228 q 319 1172 299 1188 q 378 1146 339 1156 q 481 1136 417 1136 q 585 1146 544 1136 q 646 1172 625 1156 q 674 1208 667 1188 q 682 1247 682 1228 l 682 1260 l 668 1260 z "},"Ė":{"ha":908,"x_min":96,"x_max":840,"o":"m 790 0 l 146 0 q 108 12 119 0 q 96 50 96 24 l 96 950 q 108 988 96 976 q 146 1000 119 1000 l 790 1000 q 828 988 817 1000 q 840 950 840 976 l 840 788 q 828 749 840 761 q 790 738 817 738 l 407 738 l 407 631 l 678 631 q 716 619 704 631 q 728 581 728 607 l 728 432 q 716 394 728 406 q 678 382 704 382 l 407 382 l 407 263 l 790 263 q 828 251 817 263 q 840 213 840 239 l 840 50 q 828 12 840 24 q 790 0 817 0 m 715 139 l 261 139 l 261 499 l 603 499 l 603 513 l 261 513 l 261 861 l 715 861 l 715 875 l 247 875 l 247 125 l 715 125 l 715 139 m 563 1056 l 343 1056 q 305 1067 317 1056 q 293 1106 293 1079 l 293 1282 q 305 1320 293 1308 q 343 1332 317 1332 l 563 1332 q 601 1320 589 1332 q 613 1282 613 1308 l 613 1106 q 601 1067 613 1079 q 563 1056 589 1056 m 460 1153 l 460 1235 l 446 1235 l 446 1153 l 460 1153 z "},"Ę":{"ha":908,"x_min":96,"x_max":840,"o":"m 840 -211 q 831 -248 840 -237 q 794 -258 821 -258 l 640 -258 q 519 -212 551 -258 q 500 -71 486 -167 l 513 0 l 146 0 q 108 12 119 0 q 96 50 96 24 l 96 950 q 108 988 96 976 q 146 1000 119 1000 l 790 1000 q 828 988 817 1000 q 840 950 840 976 l 840 788 q 828 749 840 761 q 790 738 817 738 l 407 738 l 407 631 l 678 631 q 716 619 704 631 q 728 581 728 607 l 728 432 q 716 394 728 406 q 678 382 704 382 l 407 382 l 407 263 l 790 263 q 828 251 817 263 q 840 213 840 239 l 840 50 q 828 12 840 24 q 790 0 817 0 l 743 0 l 733 -64 l 790 -64 q 830 -74 819 -64 q 840 -111 840 -85 l 840 -211 m 682 -161 l 715 -161 l 715 -147 l 682 -147 q 629 -124 639 -147 q 625 -60 619 -101 l 642 58 q 653 100 646 89 q 688 125 661 111 l 715 125 l 715 139 l 261 139 l 261 499 l 603 499 l 603 513 l 261 513 l 261 861 l 715 861 l 715 875 l 247 875 l 247 125 l 661 125 q 638 99 644 113 q 628 58 632 85 l 611 -57 q 617 -135 603 -108 q 682 -161 631 -161 z "},"Ě":{"ha":908,"x_min":96,"x_max":840,"o":"m 790 0 l 146 0 q 108 12 119 0 q 96 50 96 24 l 96 950 q 108 988 96 976 q 146 1000 119 1000 l 790 1000 q 828 988 817 1000 q 840 950 840 976 l 840 788 q 828 749 840 761 q 790 738 817 738 l 407 738 l 407 631 l 678 631 q 716 619 704 631 q 728 581 728 607 l 728 432 q 716 394 728 406 q 678 382 704 382 l 407 382 l 407 263 l 790 263 q 828 251 817 263 q 840 213 840 239 l 840 50 q 828 12 840 24 q 790 0 817 0 m 715 139 l 261 139 l 261 499 l 603 499 l 603 513 l 261 513 l 261 861 l 715 861 l 715 875 l 247 875 l 247 125 l 715 125 l 715 139 m 521 1294 l 711 1350 q 757 1353 746 1361 q 768 1307 768 1344 l 768 1194 q 756 1146 768 1157 q 711 1121 744 1135 l 533 1057 q 506 1049 521 1051 q 479 1044 492 1046 q 456 1046 467 1044 q 435 1051 444 1047 l 244 1121 q 198 1146 210 1135 q 186 1194 186 1157 l 186 1307 q 197 1353 186 1344 q 244 1350 208 1361 l 435 1294 q 478 1289 458 1289 q 521 1294 497 1289 m 311 1221 l 311 1206 l 426 1168 q 450 1163 439 1165 q 476 1160 461 1160 q 503 1163 492 1160 q 526 1168 514 1165 l 642 1206 l 642 1221 l 521 1182 q 501 1176 511 1179 q 476 1174 490 1174 q 452 1176 463 1174 q 432 1182 442 1179 l 311 1221 z "},"F":{"ha":858,"x_min":96,"x_max":815,"o":"m 361 0 l 146 0 q 108 12 119 0 q 96 50 96 24 l 96 950 q 108 988 96 976 q 146 1000 119 1000 l 765 1000 q 803 988 792 1000 q 815 950 815 976 l 815 785 q 803 747 815 758 q 765 735 792 735 l 411 735 l 411 590 l 653 590 q 691 578 679 590 q 703 540 703 567 l 703 374 q 691 335 703 347 q 653 324 679 324 l 411 324 l 411 50 q 399 12 411 24 q 361 0 388 0 m 247 125 l 261 125 l 261 450 l 578 450 l 578 464 l 261 464 l 261 861 l 690 861 l 690 875 l 247 875 l 247 125 z "},"G":{"ha":983,"x_min":81,"x_max":910,"o":"m 860 0 l 422 0 q 165 69 249 0 q 81 283 81 139 l 81 717 q 165 931 81 861 q 422 1000 249 1000 l 769 1000 q 808 988 796 1000 q 819 950 819 976 l 819 782 q 808 744 819 756 q 769 732 796 732 l 481 732 q 417 715 438 732 q 396 663 396 697 l 396 331 q 412 279 396 296 q 460 263 428 263 l 594 263 l 594 479 q 606 517 594 506 q 644 529 618 529 l 860 529 q 898 517 886 529 q 910 479 910 506 l 910 50 q 898 12 910 24 q 860 0 886 0 m 482 125 l 758 125 l 758 404 l 744 404 l 744 139 l 482 139 q 294 176 342 139 q 246 304 246 214 l 246 693 q 289 823 246 785 q 454 861 332 861 l 694 861 l 694 875 l 454 875 q 276 833 321 875 q 232 693 232 792 l 232 304 q 242 222 232 256 q 281 166 253 188 q 357 135 308 144 q 482 125 406 125 z "},"Ĝ":{"ha":983,"x_min":81,"x_max":910,"o":"m 860 0 l 422 0 q 165 69 249 0 q 81 283 81 139 l 81 717 q 165 931 81 861 q 422 1000 249 1000 l 769 1000 q 808 988 796 1000 q 819 950 819 976 l 819 782 q 808 744 819 756 q 769 732 796 732 l 481 732 q 417 715 438 732 q 396 663 396 697 l 396 331 q 412 279 396 296 q 460 263 428 263 l 594 263 l 594 479 q 606 517 594 506 q 644 529 618 529 l 860 529 q 898 517 886 529 q 910 479 910 506 l 910 50 q 898 12 910 24 q 860 0 886 0 m 482 125 l 758 125 l 758 404 l 744 404 l 744 139 l 482 139 q 294 176 342 139 q 246 304 246 214 l 246 693 q 289 823 246 785 q 454 861 332 861 l 694 861 l 694 875 l 454 875 q 276 833 321 875 q 232 693 232 792 l 232 304 q 242 222 232 256 q 281 166 253 188 q 357 135 308 144 q 482 125 406 125 m 485 1107 l 294 1051 q 249 1049 260 1040 q 238 1094 238 1057 l 238 1207 q 249 1256 238 1244 q 294 1281 261 1267 l 472 1344 q 499 1353 485 1350 q 526 1357 514 1356 q 550 1356 539 1357 q 571 1350 561 1354 l 761 1281 q 808 1256 796 1267 q 819 1207 819 1244 l 819 1094 q 808 1049 819 1057 q 761 1051 797 1040 l 571 1107 q 528 1113 547 1113 q 485 1107 508 1113 m 693 1181 l 693 1196 l 578 1233 q 554 1239 565 1236 q 528 1242 543 1242 q 501 1239 513 1242 q 478 1233 490 1236 l 363 1196 l 363 1181 l 483 1219 q 503 1225 493 1222 q 528 1228 514 1228 q 552 1225 542 1228 q 572 1219 563 1222 l 693 1181 z "},"Ğ":{"ha":983,"x_min":81,"x_max":910,"o":"m 860 0 l 422 0 q 165 69 249 0 q 81 283 81 139 l 81 717 q 165 931 81 861 q 422 1000 249 1000 l 769 1000 q 808 988 796 1000 q 819 950 819 976 l 819 782 q 808 744 819 756 q 769 732 796 732 l 481 732 q 417 715 438 732 q 396 663 396 697 l 396 331 q 412 279 396 296 q 460 263 428 263 l 594 263 l 594 479 q 606 517 594 506 q 644 529 618 529 l 860 529 q 898 517 886 529 q 910 479 910 506 l 910 50 q 898 12 910 24 q 860 0 886 0 m 482 125 l 758 125 l 758 404 l 744 404 l 744 139 l 482 139 q 294 176 342 139 q 246 304 246 214 l 246 693 q 289 823 246 785 q 454 861 332 861 l 694 861 l 694 875 l 454 875 q 276 833 321 875 q 232 693 232 792 l 232 304 q 242 222 232 256 q 281 166 253 188 q 357 135 308 144 q 482 125 406 125 m 821 1246 q 808 1165 821 1201 q 760 1102 794 1128 q 668 1062 726 1076 q 519 1047 610 1047 q 371 1062 429 1047 q 278 1102 313 1076 q 231 1165 244 1128 q 218 1246 218 1201 l 218 1307 q 230 1345 218 1333 q 268 1357 242 1357 l 401 1357 q 433 1348 424 1357 q 442 1314 442 1339 l 442 1285 q 456 1252 442 1265 q 521 1239 469 1239 q 588 1252 572 1239 q 603 1285 603 1265 l 603 1314 q 612 1348 603 1339 q 644 1357 621 1357 l 771 1357 q 809 1345 797 1357 q 821 1307 821 1333 l 821 1246 m 706 1260 l 706 1247 q 668 1180 706 1210 q 518 1150 631 1150 q 372 1180 406 1150 q 338 1247 338 1210 l 338 1260 l 324 1260 l 324 1247 q 330 1208 324 1228 q 356 1172 336 1188 q 415 1146 376 1156 q 518 1136 454 1136 q 622 1146 582 1136 q 683 1172 663 1156 q 712 1208 704 1188 q 719 1247 719 1228 l 719 1260 l 706 1260 z "},"Ġ":{"ha":983,"x_min":81,"x_max":910,"o":"m 860 0 l 422 0 q 165 69 249 0 q 81 283 81 139 l 81 717 q 165 931 81 861 q 422 1000 249 1000 l 769 1000 q 808 988 796 1000 q 819 950 819 976 l 819 782 q 808 744 819 756 q 769 732 796 732 l 481 732 q 417 715 438 732 q 396 663 396 697 l 396 331 q 412 279 396 296 q 460 263 428 263 l 594 263 l 594 479 q 606 517 594 506 q 644 529 618 529 l 860 529 q 898 517 886 529 q 910 479 910 506 l 910 50 q 898 12 910 24 q 860 0 886 0 m 482 125 l 758 125 l 758 404 l 744 404 l 744 139 l 482 139 q 294 176 342 139 q 246 304 246 214 l 246 693 q 289 823 246 785 q 454 861 332 861 l 694 861 l 694 875 l 454 875 q 276 833 321 875 q 232 693 232 792 l 232 304 q 242 222 232 256 q 281 166 253 188 q 357 135 308 144 q 482 125 406 125 m 631 1056 l 411 1056 q 373 1067 385 1056 q 361 1106 361 1079 l 361 1282 q 373 1320 361 1308 q 411 1332 385 1332 l 631 1332 q 669 1320 657 1332 q 681 1282 681 1308 l 681 1106 q 669 1067 681 1079 q 631 1056 657 1056 m 528 1153 l 528 1235 l 514 1235 l 514 1153 l 528 1153 z "},"Ģ":{"ha":983,"x_min":81,"x_max":910,"o":"m 860 0 l 422 0 q 165 69 249 0 q 81 283 81 139 l 81 717 q 165 931 81 861 q 422 1000 249 1000 l 769 1000 q 808 988 796 1000 q 819 950 819 976 l 819 782 q 808 744 819 756 q 769 732 796 732 l 481 732 q 417 715 438 732 q 396 663 396 697 l 396 331 q 412 279 396 296 q 460 263 428 263 l 594 263 l 594 479 q 606 517 594 506 q 644 529 618 529 l 860 529 q 898 517 886 529 q 910 479 910 506 l 910 50 q 898 12 910 24 q 860 0 886 0 m 482 125 l 758 125 l 758 404 l 744 404 l 744 139 l 482 139 q 294 176 342 139 q 246 304 246 214 l 246 693 q 289 823 246 785 q 454 861 332 861 l 694 861 l 694 875 l 454 875 q 276 833 321 875 q 232 693 232 792 l 232 304 q 242 222 232 256 q 281 166 253 188 q 357 135 308 144 q 482 125 406 125 m 507 -503 l 415 -503 q 383 -492 393 -503 q 374 -460 374 -482 l 374 -412 q 383 -381 374 -390 q 415 -371 393 -371 l 497 -371 q 521 -362 513 -371 q 529 -337 529 -353 l 529 -319 l 410 -319 q 369 -308 381 -319 q 358 -265 358 -296 l 358 -114 q 369 -72 358 -83 q 410 -60 381 -60 l 629 -60 q 669 -72 658 -60 q 681 -114 681 -83 l 681 -325 q 633 -458 681 -414 q 507 -503 586 -503 m 601 -183 l 438 -183 l 438 -197 l 588 -197 l 588 -318 q 562 -399 588 -374 q 486 -424 536 -424 l 438 -424 l 438 -437 l 486 -437 q 572 -410 542 -437 q 601 -318 601 -382 l 601 -183 z "},"H":{"ha":1054,"x_min":96,"x_max":958,"o":"m 246 125 l 260 125 l 260 493 l 793 493 l 793 125 l 807 125 l 807 875 l 793 875 l 793 507 l 260 507 l 260 875 l 246 875 l 246 125 m 361 0 l 146 0 q 108 12 119 0 q 96 50 96 24 l 96 950 q 108 988 96 976 q 146 1000 119 1000 l 361 1000 q 399 988 388 1000 q 411 950 411 976 l 411 649 l 643 649 l 643 950 q 655 988 643 976 q 693 1000 667 1000 l 908 1000 q 947 988 935 1000 q 958 950 958 976 l 958 50 q 947 12 958 24 q 908 0 935 0 l 693 0 q 655 12 667 0 q 643 50 643 24 l 643 358 l 411 358 l 411 50 q 399 12 411 24 q 361 0 388 0 z "},"Ĥ":{"ha":1054,"x_min":96,"x_max":958,"o":"m 246 125 l 260 125 l 260 493 l 793 493 l 793 125 l 807 125 l 807 875 l 793 875 l 793 507 l 260 507 l 260 875 l 246 875 l 246 125 m 361 0 l 146 0 q 108 12 119 0 q 96 50 96 24 l 96 950 q 108 988 96 976 q 146 1000 119 1000 l 361 1000 q 399 988 388 1000 q 411 950 411 976 l 411 649 l 643 649 l 643 950 q 655 988 643 976 q 693 1000 667 1000 l 908 1000 q 947 988 935 1000 q 958 950 958 976 l 958 50 q 947 12 958 24 q 908 0 935 0 l 693 0 q 655 12 667 0 q 643 50 643 24 l 643 358 l 411 358 l 411 50 q 399 12 411 24 q 361 0 388 0 m 482 1107 l 292 1051 q 246 1049 257 1040 q 235 1094 235 1057 l 235 1207 q 247 1256 235 1244 q 292 1281 258 1267 l 469 1344 q 497 1353 482 1350 q 524 1357 511 1356 q 547 1356 536 1357 q 568 1350 558 1354 l 758 1281 q 805 1256 793 1267 q 817 1207 817 1244 l 817 1094 q 806 1049 817 1057 q 758 1051 794 1040 l 568 1107 q 525 1113 544 1113 q 482 1107 506 1113 m 690 1181 l 690 1196 l 575 1233 q 551 1239 563 1236 q 525 1242 540 1242 q 499 1239 510 1242 q 475 1233 488 1236 l 360 1196 l 360 1181 l 481 1219 q 501 1225 490 1222 q 525 1228 511 1228 q 549 1225 539 1228 q 569 1219 560 1222 l 690 1181 z "},"I":{"ha":840,"x_min":74,"x_max":765,"o":"m 124 0 q 85 12 97 0 q 74 50 74 24 l 74 215 q 85 253 74 242 q 124 265 97 265 l 261 265 l 261 732 l 124 732 q 85 744 97 732 q 74 782 74 756 l 74 950 q 85 988 74 976 q 124 1000 97 1000 l 715 1000 q 753 988 742 1000 q 765 950 765 976 l 765 782 q 753 744 765 756 q 715 732 742 732 l 581 732 l 581 265 l 715 265 q 753 253 742 265 q 765 215 765 242 l 765 50 q 753 12 765 24 q 715 0 742 0 l 124 0 m 640 125 l 640 139 l 428 139 l 428 861 l 640 861 l 640 875 l 199 875 l 199 861 l 414 861 l 414 139 l 199 139 l 199 125 l 640 125 z "},"Ì":{"ha":840,"x_min":74,"x_max":765,"o":"m 124 0 q 85 12 97 0 q 74 50 74 24 l 74 215 q 85 253 74 242 q 124 265 97 265 l 261 265 l 261 732 l 124 732 q 85 744 97 732 q 74 782 74 756 l 74 950 q 85 988 74 976 q 124 1000 97 1000 l 715 1000 q 753 988 742 1000 q 765 950 765 976 l 765 782 q 753 744 765 756 q 715 732 742 732 l 581 732 l 581 265 l 715 265 q 753 253 742 265 q 765 215 765 242 l 765 50 q 753 12 765 24 q 715 0 742 0 l 124 0 m 640 125 l 640 139 l 428 139 l 428 861 l 640 861 l 640 875 l 199 875 l 199 861 l 414 861 l 414 139 l 199 139 l 199 125 l 640 125 m 663 1046 l 178 1106 q 140 1119 151 1108 q 128 1156 128 1129 l 128 1289 q 140 1325 128 1313 q 175 1335 151 1338 l 660 1275 q 698 1262 686 1272 q 710 1225 710 1251 l 710 1092 q 698 1056 710 1068 q 663 1046 686 1043 m 253 1204 l 585 1163 l 585 1176 l 253 1218 l 253 1204 z "},"Í":{"ha":840,"x_min":74,"x_max":765,"o":"m 124 0 q 85 12 97 0 q 74 50 74 24 l 74 215 q 85 253 74 242 q 124 265 97 265 l 261 265 l 261 732 l 124 732 q 85 744 97 732 q 74 782 74 756 l 74 950 q 85 988 74 976 q 124 1000 97 1000 l 715 1000 q 753 988 742 1000 q 765 950 765 976 l 765 782 q 753 744 765 756 q 715 732 742 732 l 581 732 l 581 265 l 715 265 q 753 253 742 265 q 765 215 765 242 l 765 50 q 753 12 765 24 q 715 0 742 0 l 124 0 m 640 125 l 640 139 l 428 139 l 428 861 l 640 861 l 640 875 l 199 875 l 199 861 l 414 861 l 414 139 l 199 139 l 199 125 l 640 125 m 660 1106 l 175 1046 q 140 1056 151 1043 q 128 1092 128 1068 l 128 1225 q 140 1262 128 1251 q 178 1275 151 1272 l 663 1335 q 698 1325 686 1338 q 710 1289 710 1313 l 710 1156 q 698 1119 710 1129 q 660 1106 686 1108 m 253 1176 l 253 1163 l 585 1204 l 585 1218 l 253 1176 z "},"Î":{"ha":840,"x_min":74,"x_max":765,"o":"m 124 0 q 85 12 97 0 q 74 50 74 24 l 74 215 q 85 253 74 242 q 124 265 97 265 l 261 265 l 261 732 l 124 732 q 85 744 97 732 q 74 782 74 756 l 74 950 q 85 988 74 976 q 124 1000 97 1000 l 715 1000 q 753 988 742 1000 q 765 950 765 976 l 765 782 q 753 744 765 756 q 715 732 742 732 l 581 732 l 581 265 l 715 265 q 753 253 742 265 q 765 215 765 242 l 765 50 q 753 12 765 24 q 715 0 742 0 l 124 0 m 640 125 l 640 139 l 428 139 l 428 861 l 640 861 l 640 875 l 199 875 l 199 861 l 414 861 l 414 139 l 199 139 l 199 125 l 640 125 m 375 1107 l 185 1051 q 139 1049 150 1040 q 128 1094 128 1057 l 128 1207 q 140 1256 128 1244 q 185 1281 151 1267 l 363 1344 q 390 1353 375 1350 q 417 1357 404 1356 q 440 1356 429 1357 q 461 1350 451 1354 l 651 1281 q 698 1256 686 1267 q 710 1207 710 1244 l 710 1094 q 699 1049 710 1057 q 651 1051 688 1040 l 461 1107 q 418 1113 438 1113 q 375 1107 399 1113 m 583 1181 l 583 1196 l 468 1233 q 444 1239 456 1236 q 418 1242 433 1242 q 392 1239 403 1242 q 368 1233 381 1236 l 253 1196 l 253 1181 l 374 1219 q 394 1225 383 1222 q 418 1228 404 1228 q 442 1225 432 1228 q 463 1219 453 1222 l 583 1181 z "},"Ï":{"ha":840,"x_min":74,"x_max":765,"o":"m 124 0 q 85 12 97 0 q 74 50 74 24 l 74 215 q 85 253 74 242 q 124 265 97 265 l 261 265 l 261 732 l 124 732 q 85 744 97 732 q 74 782 74 756 l 74 950 q 85 988 74 976 q 124 1000 97 1000 l 715 1000 q 753 988 742 1000 q 765 950 765 976 l 765 782 q 753 744 765 756 q 715 732 742 732 l 581 732 l 581 265 l 715 265 q 753 253 742 265 q 765 215 765 242 l 765 50 q 753 12 765 24 q 715 0 742 0 l 124 0 m 640 125 l 640 139 l 428 139 l 428 861 l 640 861 l 640 875 l 199 875 l 199 861 l 414 861 l 414 139 l 199 139 l 199 125 l 640 125 m 333 1056 l 142 1056 q 106 1067 118 1056 q 94 1101 94 1078 l 94 1269 q 106 1304 94 1293 q 142 1315 118 1315 l 333 1315 q 368 1304 357 1315 q 379 1269 379 1293 l 379 1101 q 368 1067 379 1078 q 333 1056 357 1056 m 692 1056 l 500 1056 q 465 1067 476 1056 q 454 1101 454 1078 l 454 1269 q 465 1304 454 1293 q 500 1315 476 1315 l 692 1315 q 726 1304 715 1315 q 738 1269 738 1293 l 738 1101 q 726 1067 738 1078 q 692 1056 715 1056 m 244 1153 l 244 1218 l 231 1218 l 231 1153 l 244 1153 m 603 1153 l 603 1218 l 589 1218 l 589 1153 l 603 1153 z "},"Ĩ":{"ha":840,"x_min":74,"x_max":765,"o":"m 124 0 q 85 12 97 0 q 74 50 74 24 l 74 215 q 85 253 74 242 q 124 265 97 265 l 261 265 l 261 732 l 124 732 q 85 744 97 732 q 74 782 74 756 l 74 950 q 85 988 74 976 q 124 1000 97 1000 l 715 1000 q 753 988 742 1000 q 765 950 765 976 l 765 782 q 753 744 765 756 q 715 732 742 732 l 581 732 l 581 265 l 715 265 q 753 253 742 265 q 765 215 765 242 l 765 50 q 753 12 765 24 q 715 0 742 0 l 124 0 m 640 125 l 640 139 l 428 139 l 428 861 l 640 861 l 640 875 l 199 875 l 199 861 l 414 861 l 414 139 l 199 139 l 199 125 l 640 125 m 418 1061 l 379 1067 q 314 1074 340 1072 q 267 1074 288 1076 q 226 1067 246 1072 q 178 1054 206 1063 q 140 1056 153 1047 q 128 1090 128 1064 l 128 1231 q 141 1267 128 1257 q 178 1288 154 1278 q 233 1302 211 1297 q 277 1307 256 1307 q 326 1303 299 1307 q 394 1294 353 1300 l 418 1292 l 449 1288 q 522 1278 494 1281 q 569 1276 549 1275 q 608 1283 589 1278 q 658 1299 628 1289 q 696 1297 683 1306 q 708 1263 708 1289 l 708 1122 q 695 1085 708 1096 q 658 1065 682 1075 q 603 1051 625 1056 q 558 1046 581 1046 q 509 1049 536 1046 q 440 1058 482 1053 l 418 1061 m 583 1168 q 525 1168 556 1165 q 442 1179 494 1171 l 419 1182 l 381 1188 q 305 1195 333 1193 q 253 1194 276 1197 l 253 1179 q 303 1182 275 1183 q 378 1174 332 1181 l 417 1168 l 439 1165 q 524 1154 492 1157 q 583 1154 556 1151 l 583 1168 z "},"Ī":{"ha":840,"x_min":74,"x_max":765,"o":"m 124 0 q 85 12 97 0 q 74 50 74 24 l 74 215 q 85 253 74 242 q 124 265 97 265 l 261 265 l 261 732 l 124 732 q 85 744 97 732 q 74 782 74 756 l 74 950 q 85 988 74 976 q 124 1000 97 1000 l 715 1000 q 753 988 742 1000 q 765 950 765 976 l 765 782 q 753 744 765 756 q 715 732 742 732 l 581 732 l 581 265 l 715 265 q 753 253 742 265 q 765 215 765 242 l 765 50 q 753 12 765 24 q 715 0 742 0 l 124 0 m 640 125 l 640 139 l 428 139 l 428 861 l 640 861 l 640 875 l 199 875 l 199 861 l 414 861 l 414 139 l 199 139 l 199 125 l 640 125 m 660 1056 l 178 1056 q 140 1067 151 1056 q 128 1106 128 1079 l 128 1235 q 140 1273 128 1261 q 178 1285 151 1285 l 660 1285 q 698 1273 686 1285 q 710 1235 710 1261 l 710 1106 q 698 1067 710 1079 q 660 1056 686 1056 m 253 1176 l 253 1163 l 585 1163 l 585 1176 l 253 1176 z "},"Ĭ":{"ha":840,"x_min":74,"x_max":765,"o":"m 124 0 q 85 12 97 0 q 74 50 74 24 l 74 215 q 85 253 74 242 q 124 265 97 265 l 261 265 l 261 732 l 124 732 q 85 744 97 732 q 74 782 74 756 l 74 950 q 85 988 74 976 q 124 1000 97 1000 l 715 1000 q 753 988 742 1000 q 765 950 765 976 l 765 782 q 753 744 765 756 q 715 732 742 732 l 581 732 l 581 265 l 715 265 q 753 253 742 265 q 765 215 765 242 l 765 50 q 753 12 765 24 q 715 0 742 0 l 124 0 m 640 125 l 640 139 l 428 139 l 428 861 l 640 861 l 640 875 l 199 875 l 199 861 l 414 861 l 414 139 l 199 139 l 199 125 l 640 125 m 721 1246 q 708 1165 721 1201 q 660 1102 694 1128 q 568 1062 626 1076 q 419 1047 510 1047 q 271 1062 329 1047 q 178 1102 213 1076 q 131 1165 144 1128 q 118 1246 118 1201 l 118 1307 q 130 1345 118 1333 q 168 1357 142 1357 l 301 1357 q 333 1348 324 1357 q 342 1314 342 1339 l 342 1285 q 356 1252 342 1265 q 421 1239 369 1239 q 488 1252 472 1239 q 503 1285 503 1265 l 503 1314 q 512 1348 503 1339 q 544 1357 521 1357 l 671 1357 q 709 1345 697 1357 q 721 1307 721 1333 l 721 1246 m 606 1260 l 606 1247 q 568 1180 606 1210 q 418 1150 531 1150 q 272 1180 306 1150 q 238 1247 238 1210 l 238 1260 l 224 1260 l 224 1247 q 230 1208 224 1228 q 256 1172 236 1188 q 315 1146 276 1156 q 418 1136 354 1136 q 522 1146 482 1136 q 583 1172 563 1156 q 612 1208 604 1188 q 619 1247 619 1228 l 619 1260 l 606 1260 z "},"Į":{"ha":840,"x_min":74,"x_max":765,"o":"m 765 -211 q 756 -248 765 -237 q 719 -258 746 -258 l 565 -258 q 444 -212 476 -258 q 425 -71 411 -167 l 438 0 l 124 0 q 85 12 97 0 q 74 50 74 24 l 74 215 q 85 253 74 242 q 124 265 97 265 l 261 265 l 261 732 l 124 732 q 85 744 97 732 q 74 782 74 756 l 74 950 q 85 988 74 976 q 124 1000 97 1000 l 715 1000 q 753 988 742 1000 q 765 950 765 976 l 765 782 q 753 744 765 756 q 715 732 742 732 l 581 732 l 581 265 l 715 265 q 753 253 742 265 q 765 215 765 242 l 765 50 q 753 12 765 24 q 715 0 742 0 l 668 0 l 658 -64 l 715 -64 q 755 -74 744 -64 q 765 -111 765 -85 l 765 -211 m 607 -161 l 640 -161 l 640 -147 l 607 -147 q 554 -124 564 -147 q 550 -60 544 -101 l 567 58 q 578 100 571 89 q 613 125 586 111 l 640 125 l 640 139 l 428 139 l 428 861 l 640 861 l 640 875 l 199 875 l 199 861 l 414 861 l 414 139 l 199 139 l 199 125 l 586 125 q 563 99 569 113 q 553 58 557 85 l 536 -57 q 542 -135 528 -108 q 607 -161 556 -161 z "},"İ":{"ha":840,"x_min":74,"x_max":765,"o":"m 124 0 q 85 12 97 0 q 74 50 74 24 l 74 215 q 85 253 74 242 q 124 265 97 265 l 261 265 l 261 732 l 124 732 q 85 744 97 732 q 74 782 74 756 l 74 950 q 85 988 74 976 q 124 1000 97 1000 l 715 1000 q 753 988 742 1000 q 765 950 765 976 l 765 782 q 753 744 765 756 q 715 732 742 732 l 581 732 l 581 265 l 715 265 q 753 253 742 265 q 765 215 765 242 l 765 50 q 753 12 765 24 q 715 0 742 0 l 124 0 m 640 125 l 640 139 l 428 139 l 428 861 l 640 861 l 640 875 l 199 875 l 199 861 l 414 861 l 414 139 l 199 139 l 199 125 l 640 125 m 531 1056 l 311 1056 q 273 1067 285 1056 q 261 1106 261 1079 l 261 1282 q 273 1320 261 1308 q 311 1332 285 1332 l 531 1332 q 569 1320 557 1332 q 581 1282 581 1308 l 581 1106 q 569 1067 581 1079 q 531 1056 557 1056 m 428 1153 l 428 1235 l 414 1235 l 414 1153 l 428 1153 z "},"J":{"ha":956,"x_min":57,"x_max":867,"o":"m 867 263 q 849 147 867 199 q 785 58 831 94 q 661 0 740 21 q 460 -21 582 -21 q 260 0 339 -21 q 137 58 182 21 q 74 147 92 94 q 57 263 57 199 l 57 488 q 69 526 57 514 q 107 538 81 538 l 308 538 q 347 526 335 538 q 358 488 358 514 l 358 318 q 376 272 358 290 q 457 253 393 253 q 533 272 517 253 q 549 318 549 290 l 549 950 q 560 988 549 976 q 599 1000 572 1000 l 817 1000 q 855 988 843 1000 q 867 950 867 976 l 867 263 m 700 875 l 700 296 q 650 170 700 218 q 463 122 600 122 q 267 169 319 122 q 215 296 215 217 l 215 406 l 201 406 l 201 296 q 213 219 201 254 q 254 160 225 185 q 334 122 283 136 q 463 108 385 108 q 662 161 610 108 q 714 296 714 214 l 714 875 l 700 875 z "},"Ĵ":{"ha":956,"x_min":57,"x_max":988,"o":"m 867 263 q 849 147 867 199 q 785 58 831 94 q 661 0 740 21 q 460 -21 582 -21 q 260 0 339 -21 q 137 58 182 21 q 74 147 92 94 q 57 263 57 199 l 57 488 q 69 526 57 514 q 107 538 81 538 l 308 538 q 347 526 335 538 q 358 488 358 514 l 358 318 q 376 272 358 290 q 457 253 393 253 q 533 272 517 253 q 549 318 549 290 l 549 950 q 560 988 549 976 q 599 1000 572 1000 l 817 1000 q 855 988 843 1000 q 867 950 867 976 l 867 263 m 700 875 l 700 296 q 650 170 700 218 q 463 122 600 122 q 267 169 319 122 q 215 296 215 217 l 215 406 l 201 406 l 201 296 q 213 219 201 254 q 254 160 225 185 q 334 122 283 136 q 463 108 385 108 q 662 161 610 108 q 714 296 714 214 l 714 875 l 700 875 m 653 1107 l 463 1051 q 417 1049 428 1040 q 406 1094 406 1057 l 406 1207 q 417 1256 406 1244 q 463 1281 429 1267 l 640 1344 q 667 1353 653 1350 q 694 1357 682 1356 q 718 1356 707 1357 q 739 1350 729 1354 l 929 1281 q 976 1256 964 1267 q 988 1207 988 1244 l 988 1094 q 976 1049 988 1057 q 929 1051 965 1040 l 739 1107 q 696 1113 715 1113 q 653 1107 676 1113 m 861 1181 l 861 1196 l 746 1233 q 722 1239 733 1236 q 696 1242 711 1242 q 669 1239 681 1242 q 646 1233 658 1236 l 531 1196 l 531 1181 l 651 1219 q 672 1225 661 1222 q 696 1228 682 1228 q 720 1225 710 1228 q 740 1219 731 1222 l 861 1181 z "},"K":{"ha":1036,"x_min":96,"x_max":953,"o":"m 261 125 l 261 492 l 635 492 q 750 464 711 492 q 789 369 789 436 l 789 125 l 803 125 l 803 369 q 761 474 803 442 q 635 506 719 506 l 578 506 l 738 875 l 722 875 l 563 506 l 261 506 l 261 875 l 247 875 l 247 125 l 261 125 m 361 0 l 146 0 q 108 12 119 0 q 96 50 96 24 l 96 950 q 108 988 96 976 q 146 1000 119 1000 l 361 1000 q 399 988 388 1000 q 411 950 411 976 l 411 631 l 467 631 l 610 954 q 636 990 619 979 q 679 1000 653 1000 l 893 1000 q 925 988 917 1000 q 924 954 933 976 l 782 631 q 906 576 860 626 q 953 442 953 525 l 953 50 q 941 12 953 24 q 903 0 929 0 l 689 0 q 651 12 663 0 q 639 50 639 24 l 639 321 q 628 356 639 343 q 594 368 617 368 l 411 368 l 411 50 q 399 12 411 24 q 361 0 388 0 z "},"Ķ":{"ha":1036,"x_min":96,"x_max":953,"o":"m 261 125 l 261 492 l 635 492 q 750 464 711 492 q 789 369 789 436 l 789 125 l 803 125 l 803 369 q 761 474 803 442 q 635 506 719 506 l 578 506 l 738 875 l 722 875 l 563 506 l 261 506 l 261 875 l 247 875 l 247 125 l 261 125 m 361 0 l 146 0 q 108 12 119 0 q 96 50 96 24 l 96 950 q 108 988 96 976 q 146 1000 119 1000 l 361 1000 q 399 988 388 1000 q 411 950 411 976 l 411 631 l 467 631 l 610 954 q 636 990 619 979 q 679 1000 653 1000 l 893 1000 q 925 988 917 1000 q 924 954 933 976 l 782 631 q 906 576 860 626 q 953 442 953 525 l 953 50 q 941 12 953 24 q 903 0 929 0 l 689 0 q 651 12 663 0 q 639 50 639 24 l 639 321 q 628 356 639 343 q 594 368 617 368 l 411 368 l 411 50 q 399 12 411 24 q 361 0 388 0 m 506 -503 l 414 -503 q 382 -492 392 -503 q 372 -460 372 -482 l 372 -412 q 382 -381 372 -390 q 414 -371 392 -371 l 496 -371 q 519 -362 511 -371 q 528 -337 528 -353 l 528 -319 l 408 -319 q 368 -308 379 -319 q 357 -265 357 -296 l 357 -114 q 368 -72 357 -83 q 408 -60 379 -60 l 628 -60 q 668 -72 657 -60 q 679 -114 679 -83 l 679 -325 q 632 -458 679 -414 q 506 -503 585 -503 m 600 -183 l 436 -183 l 436 -197 l 586 -197 l 586 -318 q 560 -399 586 -374 q 485 -424 535 -424 l 436 -424 l 436 -437 l 485 -437 q 570 -410 540 -437 q 600 -318 600 -382 l 600 -183 z "},"L":{"ha":965,"x_min":96,"x_max":903,"o":"m 853 0 l 146 0 q 108 12 119 0 q 96 50 96 24 l 96 950 q 108 988 96 976 q 146 1000 119 1000 l 361 1000 q 399 988 388 1000 q 411 950 411 976 l 411 263 l 601 263 l 601 488 q 613 526 601 514 q 651 538 625 538 l 853 538 q 891 526 879 538 q 903 488 903 514 l 903 50 q 891 12 903 24 q 853 0 879 0 m 247 125 l 758 125 l 758 413 l 744 413 l 744 139 l 261 139 l 261 875 l 247 875 l 247 125 z "},"Ĺ":{"ha":965,"x_min":96,"x_max":903,"o":"m 853 0 l 146 0 q 108 12 119 0 q 96 50 96 24 l 96 950 q 108 988 96 976 q 146 1000 119 1000 l 361 1000 q 399 988 388 1000 q 411 950 411 976 l 411 263 l 601 263 l 601 488 q 613 526 601 514 q 651 538 625 538 l 853 538 q 891 526 879 538 q 903 488 903 514 l 903 50 q 891 12 903 24 q 853 0 879 0 m 247 125 l 758 125 l 758 413 l 744 413 l 744 139 l 261 139 l 261 875 l 247 875 l 247 125 m 628 1106 l 143 1046 q 108 1056 119 1043 q 96 1092 96 1068 l 96 1225 q 108 1262 96 1251 q 146 1275 119 1272 l 631 1335 q 666 1325 654 1338 q 678 1289 678 1313 l 678 1156 q 666 1119 678 1129 q 628 1106 654 1108 m 221 1176 l 221 1163 l 553 1204 l 553 1218 l 221 1176 z "},"Ļ":{"ha":965,"x_min":96,"x_max":903,"o":"m 853 0 l 146 0 q 108 12 119 0 q 96 50 96 24 l 96 950 q 108 988 96 976 q 146 1000 119 1000 l 361 1000 q 399 988 388 1000 q 411 950 411 976 l 411 263 l 601 263 l 601 488 q 613 526 601 514 q 651 538 625 538 l 853 538 q 891 526 879 538 q 903 488 903 514 l 903 50 q 891 12 903 24 q 853 0 879 0 m 247 125 l 758 125 l 758 413 l 744 413 l 744 139 l 261 139 l 261 875 l 247 875 l 247 125 m 493 -503 l 401 -503 q 369 -492 379 -503 q 360 -460 360 -482 l 360 -412 q 369 -381 360 -390 q 401 -371 379 -371 l 483 -371 q 507 -362 499 -371 q 515 -337 515 -353 l 515 -319 l 396 -319 q 356 -308 367 -319 q 344 -265 344 -296 l 344 -114 q 356 -72 344 -83 q 396 -60 367 -60 l 615 -60 q 656 -72 644 -60 q 667 -114 667 -83 l 667 -325 q 619 -458 667 -414 q 493 -503 572 -503 m 588 -183 l 424 -183 l 424 -197 l 574 -197 l 574 -318 q 548 -399 574 -374 q 472 -424 522 -424 l 424 -424 l 424 -437 l 472 -437 q 558 -410 528 -437 q 588 -318 588 -382 l 588 -183 z "},"Ľ":{"ha":965,"x_min":96,"x_max":903,"o":"m 853 0 l 146 0 q 108 12 119 0 q 96 50 96 24 l 96 950 q 108 988 96 976 q 146 1000 119 1000 l 361 1000 q 399 988 388 1000 q 411 950 411 976 l 411 263 l 601 263 l 601 488 q 613 526 601 514 q 651 538 625 538 l 853 538 q 891 526 879 538 q 903 488 903 514 l 903 50 q 891 12 903 24 q 853 0 879 0 m 247 125 l 758 125 l 758 413 l 744 413 l 744 139 l 261 139 l 261 875 l 247 875 l 247 125 m 778 628 l 606 628 q 565 640 579 628 q 556 678 551 651 l 601 950 q 615 988 606 976 q 651 1000 625 1000 l 843 1000 q 884 988 869 1000 q 893 950 899 975 l 828 678 q 813 640 822 653 q 778 628 804 628 m 714 746 l 739 875 l 724 875 l 699 746 l 714 746 z "},"M":{"ha":1179,"x_min":96,"x_max":1083,"o":"m 585 535 q 549 546 560 535 q 514 593 538 557 l 344 851 q 325 870 336 865 q 303 875 314 875 l 279 875 q 252 865 261 875 q 243 832 243 854 l 243 125 l 257 125 l 257 832 q 261 852 257 843 q 279 861 265 861 l 300 861 q 317 858 310 861 q 333 842 325 856 l 503 586 q 541 535 528 549 q 585 521 554 521 q 628 535 615 521 q 667 586 642 549 l 836 842 q 851 858 844 856 q 868 861 858 861 l 889 861 q 908 852 903 861 q 913 832 913 843 l 913 125 l 926 125 l 926 832 q 917 865 926 854 q 889 875 908 875 l 865 875 q 844 870 854 875 q 825 851 833 865 l 656 593 q 621 546 632 557 q 585 535 610 535 m 353 0 l 146 0 q 108 12 119 0 q 96 50 96 24 l 96 950 q 108 988 96 976 q 146 1000 119 1000 l 369 1000 q 406 990 392 1000 q 433 958 421 981 l 558 732 q 570 714 565 719 q 583 708 575 708 l 596 708 q 609 714 604 708 q 621 732 614 719 l 744 958 q 772 990 757 981 q 808 1000 786 1000 l 1033 1000 q 1072 988 1060 1000 q 1083 950 1083 976 l 1083 50 q 1072 12 1083 24 q 1033 0 1060 0 l 819 0 q 781 12 793 0 q 769 50 769 24 l 769 539 l 688 388 q 658 353 675 364 q 614 343 640 343 l 558 343 q 515 353 532 343 q 485 388 497 364 l 403 539 l 403 50 q 391 12 403 24 q 353 0 379 0 z "},"N":{"ha":1046,"x_min":96,"x_max":950,"o":"m 279 864 q 268 874 272 871 q 258 876 264 876 q 247 872 253 876 q 242 860 242 868 l 242 125 l 256 125 l 256 857 q 256 860 256 858 q 258 861 257 861 q 262 860 260 861 q 265 857 264 858 l 790 268 l 790 125 l 804 125 l 804 875 l 790 875 l 790 289 l 279 864 m 354 0 l 146 0 q 108 12 119 0 q 96 50 96 24 l 96 950 q 108 988 96 976 q 146 1000 119 1000 l 290 1000 q 335 992 317 1000 q 372 963 354 983 l 642 654 l 642 950 q 653 988 642 976 q 692 1000 665 1000 l 900 1000 q 938 988 926 1000 q 950 950 950 976 l 950 50 q 938 12 950 24 q 900 0 926 0 l 692 0 q 653 12 665 0 q 642 50 642 24 l 642 221 l 404 508 l 404 50 q 392 12 404 24 q 354 0 381 0 z "},"Ñ":{"ha":1046,"x_min":96,"x_max":950,"o":"m 279 864 q 268 874 272 871 q 258 876 264 876 q 247 872 253 876 q 242 860 242 868 l 242 125 l 256 125 l 256 857 q 256 860 256 858 q 258 861 257 861 q 262 860 260 861 q 265 857 264 858 l 790 268 l 790 125 l 804 125 l 804 875 l 790 875 l 790 289 l 279 864 m 354 0 l 146 0 q 108 12 119 0 q 96 50 96 24 l 96 950 q 108 988 96 976 q 146 1000 119 1000 l 290 1000 q 335 992 317 1000 q 372 963 354 983 l 642 654 l 642 950 q 653 988 642 976 q 692 1000 665 1000 l 900 1000 q 938 988 926 1000 q 950 950 950 976 l 950 50 q 938 12 950 24 q 900 0 926 0 l 692 0 q 653 12 665 0 q 642 50 642 24 l 642 221 l 404 508 l 404 50 q 392 12 404 24 q 354 0 381 0 m 521 1061 l 482 1067 q 417 1074 443 1072 q 369 1074 390 1076 q 328 1067 349 1072 q 281 1054 308 1063 q 243 1056 256 1047 q 231 1090 231 1064 l 231 1231 q 244 1267 231 1257 q 281 1288 257 1278 q 336 1302 314 1297 q 380 1307 358 1307 q 428 1303 401 1307 q 497 1294 456 1300 l 521 1292 l 551 1288 q 624 1278 597 1281 q 672 1276 651 1275 q 711 1283 692 1278 q 761 1299 731 1289 q 799 1297 786 1306 q 811 1263 811 1289 l 811 1122 q 798 1085 811 1096 q 761 1065 785 1075 q 706 1051 728 1056 q 661 1046 683 1046 q 612 1049 639 1046 q 543 1058 585 1053 l 521 1061 m 686 1168 q 628 1168 658 1165 q 544 1179 597 1171 l 522 1182 l 483 1188 q 408 1195 436 1193 q 356 1194 379 1197 l 356 1179 q 406 1182 378 1183 q 481 1174 435 1181 l 519 1168 l 542 1165 q 626 1154 594 1157 q 686 1154 658 1151 l 686 1168 z "},"Ń":{"ha":1046,"x_min":96,"x_max":950,"o":"m 279 864 q 268 874 272 871 q 258 876 264 876 q 247 872 253 876 q 242 860 242 868 l 242 125 l 256 125 l 256 857 q 256 860 256 858 q 258 861 257 861 q 262 860 260 861 q 265 857 264 858 l 790 268 l 790 125 l 804 125 l 804 875 l 790 875 l 790 289 l 279 864 m 354 0 l 146 0 q 108 12 119 0 q 96 50 96 24 l 96 950 q 108 988 96 976 q 146 1000 119 1000 l 290 1000 q 335 992 317 1000 q 372 963 354 983 l 642 654 l 642 950 q 653 988 642 976 q 692 1000 665 1000 l 900 1000 q 938 988 926 1000 q 950 950 950 976 l 950 50 q 938 12 950 24 q 900 0 926 0 l 692 0 q 653 12 665 0 q 642 50 642 24 l 642 221 l 404 508 l 404 50 q 392 12 404 24 q 354 0 381 0 m 776 1106 l 292 1046 q 256 1056 268 1043 q 244 1092 244 1068 l 244 1225 q 256 1262 244 1251 q 294 1275 268 1272 l 779 1335 q 815 1325 803 1338 q 826 1289 826 1313 l 826 1156 q 815 1119 826 1129 q 776 1106 803 1108 m 369 1176 l 369 1163 l 701 1204 l 701 1218 l 369 1176 z "},"Ņ":{"ha":1046,"x_min":96,"x_max":950,"o":"m 279 864 q 268 874 272 871 q 258 876 264 876 q 247 872 253 876 q 242 860 242 868 l 242 125 l 256 125 l 256 857 q 256 860 256 858 q 258 861 257 861 q 262 860 260 861 q 265 857 264 858 l 790 268 l 790 125 l 804 125 l 804 875 l 790 875 l 790 289 l 279 864 m 354 0 l 146 0 q 108 12 119 0 q 96 50 96 24 l 96 950 q 108 988 96 976 q 146 1000 119 1000 l 290 1000 q 335 992 317 1000 q 372 963 354 983 l 642 654 l 642 950 q 653 988 642 976 q 692 1000 665 1000 l 900 1000 q 938 988 926 1000 q 950 950 950 976 l 950 50 q 938 12 950 24 q 900 0 926 0 l 692 0 q 653 12 665 0 q 642 50 642 24 l 642 221 l 404 508 l 404 50 q 392 12 404 24 q 354 0 381 0 m 510 -503 l 418 -503 q 386 -492 396 -503 q 376 -460 376 -482 l 376 -412 q 386 -381 376 -390 q 418 -371 396 -371 l 500 -371 q 524 -362 515 -371 q 532 -337 532 -353 l 532 -319 l 413 -319 q 372 -308 383 -319 q 361 -265 361 -296 l 361 -114 q 372 -72 361 -83 q 413 -60 383 -60 l 632 -60 q 672 -72 661 -60 q 683 -114 683 -83 l 683 -325 q 636 -458 683 -414 q 510 -503 589 -503 m 604 -183 l 440 -183 l 440 -197 l 590 -197 l 590 -318 q 565 -399 590 -374 q 489 -424 539 -424 l 440 -424 l 440 -437 l 489 -437 q 574 -410 544 -437 q 604 -318 604 -382 l 604 -183 z "},"Ň":{"ha":1046,"x_min":96,"x_max":950,"o":"m 279 864 q 268 874 272 871 q 258 876 264 876 q 247 872 253 876 q 242 860 242 868 l 242 125 l 256 125 l 256 857 q 256 860 256 858 q 258 861 257 861 q 262 860 260 861 q 265 857 264 858 l 790 268 l 790 125 l 804 125 l 804 875 l 790 875 l 790 289 l 279 864 m 354 0 l 146 0 q 108 12 119 0 q 96 50 96 24 l 96 950 q 108 988 96 976 q 146 1000 119 1000 l 290 1000 q 335 992 317 1000 q 372 963 354 983 l 642 654 l 642 950 q 653 988 642 976 q 692 1000 665 1000 l 900 1000 q 938 988 926 1000 q 950 950 950 976 l 950 50 q 938 12 950 24 q 900 0 926 0 l 692 0 q 653 12 665 0 q 642 50 642 24 l 642 221 l 404 508 l 404 50 q 392 12 404 24 q 354 0 381 0 m 551 1294 l 742 1350 q 788 1353 776 1361 q 799 1307 799 1344 l 799 1194 q 787 1146 799 1157 q 742 1121 775 1135 l 564 1057 q 537 1049 551 1051 q 510 1044 522 1046 q 486 1046 497 1044 q 465 1051 475 1047 l 275 1121 q 228 1146 240 1135 q 217 1194 217 1157 l 217 1307 q 228 1353 217 1344 q 275 1350 239 1361 l 465 1294 q 508 1289 489 1289 q 551 1294 528 1289 m 342 1221 l 342 1206 l 457 1168 q 481 1163 469 1165 q 507 1160 492 1160 q 533 1163 522 1160 q 557 1168 544 1165 l 672 1206 l 672 1221 l 551 1182 q 531 1176 542 1179 q 507 1174 521 1174 q 483 1176 493 1174 q 463 1182 472 1179 l 342 1221 z "},"O":{"ha":1024,"x_min":81,"x_max":943,"o":"m 943 263 q 924 147 943 199 q 858 58 906 94 q 726 0 810 21 q 513 -21 642 -21 q 299 0 383 -21 q 166 58 214 21 q 99 147 118 94 q 81 263 81 199 l 81 736 q 99 852 81 800 q 166 942 118 904 q 299 1000 214 979 q 513 1021 383 1021 q 726 1000 642 1021 q 858 942 810 979 q 924 852 906 904 q 943 736 943 800 l 943 263 m 792 294 l 792 704 q 732 840 792 788 q 510 892 672 892 q 289 840 347 892 q 231 704 231 788 l 231 294 q 289 159 231 211 q 510 107 347 107 q 732 159 672 107 q 792 294 792 211 m 244 294 l 244 704 q 300 830 244 782 q 510 878 356 878 q 721 830 664 878 q 778 704 778 782 l 778 294 q 721 169 778 217 q 510 121 664 121 q 300 169 356 121 q 244 294 244 217 m 396 313 q 417 266 396 285 q 513 247 438 247 q 608 266 588 247 q 629 313 629 285 l 629 686 q 608 731 629 713 q 513 750 588 750 q 417 731 438 750 q 396 686 396 713 l 396 313 z "},"Ò":{"ha":1024,"x_min":81,"x_max":943,"o":"m 943 263 q 924 147 943 199 q 858 58 906 94 q 726 0 810 21 q 513 -21 642 -21 q 299 0 383 -21 q 166 58 214 21 q 99 147 118 94 q 81 263 81 199 l 81 736 q 99 852 81 800 q 166 942 118 904 q 299 1000 214 979 q 513 1021 383 1021 q 726 1000 642 1021 q 858 942 810 979 q 924 852 906 904 q 943 736 943 800 l 943 263 m 792 294 l 792 704 q 732 840 792 788 q 510 892 672 892 q 289 840 347 892 q 231 704 231 788 l 231 294 q 289 159 231 211 q 510 107 347 107 q 732 159 672 107 q 792 294 792 211 m 244 294 l 244 704 q 300 830 244 782 q 510 878 356 878 q 721 830 664 878 q 778 704 778 782 l 778 294 q 721 169 778 217 q 510 121 664 121 q 300 169 356 121 q 244 294 244 217 m 396 313 q 417 266 396 285 q 513 247 438 247 q 608 266 588 247 q 629 313 629 285 l 629 686 q 608 731 629 713 q 513 750 588 750 q 417 731 438 750 q 396 686 396 713 l 396 313 m 754 1046 l 269 1106 q 231 1119 243 1108 q 219 1156 219 1129 l 219 1289 q 231 1325 219 1313 q 267 1335 243 1338 l 751 1275 q 790 1262 778 1272 q 801 1225 801 1251 l 801 1092 q 790 1056 801 1068 q 754 1046 778 1043 m 344 1204 l 676 1163 l 676 1176 l 344 1218 l 344 1204 z "},"Ó":{"ha":1024,"x_min":81,"x_max":943,"o":"m 943 263 q 924 147 943 199 q 858 58 906 94 q 726 0 810 21 q 513 -21 642 -21 q 299 0 383 -21 q 166 58 214 21 q 99 147 118 94 q 81 263 81 199 l 81 736 q 99 852 81 800 q 166 942 118 904 q 299 1000 214 979 q 513 1021 383 1021 q 726 1000 642 1021 q 858 942 810 979 q 924 852 906 904 q 943 736 943 800 l 943 263 m 792 294 l 792 704 q 732 840 792 788 q 510 892 672 892 q 289 840 347 892 q 231 704 231 788 l 231 294 q 289 159 231 211 q 510 107 347 107 q 732 159 672 107 q 792 294 792 211 m 244 294 l 244 704 q 300 830 244 782 q 510 878 356 878 q 721 830 664 878 q 778 704 778 782 l 778 294 q 721 169 778 217 q 510 121 664 121 q 300 169 356 121 q 244 294 244 217 m 396 313 q 417 266 396 285 q 513 247 438 247 q 608 266 588 247 q 629 313 629 285 l 629 686 q 608 731 629 713 q 513 750 588 750 q 417 731 438 750 q 396 686 396 713 l 396 313 m 751 1106 l 267 1046 q 231 1056 243 1043 q 219 1092 219 1068 l 219 1225 q 231 1262 219 1251 q 269 1275 243 1272 l 754 1335 q 790 1325 778 1338 q 801 1289 801 1313 l 801 1156 q 790 1119 801 1129 q 751 1106 778 1108 m 344 1176 l 344 1163 l 676 1204 l 676 1218 l 344 1176 z "},"Ô":{"ha":1024,"x_min":81,"x_max":943,"o":"m 943 263 q 924 147 943 199 q 858 58 906 94 q 726 0 810 21 q 513 -21 642 -21 q 299 0 383 -21 q 166 58 214 21 q 99 147 118 94 q 81 263 81 199 l 81 736 q 99 852 81 800 q 166 942 118 904 q 299 1000 214 979 q 513 1021 383 1021 q 726 1000 642 1021 q 858 942 810 979 q 924 852 906 904 q 943 736 943 800 l 943 263 m 792 294 l 792 704 q 732 840 792 788 q 510 892 672 892 q 289 840 347 892 q 231 704 231 788 l 231 294 q 289 159 231 211 q 510 107 347 107 q 732 159 672 107 q 792 294 792 211 m 244 294 l 244 704 q 300 830 244 782 q 510 878 356 878 q 721 830 664 878 q 778 704 778 782 l 778 294 q 721 169 778 217 q 510 121 664 121 q 300 169 356 121 q 244 294 244 217 m 396 313 q 417 266 396 285 q 513 247 438 247 q 608 266 588 247 q 629 313 629 285 l 629 686 q 608 731 629 713 q 513 750 588 750 q 417 731 438 750 q 396 686 396 713 l 396 313 m 467 1107 l 276 1051 q 231 1049 242 1040 q 219 1094 219 1057 l 219 1207 q 231 1256 219 1244 q 276 1281 243 1267 l 454 1344 q 481 1353 467 1350 q 508 1357 496 1356 q 532 1356 521 1357 q 553 1350 543 1354 l 743 1281 q 790 1256 778 1267 q 801 1207 801 1244 l 801 1094 q 790 1049 801 1057 q 743 1051 779 1040 l 553 1107 q 510 1113 529 1113 q 467 1107 490 1113 m 675 1181 l 675 1196 l 560 1233 q 536 1239 547 1236 q 510 1242 525 1242 q 483 1239 494 1242 q 460 1233 472 1236 l 344 1196 l 344 1181 l 465 1219 q 485 1225 475 1222 q 510 1228 496 1228 q 534 1225 524 1228 q 554 1219 544 1222 l 675 1181 z "},"Õ":{"ha":1024,"x_min":81,"x_max":943,"o":"m 943 263 q 924 147 943 199 q 858 58 906 94 q 726 0 810 21 q 513 -21 642 -21 q 299 0 383 -21 q 166 58 214 21 q 99 147 118 94 q 81 263 81 199 l 81 736 q 99 852 81 800 q 166 942 118 904 q 299 1000 214 979 q 513 1021 383 1021 q 726 1000 642 1021 q 858 942 810 979 q 924 852 906 904 q 943 736 943 800 l 943 263 m 792 294 l 792 704 q 732 840 792 788 q 510 892 672 892 q 289 840 347 892 q 231 704 231 788 l 231 294 q 289 159 231 211 q 510 107 347 107 q 732 159 672 107 q 792 294 792 211 m 244 294 l 244 704 q 300 830 244 782 q 510 878 356 878 q 721 830 664 878 q 778 704 778 782 l 778 294 q 721 169 778 217 q 510 121 664 121 q 300 169 356 121 q 244 294 244 217 m 396 313 q 417 266 396 285 q 513 247 438 247 q 608 266 588 247 q 629 313 629 285 l 629 686 q 608 731 629 713 q 513 750 588 750 q 417 731 438 750 q 396 686 396 713 l 396 313 m 510 1061 l 471 1067 q 406 1074 432 1072 q 358 1074 379 1076 q 317 1067 338 1072 q 269 1054 297 1063 q 232 1056 244 1047 q 219 1090 219 1064 l 219 1231 q 233 1267 219 1257 q 269 1288 246 1278 q 325 1302 303 1297 q 369 1307 347 1307 q 417 1303 390 1307 q 486 1294 444 1300 l 510 1292 l 540 1288 q 613 1278 586 1281 q 660 1276 640 1275 q 700 1283 681 1278 q 750 1299 719 1289 q 788 1297 775 1306 q 800 1263 800 1289 l 800 1122 q 787 1085 800 1096 q 750 1065 774 1075 q 694 1051 717 1056 q 650 1046 672 1046 q 601 1049 628 1046 q 532 1058 574 1053 l 510 1061 m 675 1168 q 617 1168 647 1165 q 533 1179 586 1171 l 511 1182 l 472 1188 q 397 1195 425 1193 q 344 1194 368 1197 l 344 1179 q 395 1182 367 1183 q 469 1174 424 1181 l 508 1168 l 531 1165 q 615 1154 583 1157 q 675 1154 647 1151 l 675 1168 z "},"Ö":{"ha":1024,"x_min":81,"x_max":943,"o":"m 943 263 q 924 147 943 199 q 858 58 906 94 q 726 0 810 21 q 513 -21 642 -21 q 299 0 383 -21 q 166 58 214 21 q 99 147 118 94 q 81 263 81 199 l 81 736 q 99 852 81 800 q 166 942 118 904 q 299 1000 214 979 q 513 1021 383 1021 q 726 1000 642 1021 q 858 942 810 979 q 924 852 906 904 q 943 736 943 800 l 943 263 m 792 294 l 792 704 q 732 840 792 788 q 510 892 672 892 q 289 840 347 892 q 231 704 231 788 l 231 294 q 289 159 231 211 q 510 107 347 107 q 732 159 672 107 q 792 294 792 211 m 244 294 l 244 704 q 300 830 244 782 q 510 878 356 878 q 721 830 664 878 q 778 704 778 782 l 778 294 q 721 169 778 217 q 510 121 664 121 q 300 169 356 121 q 244 294 244 217 m 396 313 q 417 266 396 285 q 513 247 438 247 q 608 266 588 247 q 629 313 629 285 l 629 686 q 608 731 629 713 q 513 750 588 750 q 417 731 438 750 q 396 686 396 713 l 396 313 m 425 1056 l 233 1056 q 198 1067 210 1056 q 186 1101 186 1078 l 186 1269 q 198 1304 186 1293 q 233 1315 210 1315 l 425 1315 q 460 1304 449 1315 q 471 1269 471 1293 l 471 1101 q 460 1067 471 1078 q 425 1056 449 1056 m 783 1056 l 592 1056 q 557 1067 568 1056 q 546 1101 546 1078 l 546 1269 q 557 1304 546 1293 q 592 1315 568 1315 l 783 1315 q 818 1304 807 1315 q 829 1269 829 1293 l 829 1101 q 818 1067 829 1078 q 783 1056 807 1056 m 336 1153 l 336 1218 l 322 1218 l 322 1153 l 336 1153 m 694 1153 l 694 1218 l 681 1218 l 681 1153 l 694 1153 z "},"Ō":{"ha":1024,"x_min":81,"x_max":943,"o":"m 943 263 q 924 147 943 199 q 858 58 906 94 q 726 0 810 21 q 513 -21 642 -21 q 299 0 383 -21 q 166 58 214 21 q 99 147 118 94 q 81 263 81 199 l 81 736 q 99 852 81 800 q 166 942 118 904 q 299 1000 214 979 q 513 1021 383 1021 q 726 1000 642 1021 q 858 942 810 979 q 924 852 906 904 q 943 736 943 800 l 943 263 m 792 294 l 792 704 q 732 840 792 788 q 510 892 672 892 q 289 840 347 892 q 231 704 231 788 l 231 294 q 289 159 231 211 q 510 107 347 107 q 732 159 672 107 q 792 294 792 211 m 244 294 l 244 704 q 300 830 244 782 q 510 878 356 878 q 721 830 664 878 q 778 704 778 782 l 778 294 q 721 169 778 217 q 510 121 664 121 q 300 169 356 121 q 244 294 244 217 m 396 313 q 417 266 396 285 q 513 247 438 247 q 608 266 588 247 q 629 313 629 285 l 629 686 q 608 731 629 713 q 513 750 588 750 q 417 731 438 750 q 396 686 396 713 l 396 313 m 751 1056 l 269 1056 q 231 1067 243 1056 q 219 1106 219 1079 l 219 1235 q 231 1273 219 1261 q 269 1285 243 1285 l 751 1285 q 790 1273 778 1285 q 801 1235 801 1261 l 801 1106 q 790 1067 801 1079 q 751 1056 778 1056 m 344 1176 l 344 1163 l 676 1163 l 676 1176 l 344 1176 z "},"Ŏ":{"ha":1024,"x_min":81,"x_max":943,"o":"m 943 263 q 924 147 943 199 q 858 58 906 94 q 726 0 810 21 q 513 -21 642 -21 q 299 0 383 -21 q 166 58 214 21 q 99 147 118 94 q 81 263 81 199 l 81 736 q 99 852 81 800 q 166 942 118 904 q 299 1000 214 979 q 513 1021 383 1021 q 726 1000 642 1021 q 858 942 810 979 q 924 852 906 904 q 943 736 943 800 l 943 263 m 792 294 l 792 704 q 732 840 792 788 q 510 892 672 892 q 289 840 347 892 q 231 704 231 788 l 231 294 q 289 159 231 211 q 510 107 347 107 q 732 159 672 107 q 792 294 792 211 m 244 294 l 244 704 q 300 830 244 782 q 510 878 356 878 q 721 830 664 878 q 778 704 778 782 l 778 294 q 721 169 778 217 q 510 121 664 121 q 300 169 356 121 q 244 294 244 217 m 396 313 q 417 266 396 285 q 513 247 438 247 q 608 266 588 247 q 629 313 629 285 l 629 686 q 608 731 629 713 q 513 750 588 750 q 417 731 438 750 q 396 686 396 713 l 396 313 m 813 1246 q 799 1165 813 1201 q 752 1102 786 1128 q 660 1062 718 1076 q 511 1047 601 1047 q 363 1062 421 1047 q 270 1102 304 1076 q 223 1165 236 1128 q 210 1246 210 1201 l 210 1307 q 222 1345 210 1333 q 260 1357 233 1357 l 393 1357 q 424 1348 415 1357 q 433 1314 433 1339 l 433 1285 q 447 1252 433 1265 q 513 1239 461 1239 q 579 1252 564 1239 q 594 1285 594 1265 l 594 1314 q 603 1348 594 1339 q 636 1357 613 1357 l 763 1357 q 801 1345 789 1357 q 813 1307 813 1333 l 813 1246 m 697 1260 l 697 1247 q 660 1180 697 1210 q 510 1150 622 1150 q 363 1180 397 1150 q 329 1247 329 1210 l 329 1260 l 315 1260 l 315 1247 q 322 1208 315 1228 q 348 1172 328 1188 q 407 1146 368 1156 q 510 1136 446 1136 q 614 1146 574 1136 q 675 1172 654 1156 q 703 1208 696 1188 q 711 1247 711 1228 l 711 1260 l 697 1260 z "},"Ő":{"ha":1024,"x_min":81,"x_max":943,"o":"m 943 263 q 924 147 943 199 q 858 58 906 94 q 726 0 810 21 q 513 -21 642 -21 q 299 0 383 -21 q 166 58 214 21 q 99 147 118 94 q 81 263 81 199 l 81 736 q 99 852 81 800 q 166 942 118 904 q 299 1000 214 979 q 513 1021 383 1021 q 726 1000 642 1021 q 858 942 810 979 q 924 852 906 904 q 943 736 943 800 l 943 263 m 792 294 l 792 704 q 732 840 792 788 q 510 892 672 892 q 289 840 347 892 q 231 704 231 788 l 231 294 q 289 159 231 211 q 510 107 347 107 q 732 159 672 107 q 792 294 792 211 m 244 294 l 244 704 q 300 830 244 782 q 510 878 356 878 q 721 830 664 878 q 778 704 778 782 l 778 294 q 721 169 778 217 q 510 121 664 121 q 300 169 356 121 q 244 294 244 217 m 396 313 q 417 266 396 285 q 513 247 438 247 q 608 266 588 247 q 629 313 629 285 l 629 686 q 608 731 629 713 q 513 750 588 750 q 417 731 438 750 q 396 686 396 713 l 396 313 m 206 1103 l 279 1390 q 294 1428 285 1415 q 329 1440 303 1440 l 476 1440 q 514 1428 500 1440 q 522 1393 528 1415 l 449 1106 q 434 1068 443 1081 q 399 1056 425 1056 l 251 1056 q 214 1068 228 1056 q 206 1103 200 1081 m 567 1103 l 640 1390 q 655 1428 646 1415 q 690 1440 664 1440 l 838 1440 q 875 1428 861 1440 q 883 1393 889 1415 l 810 1106 q 795 1068 804 1081 q 760 1056 786 1056 l 613 1056 q 575 1068 589 1056 q 567 1103 561 1081 m 715 1181 l 750 1315 l 735 1315 l 700 1181 l 715 1181 m 354 1181 l 389 1315 l 374 1315 l 339 1181 l 354 1181 z "},"P":{"ha":947,"x_min":96,"x_max":899,"o":"m 361 0 l 146 0 q 108 12 119 0 q 96 50 96 24 l 96 950 q 108 988 96 976 q 146 1000 119 1000 l 571 1000 q 829 925 760 1000 q 899 729 899 850 l 899 551 q 829 356 899 431 q 571 281 760 281 l 411 281 l 411 50 q 399 12 411 24 q 361 0 388 0 m 551 399 q 658 413 617 399 q 721 451 699 426 q 751 509 743 475 q 760 583 760 543 l 760 686 q 751 761 760 726 q 721 821 743 796 q 658 860 699 846 q 551 875 617 875 l 251 875 l 251 125 l 265 125 l 265 399 l 551 399 m 265 413 l 265 861 l 551 861 q 651 848 613 861 q 710 811 689 835 q 738 756 731 788 q 746 686 746 724 l 746 583 q 738 515 746 546 q 710 460 731 483 q 651 425 689 438 q 551 413 613 413 l 265 413 m 408 740 l 408 531 l 533 531 q 586 551 574 531 q 599 599 599 572 l 599 672 q 586 719 599 699 q 533 740 574 740 l 408 740 z "},"Q":{"ha":1024,"x_min":81,"x_max":943,"o":"m 618 -125 l 404 -125 q 366 -113 378 -125 q 354 -75 354 -101 l 354 1 q 137 98 193 25 q 81 275 81 171 l 81 736 q 99 852 81 800 q 166 942 118 904 q 299 1000 214 979 q 513 1021 383 1021 q 726 1000 642 1021 q 858 942 810 979 q 924 852 906 904 q 943 736 943 800 l 943 275 q 931 177 943 222 q 888 97 918 132 q 803 38 857 63 q 668 1 750 13 l 668 -75 q 656 -113 668 -101 q 618 -125 644 -125 m 503 0 l 517 0 l 517 107 q 733 160 675 108 q 792 294 792 211 l 792 704 q 732 840 792 788 q 510 892 672 892 q 289 840 347 892 q 231 704 231 788 l 231 294 q 288 160 231 211 q 503 107 344 108 l 503 0 m 244 294 l 244 704 q 300 830 244 782 q 510 878 356 878 q 721 830 664 878 q 778 704 778 782 l 778 294 q 721 169 778 217 q 510 121 664 121 q 300 169 356 121 q 244 294 244 217 m 396 306 q 417 259 396 278 q 513 240 438 240 q 608 259 588 240 q 629 306 629 278 l 629 685 q 608 730 629 711 q 513 749 588 749 q 417 730 438 749 q 396 685 396 711 l 396 306 z "},"R":{"ha":1032,"x_min":96,"x_max":972,"o":"m 563 861 q 672 821 636 861 q 707 717 707 781 l 707 619 q 678 501 707 543 q 563 460 649 460 l 260 460 l 260 861 l 563 861 m 410 750 l 410 572 l 514 572 q 563 591 550 572 q 575 638 575 610 l 575 685 q 563 731 575 713 q 514 750 550 750 l 410 750 m 260 125 l 260 447 l 653 447 q 769 413 732 447 q 807 311 807 379 l 807 125 l 821 125 l 821 311 q 779 422 821 383 q 653 460 738 460 l 638 460 q 704 516 688 475 q 721 621 721 557 l 721 717 q 682 830 721 785 q 563 875 643 875 l 246 875 l 246 125 l 260 125 m 360 0 l 146 0 q 108 12 119 0 q 96 50 96 24 l 96 950 q 108 988 96 976 q 146 1000 119 1000 l 608 1000 q 823 935 764 1000 q 882 768 882 871 l 882 704 q 865 605 882 646 q 804 546 847 564 q 926 485 879 538 q 972 344 972 432 l 972 50 q 960 12 972 24 q 922 0 949 0 l 707 0 q 669 12 681 0 q 657 50 657 24 l 657 263 q 645 308 657 293 q 604 322 633 322 l 410 322 l 410 50 q 398 12 410 24 q 360 0 386 0 z "},"Ŕ":{"ha":1032,"x_min":96,"x_max":972,"o":"m 563 861 q 672 821 636 861 q 707 717 707 781 l 707 619 q 678 501 707 543 q 563 460 649 460 l 260 460 l 260 861 l 563 861 m 410 750 l 410 572 l 514 572 q 563 591 550 572 q 575 638 575 610 l 575 685 q 563 731 575 713 q 514 750 550 750 l 410 750 m 260 125 l 260 447 l 653 447 q 769 413 732 447 q 807 311 807 379 l 807 125 l 821 125 l 821 311 q 779 422 821 383 q 653 460 738 460 l 638 460 q 704 516 688 475 q 721 621 721 557 l 721 717 q 682 830 721 785 q 563 875 643 875 l 246 875 l 246 125 l 260 125 m 360 0 l 146 0 q 108 12 119 0 q 96 50 96 24 l 96 950 q 108 988 96 976 q 146 1000 119 1000 l 608 1000 q 823 935 764 1000 q 882 768 882 871 l 882 704 q 865 605 882 646 q 804 546 847 564 q 926 485 879 538 q 972 344 972 432 l 972 50 q 960 12 972 24 q 922 0 949 0 l 707 0 q 669 12 681 0 q 657 50 657 24 l 657 263 q 645 308 657 293 q 604 322 633 322 l 410 322 l 410 50 q 398 12 410 24 q 360 0 386 0 m 742 1106 l 257 1046 q 222 1056 233 1043 q 210 1092 210 1068 l 210 1225 q 222 1262 210 1251 q 260 1275 233 1272 l 744 1335 q 780 1325 768 1338 q 792 1289 792 1313 l 792 1156 q 780 1119 792 1129 q 742 1106 768 1108 m 335 1176 l 335 1163 l 667 1204 l 667 1218 l 335 1176 z "},"Ŗ":{"ha":1032,"x_min":96,"x_max":972,"o":"m 563 861 q 672 821 636 861 q 707 717 707 781 l 707 619 q 678 501 707 543 q 563 460 649 460 l 260 460 l 260 861 l 563 861 m 410 750 l 410 572 l 514 572 q 563 591 550 572 q 575 638 575 610 l 575 685 q 563 731 575 713 q 514 750 550 750 l 410 750 m 260 125 l 260 447 l 653 447 q 769 413 732 447 q 807 311 807 379 l 807 125 l 821 125 l 821 311 q 779 422 821 383 q 653 460 738 460 l 638 460 q 704 516 688 475 q 721 621 721 557 l 721 717 q 682 830 721 785 q 563 875 643 875 l 246 875 l 246 125 l 260 125 m 360 0 l 146 0 q 108 12 119 0 q 96 50 96 24 l 96 950 q 108 988 96 976 q 146 1000 119 1000 l 608 1000 q 823 935 764 1000 q 882 768 882 871 l 882 704 q 865 605 882 646 q 804 546 847 564 q 926 485 879 538 q 972 344 972 432 l 972 50 q 960 12 972 24 q 922 0 949 0 l 707 0 q 669 12 681 0 q 657 50 657 24 l 657 263 q 645 308 657 293 q 604 322 633 322 l 410 322 l 410 50 q 398 12 410 24 q 360 0 386 0 m 517 -503 l 425 -503 q 393 -492 403 -503 q 383 -460 383 -482 l 383 -412 q 393 -381 383 -390 q 425 -371 403 -371 l 507 -371 q 531 -362 522 -371 q 539 -337 539 -353 l 539 -319 l 419 -319 q 379 -308 390 -319 q 368 -265 368 -296 l 368 -114 q 379 -72 368 -83 q 419 -60 390 -60 l 639 -60 q 679 -72 668 -60 q 690 -114 690 -83 l 690 -325 q 643 -458 690 -414 q 517 -503 596 -503 m 611 -183 l 447 -183 l 447 -197 l 597 -197 l 597 -318 q 572 -399 597 -374 q 496 -424 546 -424 l 447 -424 l 447 -437 l 496 -437 q 581 -410 551 -437 q 611 -318 611 -382 l 611 -183 z "},"Ř":{"ha":1032,"x_min":96,"x_max":972,"o":"m 563 861 q 672 821 636 861 q 707 717 707 781 l 707 619 q 678 501 707 543 q 563 460 649 460 l 260 460 l 260 861 l 563 861 m 410 750 l 410 572 l 514 572 q 563 591 550 572 q 575 638 575 610 l 575 685 q 563 731 575 713 q 514 750 550 750 l 410 750 m 260 125 l 260 447 l 653 447 q 769 413 732 447 q 807 311 807 379 l 807 125 l 821 125 l 821 311 q 779 422 821 383 q 653 460 738 460 l 638 460 q 704 516 688 475 q 721 621 721 557 l 721 717 q 682 830 721 785 q 563 875 643 875 l 246 875 l 246 125 l 260 125 m 360 0 l 146 0 q 108 12 119 0 q 96 50 96 24 l 96 950 q 108 988 96 976 q 146 1000 119 1000 l 608 1000 q 823 935 764 1000 q 882 768 882 871 l 882 704 q 865 605 882 646 q 804 546 847 564 q 926 485 879 538 q 972 344 972 432 l 972 50 q 960 12 972 24 q 922 0 949 0 l 707 0 q 669 12 681 0 q 657 50 657 24 l 657 263 q 645 308 657 293 q 604 322 633 322 l 410 322 l 410 50 q 398 12 410 24 q 360 0 386 0 m 558 1294 l 749 1350 q 794 1353 783 1361 q 806 1307 806 1344 l 806 1194 q 794 1146 806 1157 q 749 1121 782 1135 l 571 1057 q 544 1049 558 1051 q 517 1044 529 1046 q 493 1046 504 1044 q 472 1051 482 1047 l 282 1121 q 235 1146 247 1135 q 224 1194 224 1157 l 224 1307 q 235 1353 224 1344 q 282 1350 246 1361 l 472 1294 q 515 1289 496 1289 q 558 1294 535 1289 m 349 1221 l 349 1206 l 464 1168 q 488 1163 476 1165 q 514 1160 499 1160 q 540 1163 529 1160 q 564 1168 551 1165 l 679 1206 l 679 1221 l 558 1182 q 538 1176 549 1179 q 514 1174 528 1174 q 490 1176 500 1174 q 469 1182 479 1179 l 349 1221 z "},"S":{"ha":903,"x_min":71,"x_max":847,"o":"m 560 0 l 121 0 q 83 12 94 0 q 71 50 71 24 l 71 213 q 83 251 71 239 q 121 263 94 263 l 494 263 q 522 274 513 263 q 531 303 531 286 q 522 338 531 326 q 494 350 513 349 l 286 379 q 130 443 189 393 q 71 610 71 493 l 71 756 q 147 937 71 874 q 358 1000 224 1000 l 747 1000 q 785 988 774 1000 q 797 950 797 976 l 797 785 q 785 747 797 758 q 747 735 774 735 l 424 735 q 396 723 406 735 q 386 693 386 711 q 396 663 386 675 q 424 649 406 650 l 631 621 q 788 557 728 607 q 847 390 847 507 l 847 244 q 770 63 847 126 q 560 0 693 0 m 672 875 l 364 875 q 261 840 300 875 q 222 749 222 804 l 222 635 q 245 556 222 578 q 304 528 268 535 l 597 468 q 659 435 636 460 q 682 346 682 411 l 682 265 q 644 174 682 210 q 542 139 606 139 l 196 139 l 196 125 l 542 125 q 654 165 613 125 q 696 265 696 204 l 696 346 q 669 446 696 418 q 600 482 642 474 l 307 542 q 256 567 275 547 q 236 635 236 586 l 236 749 q 271 829 236 797 q 364 861 306 861 l 672 861 l 672 875 z "},"Ś":{"ha":903,"x_min":71,"x_max":847,"o":"m 560 0 l 121 0 q 83 12 94 0 q 71 50 71 24 l 71 213 q 83 251 71 239 q 121 263 94 263 l 494 263 q 522 274 513 263 q 531 303 531 286 q 522 338 531 326 q 494 350 513 349 l 286 379 q 130 443 189 393 q 71 610 71 493 l 71 756 q 147 937 71 874 q 358 1000 224 1000 l 747 1000 q 785 988 774 1000 q 797 950 797 976 l 797 785 q 785 747 797 758 q 747 735 774 735 l 424 735 q 396 723 406 735 q 386 693 386 711 q 396 663 386 675 q 424 649 406 650 l 631 621 q 788 557 728 607 q 847 390 847 507 l 847 244 q 770 63 847 126 q 560 0 693 0 m 672 875 l 364 875 q 261 840 300 875 q 222 749 222 804 l 222 635 q 245 556 222 578 q 304 528 268 535 l 597 468 q 659 435 636 460 q 682 346 682 411 l 682 265 q 644 174 682 210 q 542 139 606 139 l 196 139 l 196 125 l 542 125 q 654 165 613 125 q 696 265 696 204 l 696 346 q 669 446 696 418 q 600 482 642 474 l 307 542 q 256 567 275 547 q 236 635 236 586 l 236 749 q 271 829 236 797 q 364 861 306 861 l 672 861 l 672 875 m 706 1106 l 221 1046 q 185 1056 197 1043 q 174 1092 174 1068 l 174 1225 q 185 1262 174 1251 q 224 1275 197 1272 l 708 1335 q 744 1325 732 1338 q 756 1289 756 1313 l 756 1156 q 744 1119 756 1129 q 706 1106 732 1108 m 299 1176 l 299 1163 l 631 1204 l 631 1218 l 299 1176 z "},"Ŝ":{"ha":903,"x_min":71,"x_max":847,"o":"m 560 0 l 121 0 q 83 12 94 0 q 71 50 71 24 l 71 213 q 83 251 71 239 q 121 263 94 263 l 494 263 q 522 274 513 263 q 531 303 531 286 q 522 338 531 326 q 494 350 513 349 l 286 379 q 130 443 189 393 q 71 610 71 493 l 71 756 q 147 937 71 874 q 358 1000 224 1000 l 747 1000 q 785 988 774 1000 q 797 950 797 976 l 797 785 q 785 747 797 758 q 747 735 774 735 l 424 735 q 396 723 406 735 q 386 693 386 711 q 396 663 386 675 q 424 649 406 650 l 631 621 q 788 557 728 607 q 847 390 847 507 l 847 244 q 770 63 847 126 q 560 0 693 0 m 672 875 l 364 875 q 261 840 300 875 q 222 749 222 804 l 222 635 q 245 556 222 578 q 304 528 268 535 l 597 468 q 659 435 636 460 q 682 346 682 411 l 682 265 q 644 174 682 210 q 542 139 606 139 l 196 139 l 196 125 l 542 125 q 654 165 613 125 q 696 265 696 204 l 696 346 q 669 446 696 418 q 600 482 642 474 l 307 542 q 256 567 275 547 q 236 635 236 586 l 236 749 q 271 829 236 797 q 364 861 306 861 l 672 861 l 672 875 m 407 1107 l 217 1051 q 171 1049 182 1040 q 160 1094 160 1057 l 160 1207 q 172 1256 160 1244 q 217 1281 183 1267 l 394 1344 q 422 1353 407 1350 q 449 1357 436 1356 q 472 1356 461 1357 q 493 1350 483 1354 l 683 1281 q 730 1256 718 1267 q 742 1207 742 1244 l 742 1094 q 731 1049 742 1057 q 683 1051 719 1040 l 493 1107 q 450 1113 469 1113 q 407 1107 431 1113 m 615 1181 l 615 1196 l 500 1233 q 476 1239 488 1236 q 450 1242 465 1242 q 424 1239 435 1242 q 400 1233 413 1236 l 285 1196 l 285 1181 l 406 1219 q 426 1225 415 1222 q 450 1228 436 1228 q 474 1225 464 1228 q 494 1219 485 1222 l 615 1181 z "},"Ş":{"ha":903,"x_min":71,"x_max":847,"o":"m 471 -175 l 296 -175 q 253 -160 261 -175 q 254 -119 244 -144 l 299 0 l 121 0 q 83 12 94 0 q 71 50 71 24 l 71 213 q 83 251 71 239 q 121 263 94 263 l 494 263 q 522 274 513 263 q 531 303 531 286 q 522 338 531 326 q 494 350 513 349 l 286 379 q 130 443 189 393 q 71 610 71 493 l 71 756 q 147 937 71 874 q 358 1000 224 1000 l 747 1000 q 785 988 774 1000 q 797 950 797 976 l 797 785 q 785 747 797 758 q 747 735 774 735 l 424 735 q 396 723 406 735 q 386 693 386 711 q 396 663 386 675 q 424 649 406 650 l 631 621 q 788 557 728 607 q 847 390 847 507 l 847 244 q 777 69 847 132 q 582 0 707 6 l 535 -133 q 513 -165 528 -156 q 471 -175 497 -175 m 415 -50 l 429 -50 l 493 125 l 542 125 q 654 165 613 125 q 696 265 696 204 l 696 346 q 669 446 696 418 q 600 482 642 474 l 307 542 q 256 567 275 547 q 236 635 236 586 l 236 749 q 271 829 236 797 q 364 861 306 861 l 672 861 l 672 875 l 364 875 q 261 840 300 875 q 222 749 222 804 l 222 635 q 245 556 222 578 q 304 528 268 535 l 597 468 q 659 435 636 460 q 682 346 682 411 l 682 265 q 644 174 682 210 q 542 139 606 139 l 196 139 l 196 125 l 478 125 l 415 -50 z "},"Š":{"ha":903,"x_min":71,"x_max":847,"o":"m 560 0 l 121 0 q 83 12 94 0 q 71 50 71 24 l 71 213 q 83 251 71 239 q 121 263 94 263 l 494 263 q 522 274 513 263 q 531 303 531 286 q 522 338 531 326 q 494 350 513 349 l 286 379 q 130 443 189 393 q 71 610 71 493 l 71 756 q 147 937 71 874 q 358 1000 224 1000 l 747 1000 q 785 988 774 1000 q 797 950 797 976 l 797 785 q 785 747 797 758 q 747 735 774 735 l 424 735 q 396 723 406 735 q 386 693 386 711 q 396 663 386 675 q 424 649 406 650 l 631 621 q 788 557 728 607 q 847 390 847 507 l 847 244 q 770 63 847 126 q 560 0 693 0 m 672 875 l 364 875 q 261 840 300 875 q 222 749 222 804 l 222 635 q 245 556 222 578 q 304 528 268 535 l 597 468 q 659 435 636 460 q 682 346 682 411 l 682 265 q 644 174 682 210 q 542 139 606 139 l 196 139 l 196 125 l 542 125 q 654 165 613 125 q 696 265 696 204 l 696 346 q 669 446 696 418 q 600 482 642 474 l 307 542 q 256 567 275 547 q 236 635 236 586 l 236 749 q 271 829 236 797 q 364 861 306 861 l 672 861 l 672 875 m 508 1294 l 699 1350 q 744 1353 733 1361 q 756 1307 756 1344 l 756 1194 q 744 1146 756 1157 q 699 1121 732 1135 l 521 1057 q 494 1049 508 1051 q 467 1044 479 1046 q 443 1046 454 1044 q 422 1051 432 1047 l 232 1121 q 185 1146 197 1135 q 174 1194 174 1157 l 174 1307 q 185 1353 174 1344 q 232 1350 196 1361 l 422 1294 q 465 1289 446 1289 q 508 1294 485 1289 m 299 1221 l 299 1206 l 414 1168 q 438 1163 426 1165 q 464 1160 449 1160 q 490 1163 479 1160 q 514 1168 501 1165 l 629 1206 l 629 1221 l 508 1182 q 488 1176 499 1179 q 464 1174 478 1174 q 440 1176 450 1174 q 419 1182 429 1179 l 299 1221 z "},"Ș":{"ha":903,"x_min":71,"x_max":847,"o":"m 560 0 l 121 0 q 83 12 94 0 q 71 50 71 24 l 71 213 q 83 251 71 239 q 121 263 94 263 l 494 263 q 522 274 513 263 q 531 303 531 286 q 522 338 531 326 q 494 350 513 349 l 286 379 q 130 443 189 393 q 71 610 71 493 l 71 756 q 147 937 71 874 q 358 1000 224 1000 l 747 1000 q 785 988 774 1000 q 797 950 797 976 l 797 785 q 785 747 797 758 q 747 735 774 735 l 424 735 q 396 723 406 735 q 386 693 386 711 q 396 663 386 675 q 424 649 406 650 l 631 621 q 788 557 728 607 q 847 390 847 507 l 847 244 q 770 63 847 126 q 560 0 693 0 m 672 875 l 364 875 q 261 840 300 875 q 222 749 222 804 l 222 635 q 245 556 222 578 q 304 528 268 535 l 597 468 q 659 435 636 460 q 682 346 682 411 l 682 265 q 644 174 682 210 q 542 139 606 139 l 196 139 l 196 125 l 542 125 q 654 165 613 125 q 696 265 696 204 l 696 346 q 669 446 696 418 q 600 482 642 474 l 307 542 q 256 567 275 547 q 236 635 236 586 l 236 749 q 271 829 236 797 q 364 861 306 861 l 672 861 l 672 875 m 453 -503 l 361 -503 q 329 -492 339 -503 q 319 -460 319 -482 l 319 -412 q 329 -381 319 -390 q 361 -371 339 -371 l 443 -371 q 467 -362 458 -371 q 475 -337 475 -353 l 475 -319 l 356 -319 q 315 -308 326 -319 q 304 -265 304 -296 l 304 -114 q 315 -72 304 -83 q 356 -60 326 -60 l 575 -60 q 615 -72 604 -60 q 626 -114 626 -83 l 626 -325 q 579 -458 626 -414 q 453 -503 532 -503 m 547 -183 l 383 -183 l 383 -197 l 533 -197 l 533 -318 q 508 -399 533 -374 q 432 -424 482 -424 l 383 -424 l 383 -437 l 432 -437 q 517 -410 488 -437 q 547 -318 547 -382 l 547 -183 z "},"T":{"ha":911,"x_min":39,"x_max":872,"o":"m 568 0 l 343 0 q 305 12 317 0 q 293 50 293 24 l 293 732 l 89 732 q 51 744 63 732 q 39 782 39 756 l 39 950 q 51 988 39 976 q 89 1000 63 1000 l 822 1000 q 860 988 849 1000 q 872 950 872 976 l 872 782 q 860 744 872 756 q 822 732 849 732 l 618 732 l 618 50 q 606 12 618 24 q 568 0 594 0 m 449 125 l 463 125 l 463 861 l 747 861 l 747 875 l 164 875 l 164 861 l 449 861 l 449 125 z "},"Ţ":{"ha":911,"x_min":39,"x_max":872,"o":"m 568 0 l 343 0 q 305 12 317 0 q 293 50 293 24 l 293 732 l 89 732 q 51 744 63 732 q 39 782 39 756 l 39 950 q 51 988 39 976 q 89 1000 63 1000 l 822 1000 q 860 988 849 1000 q 872 950 872 976 l 872 782 q 860 744 872 756 q 822 732 849 732 l 618 732 l 618 50 q 606 12 618 24 q 568 0 594 0 m 449 125 l 463 125 l 463 861 l 747 861 l 747 875 l 164 875 l 164 861 l 449 861 l 449 125 m 443 -503 l 351 -503 q 319 -492 329 -503 q 310 -460 310 -482 l 310 -412 q 319 -381 310 -390 q 351 -371 329 -371 l 433 -371 q 457 -362 449 -371 q 465 -337 465 -353 l 465 -319 l 346 -319 q 306 -308 317 -319 q 294 -265 294 -296 l 294 -114 q 306 -72 294 -83 q 346 -60 317 -60 l 565 -60 q 606 -72 594 -60 q 617 -114 617 -83 l 617 -325 q 569 -458 617 -414 q 443 -503 522 -503 m 538 -183 l 374 -183 l 374 -197 l 524 -197 l 524 -318 q 498 -399 524 -374 q 422 -424 472 -424 l 374 -424 l 374 -437 l 422 -437 q 508 -410 478 -437 q 538 -318 538 -382 l 538 -183 z "},"Ť":{"ha":911,"x_min":39,"x_max":872,"o":"m 568 0 l 343 0 q 305 12 317 0 q 293 50 293 24 l 293 732 l 89 732 q 51 744 63 732 q 39 782 39 756 l 39 950 q 51 988 39 976 q 89 1000 63 1000 l 822 1000 q 860 988 849 1000 q 872 950 872 976 l 872 782 q 860 744 872 756 q 822 732 849 732 l 618 732 l 618 50 q 606 12 618 24 q 568 0 594 0 m 449 125 l 463 125 l 463 861 l 747 861 l 747 875 l 164 875 l 164 861 l 449 861 l 449 125 m 499 1294 l 689 1350 q 735 1353 724 1361 q 746 1307 746 1344 l 746 1194 q 734 1146 746 1157 q 689 1121 722 1135 l 511 1057 q 484 1049 499 1051 q 457 1044 469 1046 q 433 1046 444 1044 q 413 1051 422 1047 l 222 1121 q 176 1146 188 1135 q 164 1194 164 1157 l 164 1307 q 175 1353 164 1344 q 222 1350 186 1361 l 413 1294 q 456 1289 436 1289 q 499 1294 475 1289 m 289 1221 l 289 1206 l 404 1168 q 428 1163 417 1165 q 454 1160 439 1160 q 481 1163 469 1160 q 504 1168 492 1165 l 619 1206 l 619 1221 l 499 1182 q 478 1176 489 1179 q 454 1174 468 1174 q 430 1176 440 1174 q 410 1182 419 1179 l 289 1221 z "},"U":{"ha":1036,"x_min":89,"x_max":947,"o":"m 947 263 q 928 147 947 199 q 862 58 910 94 q 731 0 814 21 q 518 -21 647 -21 q 306 0 389 -21 q 174 58 222 21 q 108 147 126 94 q 89 263 89 199 l 89 950 q 101 988 89 976 q 139 1000 113 1000 l 357 1000 q 395 988 383 1000 q 407 950 407 976 l 407 317 q 428 270 407 289 q 521 251 449 251 q 615 270 594 251 q 636 317 636 289 l 636 950 q 648 988 636 976 q 686 1000 660 1000 l 897 1000 q 935 988 924 1000 q 947 950 947 976 l 947 263 m 242 875 l 242 296 q 299 160 242 213 q 519 108 357 108 q 740 160 682 108 q 799 296 799 213 l 799 875 l 785 875 l 785 296 q 729 170 785 218 q 519 122 674 122 q 310 170 365 122 q 256 296 256 218 l 256 875 l 242 875 z "},"Ù":{"ha":1036,"x_min":89,"x_max":947,"o":"m 947 263 q 928 147 947 199 q 862 58 910 94 q 731 0 814 21 q 518 -21 647 -21 q 306 0 389 -21 q 174 58 222 21 q 108 147 126 94 q 89 263 89 199 l 89 950 q 101 988 89 976 q 139 1000 113 1000 l 357 1000 q 395 988 383 1000 q 407 950 407 976 l 407 317 q 428 270 407 289 q 521 251 449 251 q 615 270 594 251 q 636 317 636 289 l 636 950 q 648 988 636 976 q 686 1000 660 1000 l 897 1000 q 935 988 924 1000 q 947 950 947 976 l 947 263 m 242 875 l 242 296 q 299 160 242 213 q 519 108 357 108 q 740 160 682 108 q 799 296 799 213 l 799 875 l 785 875 l 785 296 q 729 170 785 218 q 519 122 674 122 q 310 170 365 122 q 256 296 256 218 l 256 875 l 242 875 m 747 1046 l 263 1106 q 224 1119 236 1108 q 213 1156 213 1129 l 213 1289 q 224 1325 213 1313 q 260 1335 236 1338 l 744 1275 q 783 1262 771 1272 q 794 1225 794 1251 l 794 1092 q 783 1056 794 1068 q 747 1046 771 1043 m 338 1204 l 669 1163 l 669 1176 l 338 1218 l 338 1204 z "},"Ú":{"ha":1036,"x_min":89,"x_max":947,"o":"m 947 263 q 928 147 947 199 q 862 58 910 94 q 731 0 814 21 q 518 -21 647 -21 q 306 0 389 -21 q 174 58 222 21 q 108 147 126 94 q 89 263 89 199 l 89 950 q 101 988 89 976 q 139 1000 113 1000 l 357 1000 q 395 988 383 1000 q 407 950 407 976 l 407 317 q 428 270 407 289 q 521 251 449 251 q 615 270 594 251 q 636 317 636 289 l 636 950 q 648 988 636 976 q 686 1000 660 1000 l 897 1000 q 935 988 924 1000 q 947 950 947 976 l 947 263 m 242 875 l 242 296 q 299 160 242 213 q 519 108 357 108 q 740 160 682 108 q 799 296 799 213 l 799 875 l 785 875 l 785 296 q 729 170 785 218 q 519 122 674 122 q 310 170 365 122 q 256 296 256 218 l 256 875 l 242 875 m 772 1106 l 288 1046 q 252 1056 264 1043 q 240 1092 240 1068 l 240 1225 q 252 1262 240 1251 q 290 1275 264 1272 l 775 1335 q 810 1325 799 1338 q 822 1289 822 1313 l 822 1156 q 810 1119 822 1129 q 772 1106 799 1108 m 365 1176 l 365 1163 l 697 1204 l 697 1218 l 365 1176 z "},"Û":{"ha":1036,"x_min":89,"x_max":947,"o":"m 947 263 q 928 147 947 199 q 862 58 910 94 q 731 0 814 21 q 518 -21 647 -21 q 306 0 389 -21 q 174 58 222 21 q 108 147 126 94 q 89 263 89 199 l 89 950 q 101 988 89 976 q 139 1000 113 1000 l 357 1000 q 395 988 383 1000 q 407 950 407 976 l 407 317 q 428 270 407 289 q 521 251 449 251 q 615 270 594 251 q 636 317 636 289 l 636 950 q 648 988 636 976 q 686 1000 660 1000 l 897 1000 q 935 988 924 1000 q 947 950 947 976 l 947 263 m 242 875 l 242 296 q 299 160 242 213 q 519 108 357 108 q 740 160 682 108 q 799 296 799 213 l 799 875 l 785 875 l 785 296 q 729 170 785 218 q 519 122 674 122 q 310 170 365 122 q 256 296 256 218 l 256 875 l 242 875 m 474 1107 l 283 1051 q 238 1049 249 1040 q 226 1094 226 1057 l 226 1207 q 238 1256 226 1244 q 283 1281 250 1267 l 461 1344 q 488 1353 474 1350 q 515 1357 503 1356 q 539 1356 528 1357 q 560 1350 550 1354 l 750 1281 q 797 1256 785 1267 q 808 1207 808 1244 l 808 1094 q 797 1049 808 1057 q 750 1051 786 1040 l 560 1107 q 517 1113 536 1113 q 474 1107 497 1113 m 682 1181 l 682 1196 l 567 1233 q 543 1239 554 1236 q 517 1242 532 1242 q 490 1239 501 1242 q 467 1233 479 1236 l 351 1196 l 351 1181 l 472 1219 q 492 1225 482 1222 q 517 1228 503 1228 q 541 1225 531 1228 q 561 1219 551 1222 l 682 1181 z "},"Ü":{"ha":1036,"x_min":89,"x_max":947,"o":"m 947 263 q 928 147 947 199 q 862 58 910 94 q 731 0 814 21 q 518 -21 647 -21 q 306 0 389 -21 q 174 58 222 21 q 108 147 126 94 q 89 263 89 199 l 89 950 q 101 988 89 976 q 139 1000 113 1000 l 357 1000 q 395 988 383 1000 q 407 950 407 976 l 407 317 q 428 270 407 289 q 521 251 449 251 q 615 270 594 251 q 636 317 636 289 l 636 950 q 648 988 636 976 q 686 1000 660 1000 l 897 1000 q 935 988 924 1000 q 947 950 947 976 l 947 263 m 242 875 l 242 296 q 299 160 242 213 q 519 108 357 108 q 740 160 682 108 q 799 296 799 213 l 799 875 l 785 875 l 785 296 q 729 170 785 218 q 519 122 674 122 q 310 170 365 122 q 256 296 256 218 l 256 875 l 242 875 m 432 1056 l 240 1056 q 205 1067 217 1056 q 193 1101 193 1078 l 193 1269 q 205 1304 193 1293 q 240 1315 217 1315 l 432 1315 q 467 1304 456 1315 q 478 1269 478 1293 l 478 1101 q 467 1067 478 1078 q 432 1056 456 1056 m 790 1056 l 599 1056 q 564 1067 575 1056 q 553 1101 553 1078 l 553 1269 q 564 1304 553 1293 q 599 1315 575 1315 l 790 1315 q 825 1304 814 1315 q 836 1269 836 1293 l 836 1101 q 825 1067 836 1078 q 790 1056 814 1056 m 343 1153 l 343 1218 l 329 1218 l 329 1153 l 343 1153 m 701 1153 l 701 1218 l 688 1218 l 688 1153 l 701 1153 z "},"Ũ":{"ha":1036,"x_min":89,"x_max":947,"o":"m 947 263 q 928 147 947 199 q 862 58 910 94 q 731 0 814 21 q 518 -21 647 -21 q 306 0 389 -21 q 174 58 222 21 q 108 147 126 94 q 89 263 89 199 l 89 950 q 101 988 89 976 q 139 1000 113 1000 l 357 1000 q 395 988 383 1000 q 407 950 407 976 l 407 317 q 428 270 407 289 q 521 251 449 251 q 615 270 594 251 q 636 317 636 289 l 636 950 q 648 988 636 976 q 686 1000 660 1000 l 897 1000 q 935 988 924 1000 q 947 950 947 976 l 947 263 m 242 875 l 242 296 q 299 160 242 213 q 519 108 357 108 q 740 160 682 108 q 799 296 799 213 l 799 875 l 785 875 l 785 296 q 729 170 785 218 q 519 122 674 122 q 310 170 365 122 q 256 296 256 218 l 256 875 l 242 875 m 517 1061 l 478 1067 q 413 1074 439 1072 q 365 1074 386 1076 q 324 1067 344 1072 q 276 1054 304 1063 q 239 1056 251 1047 q 226 1090 226 1064 l 226 1231 q 240 1267 226 1257 q 276 1288 253 1278 q 332 1302 310 1297 q 376 1307 354 1307 q 424 1303 397 1307 q 493 1294 451 1300 l 517 1292 l 547 1288 q 620 1278 593 1281 q 667 1276 647 1275 q 707 1283 688 1278 q 757 1299 726 1289 q 794 1297 782 1306 q 807 1263 807 1289 l 807 1122 q 794 1085 807 1096 q 757 1065 781 1075 q 701 1051 724 1056 q 657 1046 679 1046 q 608 1049 635 1046 q 539 1058 581 1053 l 517 1061 m 682 1168 q 624 1168 654 1165 q 540 1179 593 1171 l 518 1182 l 479 1188 q 403 1195 432 1193 q 351 1194 375 1197 l 351 1179 q 402 1182 374 1183 q 476 1174 431 1181 l 515 1168 l 538 1165 q 622 1154 590 1157 q 682 1154 654 1151 l 682 1168 z "},"Ū":{"ha":1036,"x_min":89,"x_max":947,"o":"m 947 263 q 928 147 947 199 q 862 58 910 94 q 731 0 814 21 q 518 -21 647 -21 q 306 0 389 -21 q 174 58 222 21 q 108 147 126 94 q 89 263 89 199 l 89 950 q 101 988 89 976 q 139 1000 113 1000 l 357 1000 q 395 988 383 1000 q 407 950 407 976 l 407 317 q 428 270 407 289 q 521 251 449 251 q 615 270 594 251 q 636 317 636 289 l 636 950 q 648 988 636 976 q 686 1000 660 1000 l 897 1000 q 935 988 924 1000 q 947 950 947 976 l 947 263 m 242 875 l 242 296 q 299 160 242 213 q 519 108 357 108 q 740 160 682 108 q 799 296 799 213 l 799 875 l 785 875 l 785 296 q 729 170 785 218 q 519 122 674 122 q 310 170 365 122 q 256 296 256 218 l 256 875 l 242 875 m 758 1056 l 276 1056 q 238 1067 250 1056 q 226 1106 226 1079 l 226 1235 q 238 1273 226 1261 q 276 1285 250 1285 l 758 1285 q 797 1273 785 1285 q 808 1235 808 1261 l 808 1106 q 797 1067 808 1079 q 758 1056 785 1056 m 351 1176 l 351 1163 l 683 1163 l 683 1176 l 351 1176 z "},"Ŭ":{"ha":1036,"x_min":89,"x_max":947,"o":"m 947 263 q 928 147 947 199 q 862 58 910 94 q 731 0 814 21 q 518 -21 647 -21 q 306 0 389 -21 q 174 58 222 21 q 108 147 126 94 q 89 263 89 199 l 89 950 q 101 988 89 976 q 139 1000 113 1000 l 357 1000 q 395 988 383 1000 q 407 950 407 976 l 407 317 q 428 270 407 289 q 521 251 449 251 q 615 270 594 251 q 636 317 636 289 l 636 950 q 648 988 636 976 q 686 1000 660 1000 l 897 1000 q 935 988 924 1000 q 947 950 947 976 l 947 263 m 242 875 l 242 296 q 299 160 242 213 q 519 108 357 108 q 740 160 682 108 q 799 296 799 213 l 799 875 l 785 875 l 785 296 q 729 170 785 218 q 519 122 674 122 q 310 170 365 122 q 256 296 256 218 l 256 875 l 242 875 m 819 1246 q 806 1165 819 1201 q 759 1102 793 1128 q 667 1062 725 1076 q 518 1047 608 1047 q 369 1062 428 1047 q 277 1102 311 1076 q 230 1165 243 1128 q 217 1246 217 1201 l 217 1307 q 228 1345 217 1333 q 267 1357 240 1357 l 400 1357 q 431 1348 422 1357 q 440 1314 440 1339 l 440 1285 q 454 1252 440 1265 q 519 1239 468 1239 q 586 1252 571 1239 q 601 1285 601 1265 l 601 1314 q 610 1348 601 1339 q 643 1357 619 1357 l 769 1357 q 808 1345 796 1357 q 819 1307 819 1333 l 819 1246 m 704 1260 l 704 1247 q 667 1180 704 1210 q 517 1150 629 1150 q 370 1180 404 1150 q 336 1247 336 1210 l 336 1260 l 322 1260 l 322 1247 q 328 1208 322 1228 q 355 1172 335 1188 q 414 1146 375 1156 q 517 1136 453 1136 q 621 1146 581 1136 q 682 1172 661 1156 q 710 1208 703 1188 q 718 1247 718 1228 l 718 1260 l 704 1260 z "},"Ů":{"ha":1036,"x_min":89,"x_max":947,"o":"m 947 263 q 928 147 947 199 q 862 58 910 94 q 731 0 814 21 q 518 -21 647 -21 q 306 0 389 -21 q 174 58 222 21 q 108 147 126 94 q 89 263 89 199 l 89 950 q 101 988 89 976 q 139 1000 113 1000 l 357 1000 q 395 988 383 1000 q 407 950 407 976 l 407 317 q 428 270 407 289 q 521 251 449 251 q 615 270 594 251 q 636 317 636 289 l 636 950 q 648 988 636 976 q 686 1000 660 1000 l 897 1000 q 935 988 924 1000 q 947 950 947 976 l 947 263 m 242 875 l 242 296 q 299 160 242 213 q 519 108 357 108 q 740 160 682 108 q 799 296 799 213 l 799 875 l 785 875 l 785 296 q 729 170 785 218 q 519 122 674 122 q 310 170 365 122 q 256 296 256 218 l 256 875 l 242 875 m 819 1382 l 819 1246 q 806 1165 819 1201 q 759 1102 793 1128 q 667 1062 725 1076 q 518 1047 608 1047 q 369 1062 428 1047 q 277 1102 311 1076 q 230 1165 243 1128 q 217 1246 217 1201 l 217 1382 q 230 1463 217 1426 q 277 1526 243 1500 q 369 1566 311 1551 q 518 1581 428 1581 q 667 1566 608 1581 q 759 1526 725 1551 q 806 1463 793 1500 q 819 1382 819 1426 m 322 1278 q 330 1222 322 1247 q 358 1177 338 1196 q 418 1149 379 1158 q 518 1139 457 1139 q 679 1177 642 1139 q 717 1278 717 1215 l 717 1354 q 679 1455 717 1415 q 518 1494 642 1494 q 418 1484 457 1494 q 358 1456 379 1474 q 330 1411 338 1438 q 322 1354 322 1385 l 322 1278 m 518 1481 q 666 1446 629 1481 q 703 1354 703 1411 l 703 1278 q 666 1186 703 1219 q 518 1153 629 1153 q 372 1186 407 1153 q 336 1278 336 1219 l 336 1354 q 372 1447 336 1413 q 518 1481 407 1481 m 601 1292 l 601 1340 q 586 1381 601 1367 q 519 1396 571 1396 q 454 1381 468 1396 q 440 1340 440 1367 l 440 1292 q 454 1247 440 1261 q 519 1232 468 1232 q 586 1247 571 1232 q 601 1292 601 1261 z "},"Ű":{"ha":1036,"x_min":89,"x_max":947,"o":"m 947 263 q 928 147 947 199 q 862 58 910 94 q 731 0 814 21 q 518 -21 647 -21 q 306 0 389 -21 q 174 58 222 21 q 108 147 126 94 q 89 263 89 199 l 89 950 q 101 988 89 976 q 139 1000 113 1000 l 357 1000 q 395 988 383 1000 q 407 950 407 976 l 407 317 q 428 270 407 289 q 521 251 449 251 q 615 270 594 251 q 636 317 636 289 l 636 950 q 648 988 636 976 q 686 1000 660 1000 l 897 1000 q 935 988 924 1000 q 947 950 947 976 l 947 263 m 242 875 l 242 296 q 299 160 242 213 q 519 108 357 108 q 740 160 682 108 q 799 296 799 213 l 799 875 l 785 875 l 785 296 q 729 170 785 218 q 519 122 674 122 q 310 170 365 122 q 256 296 256 218 l 256 875 l 242 875 m 218 1103 l 292 1390 q 306 1428 297 1415 q 342 1440 315 1440 l 489 1440 q 526 1428 513 1440 q 535 1393 540 1415 l 461 1106 q 447 1068 456 1081 q 411 1056 438 1056 l 264 1056 q 226 1068 240 1056 q 218 1103 213 1081 m 579 1103 l 653 1390 q 667 1428 658 1415 q 703 1440 676 1440 l 850 1440 q 888 1428 874 1440 q 896 1393 901 1415 l 822 1106 q 808 1068 817 1081 q 772 1056 799 1056 l 625 1056 q 588 1068 601 1056 q 579 1103 574 1081 m 728 1181 l 763 1315 l 747 1315 l 713 1181 l 728 1181 m 367 1181 l 401 1315 l 386 1315 l 351 1181 l 367 1181 z "},"Ų":{"ha":1036,"x_min":89,"x_max":947,"o":"m 678 -272 l 524 -272 q 402 -226 435 -272 q 383 -85 369 -181 l 396 -15 q 246 18 306 -6 q 151 78 186 42 q 103 160 117 114 q 89 263 89 207 l 89 950 q 101 988 89 976 q 139 1000 113 1000 l 357 1000 q 395 988 383 1000 q 407 950 407 976 l 407 317 q 428 270 407 289 q 521 251 449 251 q 615 270 594 251 q 636 317 636 289 l 636 950 q 648 988 636 976 q 686 1000 660 1000 l 897 1000 q 935 988 924 1000 q 947 950 947 976 l 947 263 q 933 159 947 207 q 882 75 918 111 q 783 15 846 39 q 625 -17 721 -8 l 617 -78 l 674 -78 q 713 -88 703 -78 q 724 -125 724 -99 l 724 -225 q 714 -262 724 -251 q 678 -272 704 -272 m 565 -175 l 599 -175 l 599 -161 l 565 -161 q 513 -138 522 -161 q 508 -74 503 -115 l 525 44 q 537 85 529 74 q 568 110 544 96 q 750 168 701 118 q 799 296 799 218 l 799 875 l 785 875 l 785 296 q 729 170 785 218 q 519 122 674 122 q 310 170 365 122 q 256 296 256 218 l 256 875 l 242 875 l 242 296 q 299 160 242 213 q 519 108 357 108 l 542 108 q 521 84 526 97 q 511 44 515 71 l 494 -71 q 500 -149 486 -122 q 565 -175 514 -175 z "},"V":{"ha":1014,"x_min":75,"x_max":939,"o":"m 688 0 l 326 0 q 283 10 300 0 q 256 46 265 19 l 119 386 q 99 440 107 417 q 85 483 90 463 q 77 527 79 504 q 75 583 75 550 l 75 950 q 87 988 75 976 q 125 1000 99 1000 l 346 1000 q 386 988 372 1000 q 400 950 400 976 l 400 567 q 403 539 400 553 q 411 510 406 525 l 476 315 q 486 297 481 301 q 503 292 492 292 l 518 292 q 535 297 529 292 q 544 315 540 301 l 610 511 q 618 540 615 526 q 621 568 621 554 l 621 950 q 633 988 621 976 q 671 1000 644 1000 l 889 1000 q 927 988 915 1000 q 939 950 939 976 l 939 583 q 937 527 939 550 q 929 483 935 504 q 915 440 924 463 q 894 386 907 417 l 758 46 q 731 10 749 19 q 688 0 714 0 m 232 875 l 232 575 q 237 503 232 536 q 254 440 242 471 l 346 218 q 383 151 363 178 q 447 125 404 125 l 569 125 q 633 151 613 125 q 671 218 654 178 l 763 440 q 780 503 775 471 q 785 575 785 536 l 785 875 l 771 875 l 771 575 q 765 506 771 539 q 749 446 760 474 l 657 224 q 626 163 643 188 q 569 139 608 139 l 447 139 q 391 163 408 139 q 360 224 374 188 l 268 446 q 251 506 257 474 q 246 575 246 539 l 246 875 l 232 875 z "},"W":{"ha":1154,"x_min":83,"x_max":1071,"o":"m 610 479 l 547 479 q 511 466 525 479 q 479 414 497 453 l 365 158 q 349 142 360 144 q 328 139 338 139 l 321 139 q 300 148 310 139 q 289 168 290 157 l 254 326 q 248 394 249 353 q 247 467 247 436 l 247 875 l 233 875 l 233 465 q 234 393 233 435 q 240 325 235 351 l 275 168 q 292 135 281 146 q 321 125 304 125 l 331 125 q 357 130 343 125 q 376 149 371 135 l 490 407 q 519 455 507 444 q 547 465 531 465 l 610 465 q 638 455 626 465 q 667 407 650 444 l 781 149 q 800 130 786 135 q 826 125 814 125 l 836 125 q 865 135 853 125 q 882 168 876 146 l 917 325 q 923 393 922 351 q 924 465 924 435 l 924 875 l 910 875 l 910 467 q 909 394 910 436 q 903 326 908 353 l 868 168 q 857 148 867 157 q 836 139 847 139 l 829 139 q 808 142 819 139 q 792 158 797 144 l 678 414 q 646 466 660 453 q 610 479 632 479 m 814 1000 l 1021 1000 q 1059 988 1047 1000 q 1071 950 1071 976 l 1071 411 q 1067 328 1071 367 q 1046 239 1064 290 l 976 50 q 956 15 969 29 q 921 0 943 0 l 736 0 q 696 10 714 0 q 672 42 678 19 l 608 268 q 598 287 604 282 q 583 292 592 292 l 571 292 q 556 287 563 292 q 546 268 550 282 l 481 42 q 460 10 475 21 q 422 0 444 0 l 239 0 q 201 14 217 0 q 178 50 185 28 l 108 242 q 87 331 90 293 q 83 414 83 369 l 83 950 q 95 988 83 976 q 133 1000 107 1000 l 347 1000 q 385 988 374 1000 q 397 950 397 976 l 397 439 l 478 614 q 507 647 489 638 q 551 657 525 657 l 610 657 q 654 647 636 657 q 683 614 672 638 l 764 439 l 764 950 q 776 988 764 976 q 814 1000 788 1000 z "},"Ŵ":{"ha":1154,"x_min":83,"x_max":1071,"o":"m 610 479 l 547 479 q 511 466 525 479 q 479 414 497 453 l 365 158 q 349 142 360 144 q 328 139 338 139 l 321 139 q 300 148 310 139 q 289 168 290 157 l 254 326 q 248 394 249 353 q 247 467 247 436 l 247 875 l 233 875 l 233 465 q 234 393 233 435 q 240 325 235 351 l 275 168 q 292 135 281 146 q 321 125 304 125 l 331 125 q 357 130 343 125 q 376 149 371 135 l 490 407 q 519 455 507 444 q 547 465 531 465 l 610 465 q 638 455 626 465 q 667 407 650 444 l 781 149 q 800 130 786 135 q 826 125 814 125 l 836 125 q 865 135 853 125 q 882 168 876 146 l 917 325 q 923 393 922 351 q 924 465 924 435 l 924 875 l 910 875 l 910 467 q 909 394 910 436 q 903 326 908 353 l 868 168 q 857 148 867 157 q 836 139 847 139 l 829 139 q 808 142 819 139 q 792 158 797 144 l 678 414 q 646 466 660 453 q 610 479 632 479 m 814 1000 l 1021 1000 q 1059 988 1047 1000 q 1071 950 1071 976 l 1071 411 q 1067 328 1071 367 q 1046 239 1064 290 l 976 50 q 956 15 969 29 q 921 0 943 0 l 736 0 q 696 10 714 0 q 672 42 678 19 l 608 268 q 598 287 604 282 q 583 292 592 292 l 571 292 q 556 287 563 292 q 546 268 550 282 l 481 42 q 460 10 475 21 q 422 0 444 0 l 239 0 q 201 14 217 0 q 178 50 185 28 l 108 242 q 87 331 90 293 q 83 414 83 369 l 83 950 q 95 988 83 976 q 133 1000 107 1000 l 347 1000 q 385 988 374 1000 q 397 950 397 976 l 397 439 l 478 614 q 507 647 489 638 q 551 657 525 657 l 610 657 q 654 647 636 657 q 683 614 672 638 l 764 439 l 764 950 q 776 988 764 976 q 814 1000 788 1000 m 532 1107 l 342 1051 q 296 1049 307 1040 q 285 1094 285 1057 l 285 1207 q 297 1256 285 1244 q 342 1281 308 1267 l 519 1344 q 547 1353 532 1350 q 574 1357 561 1356 q 597 1356 586 1357 q 618 1350 608 1354 l 808 1281 q 855 1256 843 1267 q 867 1207 867 1244 l 867 1094 q 856 1049 867 1057 q 808 1051 844 1040 l 618 1107 q 575 1113 594 1113 q 532 1107 556 1113 m 740 1181 l 740 1196 l 625 1233 q 601 1239 613 1236 q 575 1242 590 1242 q 549 1239 560 1242 q 525 1233 538 1236 l 410 1196 l 410 1181 l 531 1219 q 551 1225 540 1222 q 575 1228 561 1228 q 599 1225 589 1228 q 619 1219 610 1222 l 740 1181 z "},"Ẁ":{"ha":1154,"x_min":83,"x_max":1071,"o":"m 610 479 l 547 479 q 511 466 525 479 q 479 414 497 453 l 365 158 q 349 142 360 144 q 328 139 338 139 l 321 139 q 300 148 310 139 q 289 168 290 157 l 254 326 q 248 394 249 353 q 247 467 247 436 l 247 875 l 233 875 l 233 465 q 234 393 233 435 q 240 325 235 351 l 275 168 q 292 135 281 146 q 321 125 304 125 l 331 125 q 357 130 343 125 q 376 149 371 135 l 490 407 q 519 455 507 444 q 547 465 531 465 l 610 465 q 638 455 626 465 q 667 407 650 444 l 781 149 q 800 130 786 135 q 826 125 814 125 l 836 125 q 865 135 853 125 q 882 168 876 146 l 917 325 q 923 393 922 351 q 924 465 924 435 l 924 875 l 910 875 l 910 467 q 909 394 910 436 q 903 326 908 353 l 868 168 q 857 148 867 157 q 836 139 847 139 l 829 139 q 808 142 819 139 q 792 158 797 144 l 678 414 q 646 466 660 453 q 610 479 632 479 m 814 1000 l 1021 1000 q 1059 988 1047 1000 q 1071 950 1071 976 l 1071 411 q 1067 328 1071 367 q 1046 239 1064 290 l 976 50 q 956 15 969 29 q 921 0 943 0 l 736 0 q 696 10 714 0 q 672 42 678 19 l 608 268 q 598 287 604 282 q 583 292 592 292 l 571 292 q 556 287 563 292 q 546 268 550 282 l 481 42 q 460 10 475 21 q 422 0 444 0 l 239 0 q 201 14 217 0 q 178 50 185 28 l 108 242 q 87 331 90 293 q 83 414 83 369 l 83 950 q 95 988 83 976 q 133 1000 107 1000 l 347 1000 q 385 988 374 1000 q 397 950 397 976 l 397 439 l 478 614 q 507 647 489 638 q 551 657 525 657 l 610 657 q 654 647 636 657 q 683 614 672 638 l 764 439 l 764 950 q 776 988 764 976 q 814 1000 788 1000 m 806 1046 l 321 1106 q 283 1119 294 1108 q 271 1156 271 1129 l 271 1289 q 283 1325 271 1313 q 318 1335 294 1338 l 803 1275 q 841 1262 829 1272 q 853 1225 853 1251 l 853 1092 q 841 1056 853 1068 q 806 1046 829 1043 m 396 1204 l 728 1163 l 728 1176 l 396 1218 l 396 1204 z "},"Ẃ":{"ha":1154,"x_min":83,"x_max":1071,"o":"m 610 479 l 547 479 q 511 466 525 479 q 479 414 497 453 l 365 158 q 349 142 360 144 q 328 139 338 139 l 321 139 q 300 148 310 139 q 289 168 290 157 l 254 326 q 248 394 249 353 q 247 467 247 436 l 247 875 l 233 875 l 233 465 q 234 393 233 435 q 240 325 235 351 l 275 168 q 292 135 281 146 q 321 125 304 125 l 331 125 q 357 130 343 125 q 376 149 371 135 l 490 407 q 519 455 507 444 q 547 465 531 465 l 610 465 q 638 455 626 465 q 667 407 650 444 l 781 149 q 800 130 786 135 q 826 125 814 125 l 836 125 q 865 135 853 125 q 882 168 876 146 l 917 325 q 923 393 922 351 q 924 465 924 435 l 924 875 l 910 875 l 910 467 q 909 394 910 436 q 903 326 908 353 l 868 168 q 857 148 867 157 q 836 139 847 139 l 829 139 q 808 142 819 139 q 792 158 797 144 l 678 414 q 646 466 660 453 q 610 479 632 479 m 814 1000 l 1021 1000 q 1059 988 1047 1000 q 1071 950 1071 976 l 1071 411 q 1067 328 1071 367 q 1046 239 1064 290 l 976 50 q 956 15 969 29 q 921 0 943 0 l 736 0 q 696 10 714 0 q 672 42 678 19 l 608 268 q 598 287 604 282 q 583 292 592 292 l 571 292 q 556 287 563 292 q 546 268 550 282 l 481 42 q 460 10 475 21 q 422 0 444 0 l 239 0 q 201 14 217 0 q 178 50 185 28 l 108 242 q 87 331 90 293 q 83 414 83 369 l 83 950 q 95 988 83 976 q 133 1000 107 1000 l 347 1000 q 385 988 374 1000 q 397 950 397 976 l 397 439 l 478 614 q 507 647 489 638 q 551 657 525 657 l 610 657 q 654 647 636 657 q 683 614 672 638 l 764 439 l 764 950 q 776 988 764 976 q 814 1000 788 1000 m 831 1106 l 346 1046 q 310 1056 322 1043 q 299 1092 299 1068 l 299 1225 q 310 1262 299 1251 q 349 1275 322 1272 l 833 1335 q 869 1325 857 1338 q 881 1289 881 1313 l 881 1156 q 869 1119 881 1129 q 831 1106 857 1108 m 424 1176 l 424 1163 l 756 1204 l 756 1218 l 424 1176 z "},"Ẅ":{"ha":1154,"x_min":83,"x_max":1071,"o":"m 610 479 l 547 479 q 511 466 525 479 q 479 414 497 453 l 365 158 q 349 142 360 144 q 328 139 338 139 l 321 139 q 300 148 310 139 q 289 168 290 157 l 254 326 q 248 394 249 353 q 247 467 247 436 l 247 875 l 233 875 l 233 465 q 234 393 233 435 q 240 325 235 351 l 275 168 q 292 135 281 146 q 321 125 304 125 l 331 125 q 357 130 343 125 q 376 149 371 135 l 490 407 q 519 455 507 444 q 547 465 531 465 l 610 465 q 638 455 626 465 q 667 407 650 444 l 781 149 q 800 130 786 135 q 826 125 814 125 l 836 125 q 865 135 853 125 q 882 168 876 146 l 917 325 q 923 393 922 351 q 924 465 924 435 l 924 875 l 910 875 l 910 467 q 909 394 910 436 q 903 326 908 353 l 868 168 q 857 148 867 157 q 836 139 847 139 l 829 139 q 808 142 819 139 q 792 158 797 144 l 678 414 q 646 466 660 453 q 610 479 632 479 m 814 1000 l 1021 1000 q 1059 988 1047 1000 q 1071 950 1071 976 l 1071 411 q 1067 328 1071 367 q 1046 239 1064 290 l 976 50 q 956 15 969 29 q 921 0 943 0 l 736 0 q 696 10 714 0 q 672 42 678 19 l 608 268 q 598 287 604 282 q 583 292 592 292 l 571 292 q 556 287 563 292 q 546 268 550 282 l 481 42 q 460 10 475 21 q 422 0 444 0 l 239 0 q 201 14 217 0 q 178 50 185 28 l 108 242 q 87 331 90 293 q 83 414 83 369 l 83 950 q 95 988 83 976 q 133 1000 107 1000 l 347 1000 q 385 988 374 1000 q 397 950 397 976 l 397 439 l 478 614 q 507 647 489 638 q 551 657 525 657 l 610 657 q 654 647 636 657 q 683 614 672 638 l 764 439 l 764 950 q 776 988 764 976 q 814 1000 788 1000 m 490 1056 l 299 1056 q 263 1067 275 1056 q 251 1101 251 1078 l 251 1269 q 263 1304 251 1293 q 299 1315 275 1315 l 490 1315 q 525 1304 514 1315 q 536 1269 536 1293 l 536 1101 q 525 1067 536 1078 q 490 1056 514 1056 m 849 1056 l 657 1056 q 622 1067 633 1056 q 611 1101 611 1078 l 611 1269 q 622 1304 611 1293 q 657 1315 633 1315 l 849 1315 q 883 1304 872 1315 q 894 1269 894 1293 l 894 1101 q 883 1067 894 1078 q 849 1056 872 1056 m 401 1153 l 401 1218 l 388 1218 l 388 1153 l 401 1153 m 760 1153 l 760 1218 l 746 1218 l 746 1153 l 760 1153 z "},"X":{"ha":1024,"x_min":83,"x_max":940,"o":"m 246 188 q 249 244 246 217 q 265 289 251 271 l 429 514 l 596 514 l 758 289 q 775 243 772 269 q 778 188 778 217 l 778 125 l 792 125 l 792 188 q 789 245 792 218 q 771 294 786 272 l 607 519 l 771 747 q 789 797 786 769 q 792 854 792 824 l 792 875 l 778 875 l 778 854 q 775 799 778 825 q 758 753 772 772 l 597 528 l 432 528 l 265 753 q 249 799 251 772 q 246 854 246 825 l 246 875 l 232 875 l 232 854 q 235 797 232 824 q 253 747 238 769 l 419 522 l 253 294 q 234 245 236 272 q 232 188 232 218 l 232 125 l 246 125 l 246 188 m 394 50 q 383 12 394 24 q 344 0 371 0 l 133 0 q 95 12 107 0 q 83 50 83 24 l 83 199 q 94 294 83 263 q 136 369 106 326 l 249 521 l 136 672 q 94 747 104 715 q 83 843 83 779 l 83 950 q 95 988 83 976 q 133 1000 107 1000 l 347 1000 q 385 988 374 1000 q 397 950 397 976 l 397 854 q 399 825 397 840 q 410 796 400 810 l 471 708 q 485 691 478 697 q 504 685 493 685 l 521 685 q 539 691 532 685 q 554 708 546 697 l 617 796 q 628 825 626 810 q 629 854 629 840 l 629 950 q 641 988 629 976 q 679 1000 653 1000 l 890 1000 q 928 988 917 1000 q 940 950 940 976 l 940 843 q 929 747 940 779 q 888 672 918 715 l 775 519 l 888 369 q 930 294 919 326 q 940 199 940 263 l 940 50 q 928 12 940 24 q 890 0 917 0 l 679 0 q 641 12 653 0 q 629 50 629 24 l 629 188 q 628 217 629 201 q 617 246 626 232 l 556 333 q 540 351 547 346 q 522 357 533 357 l 503 357 q 485 351 492 357 q 469 333 478 346 l 407 246 q 396 217 397 232 q 394 188 394 201 l 394 50 z "},"Y":{"ha":979,"x_min":63,"x_max":917,"o":"m 603 0 l 378 0 q 340 12 351 0 q 328 50 328 24 l 328 228 l 115 513 q 73 588 83 556 q 63 683 63 619 l 63 950 q 74 988 63 976 q 113 1000 86 1000 l 326 1000 q 365 988 353 1000 q 376 950 376 976 l 376 722 q 378 693 376 708 q 389 664 379 678 l 453 564 q 467 546 460 551 q 486 540 475 540 l 500 540 q 519 546 511 540 q 533 564 526 551 l 597 664 q 608 693 607 678 q 610 722 610 708 l 610 950 q 622 988 610 976 q 660 1000 633 1000 l 867 1000 q 905 988 893 1000 q 917 950 917 976 l 917 683 q 906 588 917 619 q 864 513 894 556 l 653 226 l 653 50 q 641 12 653 24 q 603 0 629 0 m 507 363 q 563 376 539 363 q 610 421 588 390 l 749 608 q 767 658 765 631 q 769 715 769 685 l 769 875 l 756 875 l 756 715 q 753 659 756 686 q 736 614 750 632 l 597 426 q 555 388 576 400 q 507 376 533 376 l 469 376 q 422 388 446 376 q 381 426 399 399 l 246 614 q 229 660 232 635 q 226 715 226 686 l 226 875 l 213 875 l 213 715 q 215 657 213 685 q 233 608 218 629 l 368 421 q 415 376 390 390 q 469 363 439 363 l 483 363 l 483 125 l 497 125 l 497 363 l 507 363 z "},"Ý":{"ha":979,"x_min":63,"x_max":917,"o":"m 603 0 l 378 0 q 340 12 351 0 q 328 50 328 24 l 328 228 l 115 513 q 73 588 83 556 q 63 683 63 619 l 63 950 q 74 988 63 976 q 113 1000 86 1000 l 326 1000 q 365 988 353 1000 q 376 950 376 976 l 376 722 q 378 693 376 708 q 389 664 379 678 l 453 564 q 467 546 460 551 q 486 540 475 540 l 500 540 q 519 546 511 540 q 533 564 526 551 l 597 664 q 608 693 607 678 q 610 722 610 708 l 610 950 q 622 988 610 976 q 660 1000 633 1000 l 867 1000 q 905 988 893 1000 q 917 950 917 976 l 917 683 q 906 588 917 619 q 864 513 894 556 l 653 226 l 653 50 q 641 12 653 24 q 603 0 629 0 m 507 363 q 563 376 539 363 q 610 421 588 390 l 749 608 q 767 658 765 631 q 769 715 769 685 l 769 875 l 756 875 l 756 715 q 753 659 756 686 q 736 614 750 632 l 597 426 q 555 388 576 400 q 507 376 533 376 l 469 376 q 422 388 446 376 q 381 426 399 399 l 246 614 q 229 660 232 635 q 226 715 226 686 l 226 875 l 213 875 l 213 715 q 215 657 213 685 q 233 608 218 629 l 368 421 q 415 376 390 390 q 469 363 439 363 l 483 363 l 483 125 l 497 125 l 497 363 l 507 363 m 743 1106 l 258 1046 q 223 1056 235 1043 q 211 1092 211 1068 l 211 1225 q 223 1262 211 1251 q 261 1275 235 1272 l 746 1335 q 781 1325 769 1338 q 793 1289 793 1313 l 793 1156 q 781 1119 793 1129 q 743 1106 769 1108 m 336 1176 l 336 1163 l 668 1204 l 668 1218 l 336 1176 z "},"Ŷ":{"ha":979,"x_min":63,"x_max":917,"o":"m 603 0 l 378 0 q 340 12 351 0 q 328 50 328 24 l 328 228 l 115 513 q 73 588 83 556 q 63 683 63 619 l 63 950 q 74 988 63 976 q 113 1000 86 1000 l 326 1000 q 365 988 353 1000 q 376 950 376 976 l 376 722 q 378 693 376 708 q 389 664 379 678 l 453 564 q 467 546 460 551 q 486 540 475 540 l 500 540 q 519 546 511 540 q 533 564 526 551 l 597 664 q 608 693 607 678 q 610 722 610 708 l 610 950 q 622 988 610 976 q 660 1000 633 1000 l 867 1000 q 905 988 893 1000 q 917 950 917 976 l 917 683 q 906 588 917 619 q 864 513 894 556 l 653 226 l 653 50 q 641 12 653 24 q 603 0 629 0 m 507 363 q 563 376 539 363 q 610 421 588 390 l 749 608 q 767 658 765 631 q 769 715 769 685 l 769 875 l 756 875 l 756 715 q 753 659 756 686 q 736 614 750 632 l 597 426 q 555 388 576 400 q 507 376 533 376 l 469 376 q 422 388 446 376 q 381 426 399 399 l 246 614 q 229 660 232 635 q 226 715 226 686 l 226 875 l 213 875 l 213 715 q 215 657 213 685 q 233 608 218 629 l 368 421 q 415 376 390 390 q 469 363 439 363 l 483 363 l 483 125 l 497 125 l 497 363 l 507 363 m 444 1107 l 254 1051 q 208 1049 219 1040 q 197 1094 197 1057 l 197 1207 q 209 1256 197 1244 q 254 1281 221 1267 l 432 1344 q 459 1353 444 1350 q 486 1357 474 1356 q 510 1356 499 1357 q 531 1350 521 1354 l 721 1281 q 767 1256 756 1267 q 779 1207 779 1244 l 779 1094 q 768 1049 779 1057 q 721 1051 757 1040 l 531 1107 q 488 1113 507 1113 q 444 1107 468 1113 m 653 1181 l 653 1196 l 538 1233 q 514 1239 525 1236 q 488 1242 503 1242 q 461 1239 472 1242 q 438 1233 450 1236 l 322 1196 l 322 1181 l 443 1219 q 463 1225 453 1222 q 488 1228 474 1228 q 512 1225 501 1228 q 532 1219 522 1222 l 653 1181 z "},"Ÿ":{"ha":979,"x_min":63,"x_max":917,"o":"m 603 0 l 378 0 q 340 12 351 0 q 328 50 328 24 l 328 228 l 115 513 q 73 588 83 556 q 63 683 63 619 l 63 950 q 74 988 63 976 q 113 1000 86 1000 l 326 1000 q 365 988 353 1000 q 376 950 376 976 l 376 722 q 378 693 376 708 q 389 664 379 678 l 453 564 q 467 546 460 551 q 486 540 475 540 l 500 540 q 519 546 511 540 q 533 564 526 551 l 597 664 q 608 693 607 678 q 610 722 610 708 l 610 950 q 622 988 610 976 q 660 1000 633 1000 l 867 1000 q 905 988 893 1000 q 917 950 917 976 l 917 683 q 906 588 917 619 q 864 513 894 556 l 653 226 l 653 50 q 641 12 653 24 q 603 0 629 0 m 507 363 q 563 376 539 363 q 610 421 588 390 l 749 608 q 767 658 765 631 q 769 715 769 685 l 769 875 l 756 875 l 756 715 q 753 659 756 686 q 736 614 750 632 l 597 426 q 555 388 576 400 q 507 376 533 376 l 469 376 q 422 388 446 376 q 381 426 399 399 l 246 614 q 229 660 232 635 q 226 715 226 686 l 226 875 l 213 875 l 213 715 q 215 657 213 685 q 233 608 218 629 l 368 421 q 415 376 390 390 q 469 363 439 363 l 483 363 l 483 125 l 497 125 l 497 363 l 507 363 m 403 1056 l 211 1056 q 176 1067 188 1056 q 164 1101 164 1078 l 164 1269 q 176 1304 164 1293 q 211 1315 188 1315 l 403 1315 q 438 1304 426 1315 q 449 1269 449 1293 l 449 1101 q 438 1067 449 1078 q 403 1056 426 1056 m 761 1056 l 569 1056 q 535 1067 546 1056 q 524 1101 524 1078 l 524 1269 q 535 1304 524 1293 q 569 1315 546 1315 l 761 1315 q 796 1304 785 1315 q 807 1269 807 1293 l 807 1101 q 796 1067 807 1078 q 761 1056 785 1056 m 314 1153 l 314 1218 l 300 1218 l 300 1153 l 314 1153 m 672 1153 l 672 1218 l 658 1218 l 658 1153 l 672 1153 z "},"Ỳ":{"ha":979,"x_min":63,"x_max":917,"o":"m 603 0 l 378 0 q 340 12 351 0 q 328 50 328 24 l 328 228 l 115 513 q 73 588 83 556 q 63 683 63 619 l 63 950 q 74 988 63 976 q 113 1000 86 1000 l 326 1000 q 365 988 353 1000 q 376 950 376 976 l 376 722 q 378 693 376 708 q 389 664 379 678 l 453 564 q 467 546 460 551 q 486 540 475 540 l 500 540 q 519 546 511 540 q 533 564 526 551 l 597 664 q 608 693 607 678 q 610 722 610 708 l 610 950 q 622 988 610 976 q 660 1000 633 1000 l 867 1000 q 905 988 893 1000 q 917 950 917 976 l 917 683 q 906 588 917 619 q 864 513 894 556 l 653 226 l 653 50 q 641 12 653 24 q 603 0 629 0 m 507 363 q 563 376 539 363 q 610 421 588 390 l 749 608 q 767 658 765 631 q 769 715 769 685 l 769 875 l 756 875 l 756 715 q 753 659 756 686 q 736 614 750 632 l 597 426 q 555 388 576 400 q 507 376 533 376 l 469 376 q 422 388 446 376 q 381 426 399 399 l 246 614 q 229 660 232 635 q 226 715 226 686 l 226 875 l 213 875 l 213 715 q 215 657 213 685 q 233 608 218 629 l 368 421 q 415 376 390 390 q 469 363 439 363 l 483 363 l 483 125 l 497 125 l 497 363 l 507 363 m 718 1046 l 233 1106 q 195 1119 207 1108 q 183 1156 183 1129 l 183 1289 q 195 1325 183 1313 q 231 1335 207 1338 l 715 1275 q 753 1262 742 1272 q 765 1225 765 1251 l 765 1092 q 753 1056 765 1068 q 718 1046 742 1043 m 308 1204 l 640 1163 l 640 1176 l 308 1218 l 308 1204 z "},"Z":{"ha":917,"x_min":64,"x_max":853,"o":"m 803 0 l 114 0 q 76 12 88 0 q 64 50 64 24 l 64 236 q 72 283 64 263 q 99 322 81 303 l 436 732 l 139 732 q 101 744 113 732 q 89 782 89 756 l 89 950 q 101 988 89 976 q 139 1000 113 1000 l 778 1000 q 816 988 804 1000 q 828 950 828 976 l 828 743 q 819 695 828 715 q 793 656 811 675 l 471 265 l 803 265 q 841 253 829 265 q 853 215 853 242 l 853 50 q 841 12 853 24 q 803 0 829 0 m 657 756 q 674 780 667 768 q 681 807 681 792 l 681 829 q 670 864 681 853 q 638 875 660 875 l 214 875 l 214 861 l 638 861 q 658 855 649 861 q 667 829 667 849 l 667 810 q 662 788 667 796 q 647 767 657 779 l 240 244 q 224 220 231 232 q 217 193 217 208 l 217 171 q 227 136 217 147 q 260 125 238 125 l 728 125 l 728 139 l 260 139 q 240 145 249 139 q 231 171 231 151 l 231 190 q 235 213 231 204 q 250 233 240 221 l 657 756 z "},"Ź":{"ha":917,"x_min":64,"x_max":853,"o":"m 803 0 l 114 0 q 76 12 88 0 q 64 50 64 24 l 64 236 q 72 283 64 263 q 99 322 81 303 l 436 732 l 139 732 q 101 744 113 732 q 89 782 89 756 l 89 950 q 101 988 89 976 q 139 1000 113 1000 l 778 1000 q 816 988 804 1000 q 828 950 828 976 l 828 743 q 819 695 828 715 q 793 656 811 675 l 471 265 l 803 265 q 841 253 829 265 q 853 215 853 242 l 853 50 q 841 12 853 24 q 803 0 829 0 m 657 756 q 674 780 667 768 q 681 807 681 792 l 681 829 q 670 864 681 853 q 638 875 660 875 l 214 875 l 214 861 l 638 861 q 658 855 649 861 q 667 829 667 849 l 667 810 q 662 788 667 796 q 647 767 657 779 l 240 244 q 224 220 231 232 q 217 193 217 208 l 217 171 q 227 136 217 147 q 260 125 238 125 l 728 125 l 728 139 l 260 139 q 240 145 249 139 q 231 171 231 151 l 231 190 q 235 213 231 204 q 250 233 240 221 l 657 756 m 713 1106 l 228 1046 q 192 1056 204 1043 q 181 1092 181 1068 l 181 1225 q 192 1262 181 1251 q 231 1275 204 1272 l 715 1335 q 751 1325 739 1338 q 763 1289 763 1313 l 763 1156 q 751 1119 763 1129 q 713 1106 739 1108 m 306 1176 l 306 1163 l 638 1204 l 638 1218 l 306 1176 z "},"Ż":{"ha":917,"x_min":64,"x_max":853,"o":"m 803 0 l 114 0 q 76 12 88 0 q 64 50 64 24 l 64 236 q 72 283 64 263 q 99 322 81 303 l 436 732 l 139 732 q 101 744 113 732 q 89 782 89 756 l 89 950 q 101 988 89 976 q 139 1000 113 1000 l 778 1000 q 816 988 804 1000 q 828 950 828 976 l 828 743 q 819 695 828 715 q 793 656 811 675 l 471 265 l 803 265 q 841 253 829 265 q 853 215 853 242 l 853 50 q 841 12 853 24 q 803 0 829 0 m 657 756 q 674 780 667 768 q 681 807 681 792 l 681 829 q 670 864 681 853 q 638 875 660 875 l 214 875 l 214 861 l 638 861 q 658 855 649 861 q 667 829 667 849 l 667 810 q 662 788 667 796 q 647 767 657 779 l 240 244 q 224 220 231 232 q 217 193 217 208 l 217 171 q 227 136 217 147 q 260 125 238 125 l 728 125 l 728 139 l 260 139 q 240 145 249 139 q 231 171 231 151 l 231 190 q 235 213 231 204 q 250 233 240 221 l 657 756 m 569 1056 l 350 1056 q 312 1067 324 1056 q 300 1106 300 1079 l 300 1282 q 312 1320 300 1308 q 350 1332 324 1332 l 569 1332 q 608 1320 596 1332 q 619 1282 619 1308 l 619 1106 q 608 1067 619 1079 q 569 1056 596 1056 m 467 1153 l 467 1235 l 453 1235 l 453 1153 l 467 1153 z "},"Ž":{"ha":917,"x_min":64,"x_max":853,"o":"m 803 0 l 114 0 q 76 12 88 0 q 64 50 64 24 l 64 236 q 72 283 64 263 q 99 322 81 303 l 436 732 l 139 732 q 101 744 113 732 q 89 782 89 756 l 89 950 q 101 988 89 976 q 139 1000 113 1000 l 778 1000 q 816 988 804 1000 q 828 950 828 976 l 828 743 q 819 695 828 715 q 793 656 811 675 l 471 265 l 803 265 q 841 253 829 265 q 853 215 853 242 l 853 50 q 841 12 853 24 q 803 0 829 0 m 657 756 q 674 780 667 768 q 681 807 681 792 l 681 829 q 670 864 681 853 q 638 875 660 875 l 214 875 l 214 861 l 638 861 q 658 855 649 861 q 667 829 667 849 l 667 810 q 662 788 667 796 q 647 767 657 779 l 240 244 q 224 220 231 232 q 217 193 217 208 l 217 171 q 227 136 217 147 q 260 125 238 125 l 728 125 l 728 139 l 260 139 q 240 145 249 139 q 231 171 231 151 l 231 190 q 235 213 231 204 q 250 233 240 221 l 657 756 m 501 1294 l 692 1350 q 738 1353 726 1361 q 749 1307 749 1344 l 749 1194 q 737 1146 749 1157 q 692 1121 725 1135 l 514 1057 q 487 1049 501 1051 q 460 1044 472 1046 q 436 1046 447 1044 q 415 1051 425 1047 l 225 1121 q 178 1146 190 1135 q 167 1194 167 1157 l 167 1307 q 178 1353 167 1344 q 225 1350 189 1361 l 415 1294 q 458 1289 439 1289 q 501 1294 478 1289 m 292 1221 l 292 1206 l 407 1168 q 431 1163 419 1165 q 457 1160 442 1160 q 483 1163 472 1160 q 507 1168 494 1165 l 622 1206 l 622 1221 l 501 1182 q 481 1176 492 1179 q 457 1174 471 1174 q 433 1176 443 1174 q 413 1182 422 1179 l 292 1221 z "},"Æ":{"ha":1396,"x_min":75,"x_max":1328,"o":"m 233 404 q 236 472 233 443 q 249 526 239 500 l 351 808 q 374 850 361 839 q 408 861 388 861 l 763 861 l 763 379 l 233 379 l 233 404 m 464 714 l 392 497 l 611 497 l 611 738 l 490 738 q 474 733 479 738 q 464 714 469 728 m 219 125 l 233 125 l 233 365 l 763 365 l 763 125 l 1203 125 l 1203 139 l 776 139 l 776 500 l 1090 500 l 1090 514 l 776 514 l 776 861 l 1203 861 l 1203 875 l 408 875 q 367 863 383 875 q 338 814 351 850 l 235 532 q 222 474 225 503 q 219 404 219 444 l 219 125 m 378 50 q 366 12 378 24 q 328 0 354 0 l 125 0 q 87 12 99 0 q 75 50 75 24 l 75 403 q 85 512 75 464 q 115 611 96 560 l 236 943 q 267 988 247 975 q 322 1000 288 1000 l 1278 1000 q 1316 988 1304 1000 q 1328 950 1328 976 l 1328 788 q 1316 749 1328 761 q 1278 738 1304 738 l 926 738 l 926 631 l 1165 631 q 1203 619 1192 631 q 1215 581 1215 607 l 1215 432 q 1203 394 1215 406 q 1165 382 1192 382 l 926 382 l 926 263 l 1278 263 q 1316 251 1304 263 q 1328 213 1328 239 l 1328 50 q 1316 12 1328 24 q 1278 0 1304 0 l 661 0 q 623 12 635 0 q 611 50 611 24 l 611 244 l 378 244 l 378 50 z "},"Ð":{"ha":1050,"x_min":28,"x_max":969,"o":"m 628 0 l 160 0 q 122 12 133 0 q 110 50 110 24 l 110 368 l 78 368 q 40 380 51 368 q 28 418 28 392 l 28 567 q 40 605 28 593 q 78 617 51 617 l 110 617 l 110 950 q 122 988 110 976 q 160 1000 133 1000 l 628 1000 q 897 921 824 1000 q 969 717 969 842 l 969 283 q 897 79 969 158 q 628 0 824 0 m 258 125 l 597 125 q 713 140 668 125 q 781 179 757 154 q 812 239 804 204 q 819 314 819 274 l 819 682 q 811 758 819 722 q 779 819 803 793 q 712 860 756 844 q 597 875 668 875 l 258 875 l 258 499 l 153 499 l 153 485 l 258 485 l 258 125 m 403 485 l 403 499 l 272 499 l 272 861 l 597 861 q 703 847 663 861 q 767 810 744 833 q 797 753 789 786 q 806 682 806 719 l 806 314 q 798 244 806 276 q 768 188 790 211 q 705 152 746 165 q 597 139 664 139 l 272 139 l 272 485 l 403 485 m 421 263 l 590 263 q 644 283 632 263 q 656 331 656 303 l 656 668 q 644 715 656 694 q 590 735 632 735 l 421 735 l 421 617 l 478 617 q 516 605 504 617 q 528 567 528 593 l 528 418 q 516 380 528 392 q 478 368 504 368 l 421 368 l 421 263 z "},"Ø":{"ha":1024,"x_min":81,"x_max":943,"o":"m 231 294 l 231 704 q 243 775 231 743 q 288 830 256 807 q 374 865 319 853 q 510 878 428 878 q 592 874 556 878 q 658 863 629 869 l 351 139 q 256 199 282 158 q 231 294 231 240 m 510 121 q 429 125 465 121 q 365 135 393 129 l 671 858 q 765 799 739 839 q 792 704 792 758 l 792 294 q 733 169 792 217 q 510 121 675 121 m 368 686 l 368 385 l 529 764 l 513 764 q 394 742 419 764 q 368 686 368 719 m 513 233 q 632 256 607 233 q 657 313 657 278 l 657 619 l 493 233 l 513 233 m 319 28 l 360 122 q 426 111 389 115 q 510 107 464 107 q 653 120 596 107 q 744 158 711 133 q 792 218 778 183 q 806 294 806 253 l 806 704 q 778 806 806 763 q 676 872 750 850 l 719 972 l 704 972 l 664 876 q 595 888 633 883 q 510 892 557 892 q 367 878 424 892 q 276 840 310 865 q 230 781 243 815 q 217 704 217 746 l 217 294 q 244 191 217 235 q 346 126 272 147 l 304 28 l 319 28 m 410 -47 q 385 -83 397 -69 q 346 -97 372 -97 l 186 -97 q 149 -83 160 -97 q 150 -47 138 -69 l 188 43 q 104 137 128 81 q 81 263 81 193 l 81 736 q 99 852 81 800 q 166 942 118 904 q 299 1000 214 979 q 513 1021 383 1021 q 558 1020 536 1021 q 601 1018 581 1019 l 614 1047 q 639 1083 626 1069 q 678 1097 651 1097 l 838 1097 q 875 1083 864 1097 q 874 1047 886 1069 l 836 957 q 920 863 897 919 q 943 736 943 807 l 943 263 q 924 147 943 199 q 858 58 906 94 q 726 0 810 21 q 513 -21 642 -21 q 466 -20 489 -21 q 422 -18 443 -19 l 410 -47 z "},"Þ":{"ha":961,"x_min":96,"x_max":899,"o":"m 361 0 l 146 0 q 108 12 119 0 q 96 50 96 24 l 96 950 q 108 988 96 976 q 146 1000 119 1000 l 361 1000 q 399 988 388 1000 q 411 950 411 976 l 411 861 l 571 861 q 829 786 760 861 q 899 590 899 711 l 899 413 q 829 217 899 292 q 571 142 760 142 l 411 142 l 411 50 q 399 12 411 24 q 361 0 388 0 m 246 125 l 260 125 l 260 260 l 546 260 q 652 274 611 260 q 715 312 693 288 q 746 370 738 336 q 754 444 754 404 l 754 549 q 746 624 754 589 q 715 683 738 658 q 652 723 693 708 q 546 738 611 738 l 260 738 l 260 875 l 246 875 l 246 125 m 260 274 l 260 724 l 546 724 q 645 710 607 724 q 704 674 683 697 q 733 618 725 650 q 740 549 740 586 l 740 444 q 733 376 740 407 q 704 322 725 344 q 645 286 683 299 q 546 274 607 274 l 260 274 m 408 601 l 408 392 l 533 392 q 586 413 574 392 q 599 460 599 433 l 599 533 q 586 581 599 560 q 533 601 574 601 l 408 601 z "},"Đ":{"ha":1050,"x_min":28,"x_max":969,"o":"m 628 0 l 160 0 q 122 12 133 0 q 110 50 110 24 l 110 368 l 78 368 q 40 380 51 368 q 28 418 28 392 l 28 567 q 40 605 28 593 q 78 617 51 617 l 110 617 l 110 950 q 122 988 110 976 q 160 1000 133 1000 l 628 1000 q 897 921 824 1000 q 969 717 969 842 l 969 283 q 897 79 969 158 q 628 0 824 0 m 258 125 l 597 125 q 713 140 668 125 q 781 179 757 154 q 812 239 804 204 q 819 314 819 274 l 819 682 q 811 758 819 722 q 779 819 803 793 q 712 860 756 844 q 597 875 668 875 l 258 875 l 258 499 l 153 499 l 153 485 l 258 485 l 258 125 m 403 485 l 403 499 l 272 499 l 272 861 l 597 861 q 703 847 663 861 q 767 810 744 833 q 797 753 789 786 q 806 682 806 719 l 806 314 q 798 244 806 276 q 768 188 790 211 q 705 152 746 165 q 597 139 664 139 l 272 139 l 272 485 l 403 485 m 421 263 l 590 263 q 644 283 632 263 q 656 331 656 303 l 656 668 q 644 715 656 694 q 590 735 632 735 l 421 735 l 421 617 l 478 617 q 516 605 504 617 q 528 567 528 593 l 528 418 q 516 380 528 392 q 478 368 504 368 l 421 368 l 421 263 z "},"Ħ":{"ha":1082,"x_min":42,"x_max":1040,"o":"m 810 700 l 810 350 l 272 350 l 272 700 l 810 700 m 421 482 l 661 482 l 661 590 l 421 590 l 421 482 m 258 125 l 272 125 l 272 336 l 810 336 l 810 125 l 824 125 l 824 700 l 915 700 l 915 714 l 824 714 l 824 875 l 810 875 l 810 714 l 272 714 l 272 875 l 258 875 l 258 714 l 167 714 l 167 700 l 258 700 l 258 125 m 421 50 q 409 12 421 24 q 371 0 397 0 l 160 0 q 122 12 133 0 q 110 50 110 24 l 110 590 l 92 590 q 53 602 65 590 q 42 640 42 614 l 42 775 q 53 813 42 801 q 92 825 65 825 l 110 825 l 110 950 q 122 988 110 976 q 160 1000 133 1000 l 371 1000 q 409 988 397 1000 q 421 950 421 976 l 421 825 l 661 825 l 661 950 q 673 988 661 976 q 711 1000 685 1000 l 922 1000 q 960 988 949 1000 q 972 950 972 976 l 972 825 l 990 825 q 1028 813 1017 825 q 1040 775 1040 801 l 1040 640 q 1028 602 1040 614 q 990 590 1017 590 l 972 590 l 972 50 q 960 12 972 24 q 922 0 949 0 l 711 0 q 673 12 685 0 q 661 50 661 24 l 661 206 l 421 206 l 421 50 z "},"Ĳ":{"ha":1033,"x_min":96,"x_max":944,"o":"m 96 50 l 96 218 q 108 256 96 244 q 146 268 119 268 l 528 268 q 603 290 578 268 q 629 361 629 311 l 629 950 q 641 988 629 976 q 679 1000 653 1000 l 894 1000 q 933 988 921 1000 q 944 950 944 976 l 944 292 q 865 77 944 154 q 649 0 786 0 l 146 0 q 108 12 119 0 q 96 50 96 24 m 361 431 l 146 431 q 108 442 119 431 q 96 481 96 454 l 96 950 q 108 988 96 976 q 146 1000 119 1000 l 361 1000 q 399 988 388 1000 q 411 950 411 976 l 411 481 q 399 442 411 454 q 361 431 388 431 m 260 556 l 260 875 l 246 875 l 246 556 l 260 556 m 583 125 q 692 140 650 125 q 756 185 733 156 q 786 257 778 214 q 794 356 794 300 l 794 875 l 781 875 l 781 356 q 743 194 781 249 q 583 139 706 139 l 221 139 l 221 125 l 583 125 z "},"Ŀ":{"ha":965,"x_min":96,"x_max":903,"o":"m 853 0 l 146 0 q 108 12 119 0 q 96 50 96 24 l 96 950 q 108 988 96 976 q 146 1000 119 1000 l 361 1000 q 399 988 388 1000 q 411 950 411 976 l 411 263 l 601 263 l 601 376 q 613 415 601 403 q 651 426 625 426 l 853 426 q 891 415 879 426 q 903 376 903 403 l 903 50 q 891 12 903 24 q 853 0 879 0 m 247 125 l 758 125 l 758 301 l 744 301 l 744 139 l 261 139 l 261 875 l 247 875 l 247 125 m 839 517 l 638 517 q 599 528 611 517 q 588 567 588 540 l 588 743 q 599 781 588 769 q 638 793 611 793 l 839 793 q 877 781 865 793 q 889 743 889 769 l 889 567 q 877 528 889 540 q 839 517 865 517 m 732 614 l 746 614 l 746 690 l 732 690 l 732 614 z "},"Ł":{"ha":979,"x_min":28,"x_max":917,"o":"m 867 0 l 160 0 q 122 12 133 0 q 110 50 110 24 l 110 401 l 78 396 q 40 406 51 392 q 28 446 28 419 l 28 594 q 40 631 28 621 q 78 644 51 640 l 110 650 l 110 950 q 122 988 110 976 q 160 1000 133 1000 l 375 1000 q 413 988 401 1000 q 425 950 425 976 l 425 701 l 506 714 q 544 704 532 718 q 556 664 556 690 l 556 515 q 544 479 556 489 q 506 465 532 469 l 425 453 l 425 263 l 615 263 l 615 488 q 627 526 615 514 q 665 538 639 538 l 867 538 q 905 526 893 538 q 917 488 917 514 l 917 50 q 905 12 917 24 q 867 0 893 0 m 261 125 l 772 125 l 772 413 l 758 413 l 758 139 l 275 139 l 275 546 l 431 571 l 431 585 l 275 560 l 275 875 l 261 875 l 261 557 l 153 539 l 153 525 l 261 543 l 261 125 z "},"Ŋ":{"ha":1036,"x_min":89,"x_max":947,"o":"m 89 738 q 108 853 89 801 q 174 942 126 906 q 306 1000 222 979 q 518 1021 389 1021 q 731 1000 647 1021 q 862 942 814 979 q 928 853 910 906 q 947 738 947 801 l 947 158 q 874 -46 947 33 q 606 -125 801 -125 l 543 -125 q 505 -113 517 -125 q 493 -75 493 -101 l 493 90 q 505 128 493 117 q 543 140 517 140 l 572 140 q 619 159 608 140 q 629 207 629 178 l 629 683 q 608 730 629 711 q 515 749 588 749 q 421 730 442 749 q 400 683 400 711 l 400 50 q 388 12 400 24 q 350 0 376 0 l 139 0 q 101 12 113 0 q 89 50 89 24 l 89 738 m 618 1 q 754 34 714 1 q 794 139 794 67 l 794 704 q 737 840 794 788 q 517 892 679 892 q 296 840 354 892 q 238 704 238 788 l 238 125 l 251 125 l 251 704 q 307 830 251 782 q 517 878 363 878 q 726 830 671 878 q 781 704 781 782 l 781 139 q 742 44 781 72 q 618 15 703 15 l 618 1 z "},"Œ":{"ha":1410,"x_min":81,"x_max":1342,"o":"m 422 0 q 153 79 226 0 q 81 283 81 158 l 81 717 q 153 921 81 842 q 422 1000 226 1000 l 1292 1000 q 1330 988 1318 1000 q 1342 950 1342 976 l 1342 788 q 1330 749 1342 761 q 1292 738 1318 738 l 926 738 l 926 631 l 1179 631 q 1217 619 1206 631 q 1229 581 1229 607 l 1229 432 q 1217 394 1229 406 q 1179 382 1206 382 l 926 382 l 926 263 l 1292 263 q 1330 251 1318 263 q 1342 213 1342 239 l 1342 50 q 1330 12 1342 24 q 1292 0 1318 0 l 422 0 m 453 125 l 1203 125 l 1203 139 l 776 139 l 776 500 l 1090 500 l 1090 514 l 776 514 l 776 861 l 1203 861 l 1203 875 l 453 875 q 338 860 382 875 q 271 819 294 844 q 239 758 247 793 q 231 682 231 722 l 231 314 q 238 239 231 274 q 269 179 246 204 q 338 140 293 154 q 453 125 382 125 m 453 139 q 347 151 388 139 q 284 186 307 164 q 253 240 261 208 q 244 307 244 271 l 244 682 q 253 753 244 719 q 283 810 261 786 q 347 847 306 833 q 453 861 388 861 l 763 861 l 763 139 l 453 139 m 611 263 l 611 735 l 460 735 q 406 715 418 735 q 394 668 394 694 l 394 331 q 406 283 394 303 q 460 263 418 263 l 611 263 z "},"Ŧ":{"ha":911,"x_min":39,"x_max":872,"o":"m 618 50 q 606 12 618 24 q 568 0 594 0 l 343 0 q 305 12 317 0 q 293 50 293 24 l 293 308 l 186 308 q 148 320 160 308 q 136 358 136 332 l 136 507 q 148 545 136 533 q 186 557 160 557 l 293 557 l 293 732 l 89 732 q 51 744 63 732 q 39 782 39 756 l 39 950 q 51 988 39 976 q 89 1000 63 1000 l 822 1000 q 860 988 849 1000 q 872 950 872 976 l 872 782 q 860 744 872 756 q 822 732 849 732 l 618 732 l 618 557 l 724 557 q 762 545 750 557 q 774 507 774 533 l 774 358 q 762 320 774 332 q 724 308 750 308 l 618 308 l 618 50 m 649 425 l 649 439 l 463 439 l 463 861 l 747 861 l 747 875 l 164 875 l 164 861 l 449 861 l 449 439 l 261 439 l 261 425 l 449 425 l 449 125 l 463 125 l 463 425 l 649 425 z "},"ẞ":{"ha":1054,"x_min":96,"x_max":1007,"o":"m 268 125 l 268 861 l 599 861 q 684 826 663 861 q 688 722 706 790 l 626 506 l 710 506 q 808 477 774 506 q 842 383 842 449 l 842 261 q 808 168 842 197 q 697 139 775 139 l 619 139 l 619 125 l 697 125 q 819 158 783 125 q 856 261 856 190 l 856 383 q 819 487 856 454 q 710 519 782 519 l 646 519 l 701 719 q 696 836 722 797 q 599 875 669 875 l 254 875 l 254 125 l 268 125 m 411 50 q 399 12 411 24 q 361 0 388 0 l 146 0 q 108 12 119 0 q 96 50 96 24 l 96 950 q 108 988 96 975 q 146 1000 121 1000 l 661 1000 q 838 925 783 1000 q 861 735 893 850 l 829 619 q 955 551 903 606 q 1007 401 1007 497 l 1007 231 q 934 63 1007 125 q 736 0 861 0 l 544 0 q 506 12 518 0 q 494 50 494 24 l 494 213 q 506 251 494 239 q 544 263 518 263 l 653 263 q 680 270 669 263 q 690 294 690 278 l 690 363 q 680 387 690 379 q 653 394 669 394 l 553 394 q 506 414 519 394 q 501 472 493 433 l 547 699 q 544 726 550 714 q 521 738 539 738 l 411 738 l 411 50 z "},"":{"ha":1022,"x_min":89,"x_max":933,"o":"m 256 704 q 267 775 256 743 q 306 830 278 807 q 384 865 335 853 q 511 878 433 878 q 639 865 589 878 q 718 830 689 853 q 759 775 747 807 q 771 704 771 743 l 771 390 l 256 390 l 256 704 m 393 690 l 393 511 l 622 511 l 622 690 q 601 737 622 718 q 508 756 581 756 q 414 737 435 756 q 393 690 393 718 m 771 125 l 785 125 l 785 704 q 772 781 785 746 q 729 840 760 815 q 646 878 699 865 q 511 892 593 892 q 377 878 429 892 q 295 840 325 865 q 253 781 265 815 q 242 704 242 746 l 242 125 l 256 125 l 256 376 l 771 376 l 771 125 m 393 50 q 381 12 393 24 q 343 0 369 0 l 139 0 q 101 12 113 0 q 89 50 89 24 l 89 738 q 106 853 89 800 q 170 942 124 906 q 299 1000 217 979 q 510 1021 381 1021 q 722 1000 639 1021 q 851 942 804 979 q 916 853 899 906 q 933 738 933 800 l 933 50 q 922 12 933 24 q 883 0 910 0 l 672 0 q 634 12 646 0 q 622 50 622 24 l 622 257 l 393 257 l 393 50 z "},"":{"ha":1022,"x_min":89,"x_max":933,"o":"m 256 704 q 267 775 256 743 q 306 830 278 807 q 384 865 335 853 q 511 878 433 878 q 639 865 589 878 q 718 830 689 853 q 759 775 747 807 q 771 704 771 743 l 771 390 l 256 390 l 256 704 m 393 690 l 393 511 l 622 511 l 622 690 q 601 737 622 718 q 508 756 581 756 q 414 737 435 756 q 393 690 393 718 m 771 125 l 785 125 l 785 704 q 772 781 785 746 q 729 840 760 815 q 646 878 699 865 q 511 892 593 892 q 377 878 429 892 q 295 840 325 865 q 253 781 265 815 q 242 704 242 746 l 242 125 l 256 125 l 256 376 l 771 376 l 771 125 m 393 50 q 381 12 393 24 q 343 0 369 0 l 139 0 q 101 12 113 0 q 89 50 89 24 l 89 738 q 106 853 89 800 q 170 942 124 906 q 299 1000 217 979 q 510 1021 381 1021 q 722 1000 639 1021 q 851 942 804 979 q 916 853 899 906 q 933 738 933 800 l 933 50 q 922 12 933 24 q 883 0 910 0 l 672 0 q 634 12 646 0 q 622 50 622 24 l 622 257 l 393 257 l 393 50 m 754 1046 l 269 1106 q 231 1119 243 1108 q 219 1156 219 1129 l 219 1289 q 231 1325 219 1313 q 267 1335 243 1338 l 751 1275 q 790 1262 778 1272 q 801 1225 801 1251 l 801 1092 q 790 1056 801 1068 q 754 1046 778 1043 m 344 1204 l 676 1163 l 676 1176 l 344 1218 l 344 1204 z "},"":{"ha":1022,"x_min":89,"x_max":933,"o":"m 256 704 q 267 775 256 743 q 306 830 278 807 q 384 865 335 853 q 511 878 433 878 q 639 865 589 878 q 718 830 689 853 q 759 775 747 807 q 771 704 771 743 l 771 390 l 256 390 l 256 704 m 393 690 l 393 511 l 622 511 l 622 690 q 601 737 622 718 q 508 756 581 756 q 414 737 435 756 q 393 690 393 718 m 771 125 l 785 125 l 785 704 q 772 781 785 746 q 729 840 760 815 q 646 878 699 865 q 511 892 593 892 q 377 878 429 892 q 295 840 325 865 q 253 781 265 815 q 242 704 242 746 l 242 125 l 256 125 l 256 376 l 771 376 l 771 125 m 393 50 q 381 12 393 24 q 343 0 369 0 l 139 0 q 101 12 113 0 q 89 50 89 24 l 89 738 q 106 853 89 800 q 170 942 124 906 q 299 1000 217 979 q 510 1021 381 1021 q 722 1000 639 1021 q 851 942 804 979 q 916 853 899 906 q 933 738 933 800 l 933 50 q 922 12 933 24 q 883 0 910 0 l 672 0 q 634 12 646 0 q 622 50 622 24 l 622 257 l 393 257 l 393 50 m 765 1106 l 281 1046 q 245 1056 257 1043 q 233 1092 233 1068 l 233 1225 q 245 1262 233 1251 q 283 1275 257 1272 l 768 1335 q 803 1325 792 1338 q 815 1289 815 1313 l 815 1156 q 803 1119 815 1129 q 765 1106 792 1108 m 358 1176 l 358 1163 l 690 1204 l 690 1218 l 358 1176 z "},"":{"ha":1022,"x_min":89,"x_max":933,"o":"m 256 704 q 267 775 256 743 q 306 830 278 807 q 384 865 335 853 q 511 878 433 878 q 639 865 589 878 q 718 830 689 853 q 759 775 747 807 q 771 704 771 743 l 771 390 l 256 390 l 256 704 m 393 690 l 393 511 l 622 511 l 622 690 q 601 737 622 718 q 508 756 581 756 q 414 737 435 756 q 393 690 393 718 m 771 125 l 785 125 l 785 704 q 772 781 785 746 q 729 840 760 815 q 646 878 699 865 q 511 892 593 892 q 377 878 429 892 q 295 840 325 865 q 253 781 265 815 q 242 704 242 746 l 242 125 l 256 125 l 256 376 l 771 376 l 771 125 m 393 50 q 381 12 393 24 q 343 0 369 0 l 139 0 q 101 12 113 0 q 89 50 89 24 l 89 738 q 106 853 89 800 q 170 942 124 906 q 299 1000 217 979 q 510 1021 381 1021 q 722 1000 639 1021 q 851 942 804 979 q 916 853 899 906 q 933 738 933 800 l 933 50 q 922 12 933 24 q 883 0 910 0 l 672 0 q 634 12 646 0 q 622 50 622 24 l 622 257 l 393 257 l 393 50 m 467 1107 l 276 1051 q 231 1049 242 1040 q 219 1094 219 1057 l 219 1207 q 231 1256 219 1244 q 276 1281 243 1267 l 454 1344 q 481 1353 467 1350 q 508 1357 496 1356 q 532 1356 521 1357 q 553 1350 543 1354 l 743 1281 q 790 1256 778 1267 q 801 1207 801 1244 l 801 1094 q 790 1049 801 1057 q 743 1051 779 1040 l 553 1107 q 510 1113 529 1113 q 467 1107 490 1113 m 675 1181 l 675 1196 l 560 1233 q 536 1239 547 1236 q 510 1242 525 1242 q 483 1239 494 1242 q 460 1233 472 1236 l 344 1196 l 344 1181 l 465 1219 q 485 1225 475 1222 q 510 1228 496 1228 q 534 1225 524 1228 q 554 1219 544 1222 l 675 1181 z "},"":{"ha":1022,"x_min":89,"x_max":933,"o":"m 256 704 q 267 775 256 743 q 306 830 278 807 q 384 865 335 853 q 511 878 433 878 q 639 865 589 878 q 718 830 689 853 q 759 775 747 807 q 771 704 771 743 l 771 390 l 256 390 l 256 704 m 393 690 l 393 511 l 622 511 l 622 690 q 601 737 622 718 q 508 756 581 756 q 414 737 435 756 q 393 690 393 718 m 771 125 l 785 125 l 785 704 q 772 781 785 746 q 729 840 760 815 q 646 878 699 865 q 511 892 593 892 q 377 878 429 892 q 295 840 325 865 q 253 781 265 815 q 242 704 242 746 l 242 125 l 256 125 l 256 376 l 771 376 l 771 125 m 393 50 q 381 12 393 24 q 343 0 369 0 l 139 0 q 101 12 113 0 q 89 50 89 24 l 89 738 q 106 853 89 800 q 170 942 124 906 q 299 1000 217 979 q 510 1021 381 1021 q 722 1000 639 1021 q 851 942 804 979 q 916 853 899 906 q 933 738 933 800 l 933 50 q 922 12 933 24 q 883 0 910 0 l 672 0 q 634 12 646 0 q 622 50 622 24 l 622 257 l 393 257 l 393 50 m 510 1061 l 471 1067 q 406 1074 432 1072 q 358 1074 379 1076 q 317 1067 338 1072 q 269 1054 297 1063 q 232 1056 244 1047 q 219 1090 219 1064 l 219 1231 q 233 1267 219 1257 q 269 1288 246 1278 q 325 1302 303 1297 q 369 1307 347 1307 q 417 1303 390 1307 q 486 1294 444 1300 l 510 1292 l 540 1288 q 613 1278 586 1281 q 660 1276 640 1275 q 700 1283 681 1278 q 750 1299 719 1289 q 788 1297 775 1306 q 800 1263 800 1289 l 800 1122 q 787 1085 800 1096 q 750 1065 774 1075 q 694 1051 717 1056 q 650 1046 672 1046 q 601 1049 628 1046 q 532 1058 574 1053 l 510 1061 m 675 1168 q 617 1168 647 1165 q 533 1179 586 1171 l 511 1182 l 472 1188 q 397 1195 425 1193 q 344 1194 368 1197 l 344 1179 q 395 1182 367 1183 q 469 1174 424 1181 l 508 1168 l 531 1165 q 615 1154 583 1157 q 675 1154 647 1151 l 675 1168 z "},"":{"ha":1022,"x_min":89,"x_max":933,"o":"m 256 704 q 267 775 256 743 q 306 830 278 807 q 384 865 335 853 q 511 878 433 878 q 639 865 589 878 q 718 830 689 853 q 759 775 747 807 q 771 704 771 743 l 771 390 l 256 390 l 256 704 m 393 690 l 393 511 l 622 511 l 622 690 q 601 737 622 718 q 508 756 581 756 q 414 737 435 756 q 393 690 393 718 m 771 125 l 785 125 l 785 704 q 772 781 785 746 q 729 840 760 815 q 646 878 699 865 q 511 892 593 892 q 377 878 429 892 q 295 840 325 865 q 253 781 265 815 q 242 704 242 746 l 242 125 l 256 125 l 256 376 l 771 376 l 771 125 m 393 50 q 381 12 393 24 q 343 0 369 0 l 139 0 q 101 12 113 0 q 89 50 89 24 l 89 738 q 106 853 89 800 q 170 942 124 906 q 299 1000 217 979 q 510 1021 381 1021 q 722 1000 639 1021 q 851 942 804 979 q 916 853 899 906 q 933 738 933 800 l 933 50 q 922 12 933 24 q 883 0 910 0 l 672 0 q 634 12 646 0 q 622 50 622 24 l 622 257 l 393 257 l 393 50 m 425 1056 l 233 1056 q 198 1067 210 1056 q 186 1101 186 1078 l 186 1269 q 198 1304 186 1293 q 233 1315 210 1315 l 425 1315 q 460 1304 449 1315 q 471 1269 471 1293 l 471 1101 q 460 1067 471 1078 q 425 1056 449 1056 m 783 1056 l 592 1056 q 557 1067 568 1056 q 546 1101 546 1078 l 546 1269 q 557 1304 546 1293 q 592 1315 568 1315 l 783 1315 q 818 1304 807 1315 q 829 1269 829 1293 l 829 1101 q 818 1067 829 1078 q 783 1056 807 1056 m 336 1153 l 336 1218 l 322 1218 l 322 1153 l 336 1153 m 694 1153 l 694 1218 l 681 1218 l 681 1153 l 694 1153 z "},"":{"ha":1022,"x_min":89,"x_max":933,"o":"m 313 1056 q 320 999 313 1025 q 349 955 328 974 q 408 926 369 936 q 508 917 447 917 q 669 955 632 917 q 707 1056 707 993 l 707 1118 q 669 1219 707 1179 q 508 1258 632 1258 q 408 1248 447 1258 q 349 1219 369 1238 q 320 1175 328 1201 q 313 1118 313 1149 l 313 1056 m 508 1244 q 656 1210 619 1244 q 693 1118 693 1175 l 693 1056 q 656 964 693 997 q 508 931 619 931 q 362 964 397 931 q 326 1056 326 997 l 326 1118 q 362 1210 326 1176 q 508 1244 397 1244 m 590 1061 l 590 1110 q 575 1151 590 1136 q 508 1165 560 1165 q 443 1151 457 1165 q 429 1110 429 1136 l 429 1061 q 443 1016 429 1031 q 508 1001 457 1001 q 575 1016 560 1001 q 590 1061 590 1031 m 256 704 q 267 775 256 743 q 306 830 278 807 q 384 865 335 853 q 511 878 433 878 q 639 865 589 878 q 718 830 689 853 q 759 775 747 807 q 771 704 771 743 l 771 390 l 256 390 l 256 704 m 393 690 l 393 511 l 622 511 l 622 690 q 601 737 622 718 q 508 756 581 756 q 414 737 435 756 q 393 690 393 718 m 771 125 l 785 125 l 785 704 q 772 781 785 746 q 729 840 760 815 q 646 878 699 865 q 511 892 593 892 q 377 878 429 892 q 295 840 325 865 q 253 781 265 815 q 242 704 242 746 l 242 125 l 256 125 l 256 376 l 771 376 l 771 125 m 393 50 q 381 12 393 24 q 343 0 369 0 l 139 0 q 101 12 113 0 q 89 50 89 24 l 89 738 q 117 878 89 817 q 225 975 146 939 q 210 1020 215 996 q 206 1071 206 1044 l 206 1151 q 219 1233 206 1196 q 266 1295 232 1269 q 358 1335 300 1321 q 507 1350 417 1350 q 656 1335 597 1350 q 748 1295 714 1321 q 795 1233 782 1269 q 808 1151 808 1196 l 808 1071 q 804 1022 808 1044 q 790 978 800 999 q 903 880 874 943 q 933 738 933 817 l 933 50 q 922 12 933 24 q 883 0 910 0 l 672 0 q 634 12 646 0 q 622 50 622 24 l 622 257 l 393 257 l 393 50 z "},"":{"ha":1022,"x_min":89,"x_max":933,"o":"m 256 704 q 267 775 256 743 q 306 830 278 807 q 384 865 335 853 q 511 878 433 878 q 639 865 589 878 q 718 830 689 853 q 759 775 747 807 q 771 704 771 743 l 771 390 l 256 390 l 256 704 m 393 690 l 393 511 l 622 511 l 622 690 q 601 737 622 718 q 508 756 581 756 q 414 737 435 756 q 393 690 393 718 m 771 125 l 785 125 l 785 704 q 772 781 785 746 q 729 840 760 815 q 646 878 699 865 q 511 892 593 892 q 377 878 429 892 q 295 840 325 865 q 253 781 265 815 q 242 704 242 746 l 242 125 l 256 125 l 256 376 l 771 376 l 771 125 m 393 50 q 381 12 393 24 q 343 0 369 0 l 139 0 q 101 12 113 0 q 89 50 89 24 l 89 738 q 106 853 89 800 q 170 942 124 906 q 299 1000 217 979 q 510 1021 381 1021 q 722 1000 639 1021 q 851 942 804 979 q 916 853 899 906 q 933 738 933 800 l 933 50 q 922 12 933 24 q 883 0 910 0 l 672 0 q 634 12 646 0 q 622 50 622 24 l 622 257 l 393 257 l 393 50 m 751 1056 l 269 1056 q 231 1067 243 1056 q 219 1106 219 1079 l 219 1235 q 231 1273 219 1261 q 269 1285 243 1285 l 751 1285 q 790 1273 778 1285 q 801 1235 801 1261 l 801 1106 q 790 1067 801 1079 q 751 1056 778 1056 m 344 1176 l 344 1163 l 676 1163 l 676 1176 l 344 1176 z "},"":{"ha":1022,"x_min":89,"x_max":933,"o":"m 256 704 q 267 775 256 743 q 306 830 278 807 q 384 865 335 853 q 511 878 433 878 q 639 865 589 878 q 718 830 689 853 q 759 775 747 807 q 771 704 771 743 l 771 390 l 256 390 l 256 704 m 393 690 l 393 511 l 622 511 l 622 690 q 601 737 622 718 q 508 756 581 756 q 414 737 435 756 q 393 690 393 718 m 771 125 l 785 125 l 785 704 q 772 781 785 746 q 729 840 760 815 q 646 878 699 865 q 511 892 593 892 q 377 878 429 892 q 295 840 325 865 q 253 781 265 815 q 242 704 242 746 l 242 125 l 256 125 l 256 376 l 771 376 l 771 125 m 393 50 q 381 12 393 24 q 343 0 369 0 l 139 0 q 101 12 113 0 q 89 50 89 24 l 89 738 q 106 853 89 800 q 170 942 124 906 q 299 1000 217 979 q 510 1021 381 1021 q 722 1000 639 1021 q 851 942 804 979 q 916 853 899 906 q 933 738 933 800 l 933 50 q 922 12 933 24 q 883 0 910 0 l 672 0 q 634 12 646 0 q 622 50 622 24 l 622 257 l 393 257 l 393 50 m 813 1246 q 799 1165 813 1201 q 752 1102 786 1128 q 660 1062 718 1076 q 511 1047 601 1047 q 363 1062 421 1047 q 270 1102 304 1076 q 223 1165 236 1128 q 210 1246 210 1201 l 210 1307 q 222 1345 210 1333 q 260 1357 233 1357 l 393 1357 q 424 1348 415 1357 q 433 1314 433 1339 l 433 1285 q 447 1252 433 1265 q 513 1239 461 1239 q 579 1252 564 1239 q 594 1285 594 1265 l 594 1314 q 603 1348 594 1339 q 636 1357 613 1357 l 763 1357 q 801 1345 789 1357 q 813 1307 813 1333 l 813 1246 m 697 1260 l 697 1247 q 660 1180 697 1210 q 510 1150 622 1150 q 363 1180 397 1150 q 329 1247 329 1210 l 329 1260 l 315 1260 l 315 1247 q 322 1208 315 1228 q 348 1172 328 1188 q 407 1146 368 1156 q 510 1136 446 1136 q 614 1146 574 1136 q 675 1172 654 1156 q 703 1208 696 1188 q 711 1247 711 1228 l 711 1260 l 697 1260 z "},"":{"ha":1022,"x_min":89,"x_max":933,"o":"m 933 -211 q 924 -248 933 -237 q 888 -258 914 -258 l 733 -258 q 612 -212 644 -258 q 593 -71 579 -167 l 622 93 l 622 257 l 393 257 l 393 50 q 381 12 393 24 q 343 0 369 0 l 139 0 q 101 12 113 0 q 89 50 89 24 l 89 738 q 106 853 89 800 q 170 942 124 906 q 299 1000 217 979 q 510 1021 381 1021 q 722 1000 639 1021 q 851 942 804 979 q 916 853 899 906 q 933 738 933 800 l 933 50 q 922 12 933 24 q 883 0 910 0 l 836 0 l 826 -64 l 883 -64 q 923 -74 913 -64 q 933 -111 933 -85 l 933 -211 m 775 -161 l 808 -161 l 808 -147 l 775 -147 q 722 -124 732 -147 q 718 -60 713 -101 l 735 58 q 747 100 739 89 q 781 125 754 111 l 785 125 l 785 704 q 772 781 785 746 q 729 840 760 815 q 646 878 699 865 q 511 892 593 892 q 377 878 429 892 q 295 840 325 865 q 253 781 265 815 q 242 704 242 746 l 242 125 l 256 125 l 256 376 l 771 376 l 771 135 q 735 106 743 119 q 721 58 726 92 l 704 -57 q 710 -135 696 -108 q 775 -161 724 -161 m 511 878 q 639 865 589 878 q 718 830 689 853 q 759 775 747 807 q 771 704 771 743 l 771 390 l 256 390 l 256 704 q 267 775 256 743 q 306 830 278 807 q 384 865 335 853 q 511 878 433 878 m 393 511 l 622 511 l 622 690 q 601 737 622 718 q 508 756 581 756 q 414 737 435 756 q 393 690 393 718 l 393 511 z "},"":{"ha":893,"x_min":81,"x_max":825,"o":"m 825 50 q 813 12 825 24 q 775 0 801 0 l 422 0 q 153 79 226 0 q 81 283 81 158 l 81 715 q 153 921 81 842 q 422 1000 226 1000 l 775 1000 q 813 988 801 1000 q 825 950 825 976 l 825 788 q 813 749 825 761 q 775 738 801 738 l 468 738 q 399 716 414 738 q 383 668 383 694 l 383 631 l 664 631 q 702 619 690 631 q 714 581 714 607 l 714 432 q 702 394 714 406 q 664 382 690 382 l 383 382 l 383 329 q 399 281 383 300 q 468 263 414 263 l 775 263 q 813 251 801 263 q 825 213 825 239 l 825 50 m 700 139 l 447 139 q 281 176 322 139 q 239 304 239 214 l 239 499 l 603 499 l 603 513 l 239 513 l 239 693 q 282 823 239 785 q 447 861 325 861 l 700 861 l 700 875 l 447 875 q 269 833 314 875 q 225 693 225 792 l 225 304 q 269 167 225 208 q 447 125 313 125 l 700 125 l 700 139 z "},"":{"ha":893,"x_min":81,"x_max":825,"o":"m 825 50 q 813 12 825 24 q 775 0 801 0 l 422 0 q 153 79 226 0 q 81 283 81 158 l 81 715 q 153 921 81 842 q 422 1000 226 1000 l 775 1000 q 813 988 801 1000 q 825 950 825 976 l 825 788 q 813 749 825 761 q 775 738 801 738 l 468 738 q 399 716 414 738 q 383 668 383 694 l 383 631 l 664 631 q 702 619 690 631 q 714 581 714 607 l 714 432 q 702 394 714 406 q 664 382 690 382 l 383 382 l 383 329 q 399 281 383 300 q 468 263 414 263 l 775 263 q 813 251 801 263 q 825 213 825 239 l 825 50 m 700 139 l 447 139 q 281 176 322 139 q 239 304 239 214 l 239 499 l 603 499 l 603 513 l 239 513 l 239 693 q 282 823 239 785 q 447 861 325 861 l 700 861 l 700 875 l 447 875 q 269 833 314 875 q 225 693 225 792 l 225 304 q 269 167 225 208 q 447 125 313 125 l 700 125 l 700 139 m 711 1046 l 226 1106 q 188 1119 200 1108 q 176 1156 176 1129 l 176 1289 q 188 1325 176 1313 q 224 1335 200 1338 l 708 1275 q 747 1262 735 1272 q 758 1225 758 1251 l 758 1092 q 747 1056 758 1068 q 711 1046 735 1043 m 301 1204 l 633 1163 l 633 1176 l 301 1218 l 301 1204 z "},"":{"ha":893,"x_min":81,"x_max":825,"o":"m 825 50 q 813 12 825 24 q 775 0 801 0 l 422 0 q 153 79 226 0 q 81 283 81 158 l 81 715 q 153 921 81 842 q 422 1000 226 1000 l 775 1000 q 813 988 801 1000 q 825 950 825 976 l 825 788 q 813 749 825 761 q 775 738 801 738 l 468 738 q 399 716 414 738 q 383 668 383 694 l 383 631 l 664 631 q 702 619 690 631 q 714 581 714 607 l 714 432 q 702 394 714 406 q 664 382 690 382 l 383 382 l 383 329 q 399 281 383 300 q 468 263 414 263 l 775 263 q 813 251 801 263 q 825 213 825 239 l 825 50 m 700 139 l 447 139 q 281 176 322 139 q 239 304 239 214 l 239 499 l 603 499 l 603 513 l 239 513 l 239 693 q 282 823 239 785 q 447 861 325 861 l 700 861 l 700 875 l 447 875 q 269 833 314 875 q 225 693 225 792 l 225 304 q 269 167 225 208 q 447 125 313 125 l 700 125 l 700 139 m 736 1106 l 251 1046 q 216 1056 228 1043 q 204 1092 204 1068 l 204 1225 q 216 1262 204 1251 q 254 1275 228 1272 l 739 1335 q 774 1325 763 1338 q 786 1289 786 1313 l 786 1156 q 774 1119 786 1129 q 736 1106 763 1108 m 329 1176 l 329 1163 l 661 1204 l 661 1218 l 329 1176 z "},"":{"ha":893,"x_min":81,"x_max":825,"o":"m 825 50 q 813 12 825 24 q 775 0 801 0 l 422 0 q 153 79 226 0 q 81 283 81 158 l 81 715 q 153 921 81 842 q 422 1000 226 1000 l 775 1000 q 813 988 801 1000 q 825 950 825 976 l 825 788 q 813 749 825 761 q 775 738 801 738 l 468 738 q 399 716 414 738 q 383 668 383 694 l 383 631 l 664 631 q 702 619 690 631 q 714 581 714 607 l 714 432 q 702 394 714 406 q 664 382 690 382 l 383 382 l 383 329 q 399 281 383 300 q 468 263 414 263 l 775 263 q 813 251 801 263 q 825 213 825 239 l 825 50 m 700 139 l 447 139 q 281 176 322 139 q 239 304 239 214 l 239 499 l 603 499 l 603 513 l 239 513 l 239 693 q 282 823 239 785 q 447 861 325 861 l 700 861 l 700 875 l 447 875 q 269 833 314 875 q 225 693 225 792 l 225 304 q 269 167 225 208 q 447 125 313 125 l 700 125 l 700 139 m 438 1107 l 247 1051 q 201 1049 213 1040 q 190 1094 190 1057 l 190 1207 q 202 1256 190 1244 q 247 1281 214 1267 l 425 1344 q 452 1353 438 1350 q 479 1357 467 1356 q 503 1356 492 1357 q 524 1350 514 1354 l 714 1281 q 760 1256 749 1267 q 772 1207 772 1244 l 772 1094 q 761 1049 772 1057 q 714 1051 750 1040 l 524 1107 q 481 1113 500 1113 q 438 1107 461 1113 m 646 1181 l 646 1196 l 531 1233 q 507 1239 518 1236 q 481 1242 496 1242 q 454 1239 465 1242 q 431 1233 443 1236 l 315 1196 l 315 1181 l 436 1219 q 456 1225 446 1222 q 481 1228 467 1228 q 505 1225 494 1228 q 525 1219 515 1222 l 646 1181 z "},"":{"ha":893,"x_min":81,"x_max":825,"o":"m 825 50 q 813 12 825 24 q 775 0 801 0 l 422 0 q 153 79 226 0 q 81 283 81 158 l 81 715 q 153 921 81 842 q 422 1000 226 1000 l 775 1000 q 813 988 801 1000 q 825 950 825 976 l 825 788 q 813 749 825 761 q 775 738 801 738 l 468 738 q 399 716 414 738 q 383 668 383 694 l 383 631 l 664 631 q 702 619 690 631 q 714 581 714 607 l 714 432 q 702 394 714 406 q 664 382 690 382 l 383 382 l 383 329 q 399 281 383 300 q 468 263 414 263 l 775 263 q 813 251 801 263 q 825 213 825 239 l 825 50 m 700 139 l 447 139 q 281 176 322 139 q 239 304 239 214 l 239 499 l 603 499 l 603 513 l 239 513 l 239 693 q 282 823 239 785 q 447 861 325 861 l 700 861 l 700 875 l 447 875 q 269 833 314 875 q 225 693 225 792 l 225 304 q 269 167 225 208 q 447 125 313 125 l 700 125 l 700 139 m 410 1056 l 218 1056 q 183 1067 194 1056 q 171 1101 171 1078 l 171 1269 q 183 1304 171 1293 q 218 1315 194 1315 l 410 1315 q 444 1304 433 1315 q 456 1269 456 1293 l 456 1101 q 444 1067 456 1078 q 410 1056 433 1056 m 768 1056 l 576 1056 q 542 1067 553 1056 q 531 1101 531 1078 l 531 1269 q 542 1304 531 1293 q 576 1315 553 1315 l 768 1315 q 803 1304 792 1315 q 814 1269 814 1293 l 814 1101 q 803 1067 814 1078 q 768 1056 792 1056 m 321 1153 l 321 1218 l 307 1218 l 307 1153 l 321 1153 m 679 1153 l 679 1218 l 665 1218 l 665 1153 l 679 1153 z "},"":{"ha":893,"x_min":81,"x_max":825,"o":"m 825 50 q 813 12 825 24 q 775 0 801 0 l 422 0 q 153 79 226 0 q 81 283 81 158 l 81 715 q 153 921 81 842 q 422 1000 226 1000 l 775 1000 q 813 988 801 1000 q 825 950 825 976 l 825 788 q 813 749 825 761 q 775 738 801 738 l 468 738 q 399 716 414 738 q 383 668 383 694 l 383 631 l 664 631 q 702 619 690 631 q 714 581 714 607 l 714 432 q 702 394 714 406 q 664 382 690 382 l 383 382 l 383 329 q 399 281 383 300 q 468 263 414 263 l 775 263 q 813 251 801 263 q 825 213 825 239 l 825 50 m 700 139 l 447 139 q 281 176 322 139 q 239 304 239 214 l 239 499 l 603 499 l 603 513 l 239 513 l 239 693 q 282 823 239 785 q 447 861 325 861 l 700 861 l 700 875 l 447 875 q 269 833 314 875 q 225 693 225 792 l 225 304 q 269 167 225 208 q 447 125 313 125 l 700 125 l 700 139 m 736 1056 l 254 1056 q 216 1067 228 1056 q 204 1106 204 1079 l 204 1235 q 216 1273 204 1261 q 254 1285 228 1285 l 736 1285 q 774 1273 763 1285 q 786 1235 786 1261 l 786 1106 q 774 1067 786 1079 q 736 1056 763 1056 m 329 1176 l 329 1163 l 661 1163 l 661 1176 l 329 1176 z "},"":{"ha":893,"x_min":81,"x_max":825,"o":"m 825 50 q 813 12 825 24 q 775 0 801 0 l 422 0 q 153 79 226 0 q 81 283 81 158 l 81 715 q 153 921 81 842 q 422 1000 226 1000 l 775 1000 q 813 988 801 1000 q 825 950 825 976 l 825 788 q 813 749 825 761 q 775 738 801 738 l 468 738 q 399 716 414 738 q 383 668 383 694 l 383 631 l 664 631 q 702 619 690 631 q 714 581 714 607 l 714 432 q 702 394 714 406 q 664 382 690 382 l 383 382 l 383 329 q 399 281 383 300 q 468 263 414 263 l 775 263 q 813 251 801 263 q 825 213 825 239 l 825 50 m 700 139 l 447 139 q 281 176 322 139 q 239 304 239 214 l 239 499 l 603 499 l 603 513 l 239 513 l 239 693 q 282 823 239 785 q 447 861 325 861 l 700 861 l 700 875 l 447 875 q 269 833 314 875 q 225 693 225 792 l 225 304 q 269 167 225 208 q 447 125 313 125 l 700 125 l 700 139 m 797 1246 q 784 1165 797 1201 q 737 1102 771 1128 q 644 1062 703 1076 q 496 1047 586 1047 q 347 1062 406 1047 q 255 1102 289 1076 q 208 1165 221 1128 q 194 1246 194 1201 l 194 1307 q 206 1345 194 1333 q 244 1357 218 1357 l 378 1357 q 409 1348 400 1357 q 418 1314 418 1339 l 418 1285 q 432 1252 418 1265 q 497 1239 446 1239 q 564 1252 549 1239 q 579 1285 579 1265 l 579 1314 q 588 1348 579 1339 q 621 1357 597 1357 l 747 1357 q 785 1345 774 1357 q 797 1307 797 1333 l 797 1246 m 682 1260 l 682 1247 q 644 1180 682 1210 q 494 1150 607 1150 q 348 1180 382 1150 q 314 1247 314 1210 l 314 1260 l 300 1260 l 300 1247 q 306 1208 300 1228 q 333 1172 313 1188 q 392 1146 353 1156 q 494 1136 431 1136 q 599 1146 558 1136 q 660 1172 639 1156 q 688 1208 681 1188 q 696 1247 696 1228 l 696 1260 l 682 1260 z "},"":{"ha":893,"x_min":81,"x_max":825,"o":"m 825 50 q 813 12 825 24 q 775 0 801 0 l 422 0 q 153 79 226 0 q 81 283 81 158 l 81 715 q 153 921 81 842 q 422 1000 226 1000 l 775 1000 q 813 988 801 1000 q 825 950 825 976 l 825 788 q 813 749 825 761 q 775 738 801 738 l 468 738 q 399 716 414 738 q 383 668 383 694 l 383 631 l 664 631 q 702 619 690 631 q 714 581 714 607 l 714 432 q 702 394 714 406 q 664 382 690 382 l 383 382 l 383 329 q 399 281 383 300 q 468 263 414 263 l 775 263 q 813 251 801 263 q 825 213 825 239 l 825 50 m 700 139 l 447 139 q 281 176 322 139 q 239 304 239 214 l 239 499 l 603 499 l 603 513 l 239 513 l 239 693 q 282 823 239 785 q 447 861 325 861 l 700 861 l 700 875 l 447 875 q 269 833 314 875 q 225 693 225 792 l 225 304 q 269 167 225 208 q 447 125 313 125 l 700 125 l 700 139 m 607 1056 l 388 1056 q 349 1067 361 1056 q 338 1106 338 1079 l 338 1282 q 349 1320 338 1308 q 388 1332 361 1332 l 607 1332 q 645 1320 633 1332 q 657 1282 657 1308 l 657 1106 q 645 1067 657 1079 q 607 1056 633 1056 m 504 1153 l 504 1235 l 490 1235 l 490 1153 l 504 1153 z "},"":{"ha":893,"x_min":81,"x_max":825,"o":"m 825 -211 q 815 -248 825 -237 q 779 -258 806 -258 l 625 -258 q 503 -212 536 -258 q 485 -71 471 -167 l 497 0 l 422 0 q 153 79 226 0 q 81 283 81 158 l 81 715 q 153 921 81 842 q 422 1000 226 1000 l 775 1000 q 813 988 801 1000 q 825 950 825 976 l 825 788 q 813 749 825 761 q 775 738 801 738 l 468 738 q 399 716 414 738 q 383 668 383 694 l 383 631 l 664 631 q 702 619 690 631 q 714 581 714 607 l 714 432 q 702 394 714 406 q 664 382 690 382 l 383 382 l 383 329 q 399 281 383 300 q 468 263 414 263 l 775 263 q 813 251 801 263 q 825 213 825 239 l 825 50 q 813 12 825 24 q 775 0 801 0 l 728 0 l 718 -64 l 775 -64 q 815 -74 804 -64 q 825 -111 825 -85 l 825 -211 m 667 -161 l 700 -161 l 700 -147 l 667 -147 q 614 -124 624 -147 q 610 -60 604 -101 l 626 58 q 638 100 631 89 q 672 125 646 111 l 700 125 l 700 139 l 447 139 q 281 176 322 139 q 239 304 239 214 l 239 499 l 603 499 l 603 513 l 239 513 l 239 693 q 282 823 239 785 q 447 861 325 861 l 700 861 l 700 875 l 447 875 q 269 833 314 875 q 225 693 225 792 l 225 304 q 269 167 225 208 q 447 125 313 125 l 646 125 q 623 99 629 113 q 613 58 617 85 l 596 -57 q 601 -135 588 -108 q 667 -161 615 -161 z "},"":{"ha":893,"x_min":81,"x_max":825,"o":"m 825 50 q 813 12 825 24 q 775 0 801 0 l 422 0 q 153 79 226 0 q 81 283 81 158 l 81 715 q 153 921 81 842 q 422 1000 226 1000 l 775 1000 q 813 988 801 1000 q 825 950 825 976 l 825 788 q 813 749 825 761 q 775 738 801 738 l 468 738 q 399 716 414 738 q 383 668 383 694 l 383 631 l 664 631 q 702 619 690 631 q 714 581 714 607 l 714 432 q 702 394 714 406 q 664 382 690 382 l 383 382 l 383 329 q 399 281 383 300 q 468 263 414 263 l 775 263 q 813 251 801 263 q 825 213 825 239 l 825 50 m 700 139 l 447 139 q 281 176 322 139 q 239 304 239 214 l 239 499 l 603 499 l 603 513 l 239 513 l 239 693 q 282 823 239 785 q 447 861 325 861 l 700 861 l 700 875 l 447 875 q 269 833 314 875 q 225 693 225 792 l 225 304 q 269 167 225 208 q 447 125 313 125 l 700 125 l 700 139 m 535 1294 l 725 1350 q 771 1353 760 1361 q 782 1307 782 1344 l 782 1194 q 770 1146 782 1157 q 725 1121 758 1135 l 547 1057 q 520 1049 535 1051 q 493 1044 506 1046 q 469 1046 481 1044 q 449 1051 458 1047 l 258 1121 q 212 1146 224 1135 q 200 1194 200 1157 l 200 1307 q 211 1353 200 1344 q 258 1350 222 1361 l 449 1294 q 492 1289 472 1289 q 535 1294 511 1289 m 325 1221 l 325 1206 l 440 1168 q 464 1163 453 1165 q 490 1160 475 1160 q 517 1163 506 1160 q 540 1168 528 1165 l 656 1206 l 656 1221 l 535 1182 q 515 1176 525 1179 q 490 1174 504 1174 q 466 1176 476 1174 q 446 1182 456 1179 l 325 1221 z "},"":{"ha":515,"x_min":97,"x_max":418,"o":"m 368 0 l 147 0 q 109 12 121 0 q 97 50 97 24 l 97 950 q 109 988 97 976 q 147 1000 121 1000 l 368 1000 q 406 988 394 1000 q 418 950 418 976 l 418 50 q 406 12 418 24 q 368 0 394 0 m 251 875 l 251 125 l 265 125 l 265 875 l 251 875 z "},"":{"ha":515,"x_min":-14,"x_max":526,"o":"m 479 1049 l 36 1103 q -2 1116 10 1106 q -14 1153 -14 1126 l -14 1286 q -2 1322 -14 1310 q 33 1332 10 1335 l 476 1278 q 515 1265 503 1275 q 526 1228 526 1254 l 526 1094 q 515 1058 526 1071 q 479 1049 503 1046 m 111 1201 l 401 1165 l 401 1179 l 111 1215 l 111 1201 m 368 0 l 147 0 q 109 12 121 0 q 97 50 97 24 l 97 950 q 109 988 97 976 q 147 1000 121 1000 l 368 1000 q 406 988 394 1000 q 418 950 418 976 l 418 50 q 406 12 418 24 q 368 0 394 0 m 251 875 l 251 125 l 265 125 l 265 875 l 251 875 z "},"":{"ha":515,"x_min":-11,"x_max":529,"o":"m 479 1106 l 36 1046 q 1 1056 13 1043 q -11 1092 -11 1068 l -11 1225 q 1 1262 -11 1251 q 39 1275 13 1272 l 482 1335 q 517 1325 506 1338 q 529 1289 529 1313 l 529 1156 q 517 1119 529 1129 q 479 1106 506 1108 m 111 1179 l 111 1165 l 401 1201 l 401 1215 l 111 1179 m 368 0 l 147 0 q 109 12 121 0 q 97 50 97 24 l 97 950 q 109 988 97 976 q 147 1000 121 1000 l 368 1000 q 406 988 394 1000 q 418 950 418 976 l 418 50 q 406 12 418 24 q 368 0 394 0 m 251 875 l 251 125 l 265 125 l 265 875 l 251 875 z "},"":{"ha":515,"x_min":-33,"x_max":549,"o":"m 368 0 l 147 0 q 109 12 121 0 q 97 50 97 24 l 97 950 q 109 988 97 976 q 147 1000 121 1000 l 368 1000 q 406 988 394 1000 q 418 950 418 976 l 418 50 q 406 12 418 24 q 368 0 394 0 m 251 875 l 251 125 l 265 125 l 265 875 l 251 875 m 214 1107 l 24 1051 q -22 1049 -11 1040 q -33 1094 -33 1057 l -33 1207 q -22 1256 -33 1244 q 24 1281 -10 1267 l 201 1344 q 228 1353 214 1350 q 256 1357 243 1356 q 279 1356 268 1357 q 300 1350 290 1354 l 490 1281 q 537 1256 525 1267 q 549 1207 549 1244 l 549 1094 q 538 1049 549 1057 q 490 1051 526 1040 l 300 1107 q 257 1113 276 1113 q 214 1107 238 1113 m 422 1181 l 422 1196 l 307 1233 q 283 1239 294 1236 q 257 1242 272 1242 q 231 1239 242 1242 q 207 1233 219 1236 l 92 1196 l 92 1181 l 213 1219 q 233 1225 222 1222 q 257 1228 243 1228 q 281 1225 271 1228 q 301 1219 292 1222 l 422 1181 z "},"":{"ha":515,"x_min":-68,"x_max":575,"o":"m 368 0 l 147 0 q 109 12 121 0 q 97 50 97 24 l 97 950 q 109 988 97 976 q 147 1000 121 1000 l 368 1000 q 406 988 394 1000 q 418 950 418 976 l 418 50 q 406 12 418 24 q 368 0 394 0 m 251 875 l 251 125 l 265 125 l 265 875 l 251 875 m 171 1056 l -21 1056 q -56 1067 -44 1056 q -68 1101 -68 1078 l -68 1269 q -56 1304 -68 1293 q -21 1315 -44 1315 l 171 1315 q 206 1304 194 1315 q 217 1269 217 1293 l 217 1101 q 206 1067 217 1078 q 171 1056 194 1056 m 529 1056 l 338 1056 q 303 1067 314 1056 q 292 1101 292 1078 l 292 1269 q 303 1304 292 1293 q 338 1315 314 1315 l 529 1315 q 564 1304 553 1315 q 575 1269 575 1293 l 575 1101 q 564 1067 575 1078 q 529 1056 553 1056 m 82 1153 l 82 1218 l 68 1218 l 68 1153 l 82 1153 m 440 1153 l 440 1218 l 426 1218 l 426 1153 l 440 1153 z "},"":{"ha":515,"x_min":-33,"x_max":547,"o":"m 368 0 l 147 0 q 109 12 121 0 q 97 50 97 24 l 97 950 q 109 988 97 976 q 147 1000 121 1000 l 368 1000 q 406 988 394 1000 q 418 950 418 976 l 418 50 q 406 12 418 24 q 368 0 394 0 m 251 875 l 251 125 l 265 125 l 265 875 l 251 875 m 257 1061 l 218 1067 q 153 1074 179 1072 q 106 1074 126 1076 q 65 1067 85 1072 q 17 1054 44 1063 q -21 1056 -8 1047 q -33 1090 -33 1064 l -33 1231 q -20 1267 -33 1257 q 17 1288 -7 1278 q 72 1302 50 1297 q 116 1307 94 1307 q 165 1303 138 1307 q 233 1294 192 1300 l 257 1292 l 288 1288 q 360 1278 333 1281 q 408 1276 388 1275 q 447 1283 428 1278 q 497 1299 467 1289 q 535 1297 522 1306 q 547 1263 547 1289 l 547 1122 q 534 1085 547 1096 q 497 1065 521 1075 q 442 1051 464 1056 q 397 1046 419 1046 q 348 1049 375 1046 q 279 1058 321 1053 l 257 1061 m 422 1168 q 364 1168 394 1165 q 281 1179 333 1171 l 258 1182 l 219 1188 q 144 1195 172 1193 q 92 1194 115 1197 l 92 1179 q 142 1182 114 1183 q 217 1174 171 1181 l 256 1168 l 278 1165 q 363 1154 331 1157 q 422 1154 394 1151 l 422 1168 z "},"":{"ha":515,"x_min":-33,"x_max":549,"o":"m 368 0 l 147 0 q 109 12 121 0 q 97 50 97 24 l 97 950 q 109 988 97 976 q 147 1000 121 1000 l 368 1000 q 406 988 394 1000 q 418 950 418 976 l 418 50 q 406 12 418 24 q 368 0 394 0 m 251 875 l 251 125 l 265 125 l 265 875 l 251 875 m 499 1056 l 17 1056 q -22 1067 -10 1056 q -33 1106 -33 1079 l -33 1235 q -22 1273 -33 1261 q 17 1285 -10 1285 l 499 1285 q 537 1273 525 1285 q 549 1235 549 1261 l 549 1106 q 537 1067 549 1079 q 499 1056 525 1056 m 92 1176 l 92 1163 l 424 1163 l 424 1176 l 92 1176 z "},"":{"ha":515,"x_min":-44,"x_max":558,"o":"m 368 0 l 147 0 q 109 12 121 0 q 97 50 97 24 l 97 950 q 109 988 97 976 q 147 1000 121 1000 l 368 1000 q 406 988 394 1000 q 418 950 418 976 l 418 50 q 406 12 418 24 q 368 0 394 0 m 251 875 l 251 125 l 265 125 l 265 875 l 251 875 m 558 1246 q 545 1165 558 1201 q 498 1102 532 1128 q 406 1062 464 1076 q 257 1047 347 1047 q 108 1062 167 1047 q 16 1102 50 1076 q -31 1165 -18 1128 q -44 1246 -44 1201 l -44 1307 q -33 1345 -44 1333 q 6 1357 -21 1357 l 139 1357 q 170 1348 161 1357 q 179 1314 179 1339 l 179 1285 q 193 1252 179 1265 q 258 1239 207 1239 q 325 1252 310 1239 q 340 1285 340 1265 l 340 1314 q 349 1348 340 1339 q 382 1357 358 1357 l 508 1357 q 547 1345 535 1357 q 558 1307 558 1333 l 558 1246 m 443 1260 l 443 1247 q 406 1180 443 1210 q 256 1150 368 1150 q 109 1180 143 1150 q 75 1247 75 1210 l 75 1260 l 61 1260 l 61 1247 q 67 1208 61 1228 q 94 1172 74 1188 q 153 1146 114 1156 q 256 1136 192 1136 q 360 1146 319 1136 q 421 1172 400 1156 q 449 1208 442 1188 q 457 1247 457 1228 l 457 1260 l 443 1260 z "},"":{"ha":515,"x_min":58,"x_max":418,"o":"m 413 -211 q 403 -248 413 -237 q 367 -258 393 -258 l 213 -258 q 91 -212 124 -258 q 72 -71 58 -167 l 97 69 l 97 950 q 109 988 97 976 q 147 1000 121 1000 l 368 1000 q 406 988 394 1000 q 418 950 418 976 l 418 50 q 406 12 418 24 q 368 0 394 0 l 315 0 l 306 -64 l 363 -64 q 402 -74 392 -64 q 413 -111 413 -85 l 413 -211 m 254 -161 l 288 -161 l 288 -147 l 254 -147 q 201 -124 211 -147 q 197 -60 192 -101 l 214 58 q 226 100 218 89 q 260 125 233 111 l 265 125 l 265 875 l 251 875 l 251 136 q 214 106 222 119 q 200 58 206 92 l 183 -57 q 189 -135 175 -108 q 254 -161 203 -161 z "},"":{"ha":515,"x_min":97,"x_max":418,"o":"m 368 0 l 147 0 q 109 12 121 0 q 97 50 97 24 l 97 950 q 109 988 97 976 q 147 1000 121 1000 l 368 1000 q 406 988 394 1000 q 418 950 418 976 l 418 50 q 406 12 418 24 q 368 0 394 0 m 251 875 l 251 125 l 265 125 l 265 875 l 251 875 m 367 1056 l 147 1056 q 109 1067 121 1056 q 97 1106 97 1079 l 97 1282 q 109 1320 97 1308 q 147 1332 121 1332 l 367 1332 q 405 1320 393 1332 q 417 1282 417 1308 l 417 1106 q 405 1067 417 1079 q 367 1056 393 1056 m 264 1153 l 264 1235 l 250 1235 l 250 1153 l 264 1153 z "},"":{"ha":854,"x_min":96,"x_max":815,"o":"m 361 1000 q 399 988 388 1000 q 411 950 411 976 l 411 268 l 765 268 q 803 256 792 268 q 815 218 815 244 l 815 50 q 803 12 815 24 q 765 0 792 0 l 146 0 q 108 12 119 0 q 96 50 96 24 l 96 950 q 108 988 96 976 q 146 1000 119 1000 l 361 1000 m 247 875 l 247 125 l 690 125 l 690 139 l 261 139 l 261 875 l 247 875 z "},"":{"ha":854,"x_min":96,"x_max":815,"o":"m 361 1000 q 399 988 388 1000 q 411 950 411 976 l 411 268 l 765 268 q 803 256 792 268 q 815 218 815 244 l 815 50 q 803 12 815 24 q 765 0 792 0 l 146 0 q 108 12 119 0 q 96 50 96 24 l 96 950 q 108 988 96 976 q 146 1000 119 1000 l 361 1000 m 247 875 l 247 125 l 690 125 l 690 139 l 261 139 l 261 875 l 247 875 m 628 1106 l 143 1046 q 108 1056 119 1043 q 96 1092 96 1068 l 96 1225 q 108 1262 96 1251 q 146 1275 119 1272 l 631 1335 q 666 1325 654 1338 q 678 1289 678 1313 l 678 1156 q 666 1119 678 1129 q 628 1106 654 1108 m 221 1176 l 221 1163 l 553 1204 l 553 1218 l 221 1176 z "},"":{"ha":854,"x_min":96,"x_max":815,"o":"m 361 1000 q 399 988 388 1000 q 411 950 411 976 l 411 268 l 765 268 q 803 256 792 268 q 815 218 815 244 l 815 50 q 803 12 815 24 q 765 0 792 0 l 146 0 q 108 12 119 0 q 96 50 96 24 l 96 950 q 108 988 96 976 q 146 1000 119 1000 l 361 1000 m 247 875 l 247 125 l 690 125 l 690 139 l 261 139 l 261 875 l 247 875 m 451 -503 l 360 -503 q 328 -492 338 -503 q 318 -460 318 -482 l 318 -412 q 328 -381 318 -390 q 360 -371 338 -371 l 442 -371 q 465 -362 457 -371 q 474 -337 474 -353 l 474 -319 l 354 -319 q 314 -308 325 -319 q 303 -265 303 -296 l 303 -114 q 314 -72 303 -83 q 354 -60 325 -60 l 574 -60 q 614 -72 603 -60 q 625 -114 625 -83 l 625 -325 q 578 -458 625 -414 q 451 -503 531 -503 m 546 -183 l 382 -183 l 382 -197 l 532 -197 l 532 -318 q 506 -399 532 -374 q 431 -424 481 -424 l 382 -424 l 382 -437 l 431 -437 q 516 -410 486 -437 q 546 -318 546 -382 l 546 -183 z "},"":{"ha":854,"x_min":96,"x_max":857,"o":"m 361 1000 q 399 988 388 1000 q 411 950 411 976 l 411 268 l 765 268 q 803 256 792 268 q 815 218 815 244 l 815 50 q 803 12 815 24 q 765 0 792 0 l 146 0 q 108 12 119 0 q 96 50 96 24 l 96 950 q 108 988 96 976 q 146 1000 119 1000 l 361 1000 m 247 875 l 247 125 l 690 125 l 690 139 l 261 139 l 261 875 l 247 875 m 736 628 l 564 628 q 524 640 538 628 q 514 678 510 651 l 560 950 q 574 988 564 976 q 610 1000 583 1000 l 801 1000 q 842 988 828 1000 q 851 950 857 975 l 786 678 q 772 640 781 653 q 736 628 763 628 m 672 746 l 697 875 l 682 875 l 657 746 l 672 746 z "},"":{"ha":854,"x_min":96,"x_max":842,"o":"m 361 1000 q 399 988 388 1000 q 411 950 411 976 l 411 268 l 765 268 q 803 256 792 268 q 815 218 815 244 l 815 50 q 803 12 815 24 q 765 0 792 0 l 146 0 q 108 12 119 0 q 96 50 96 24 l 96 950 q 108 988 96 976 q 146 1000 119 1000 l 361 1000 m 247 875 l 247 125 l 690 125 l 690 139 l 261 139 l 261 875 l 247 875 m 792 458 l 572 458 q 534 470 546 458 q 522 508 522 482 l 522 685 q 534 723 522 711 q 572 735 546 735 l 792 735 q 830 723 818 735 q 842 685 842 711 l 842 508 q 830 470 842 482 q 792 458 818 458 m 689 556 l 689 638 l 675 638 l 675 556 l 689 556 z "},"":{"ha":868,"x_min":28,"x_max":829,"o":"m 160 0 q 122 12 133 0 q 110 50 110 24 l 110 401 l 78 396 q 40 406 51 392 q 28 446 28 419 l 28 594 q 40 631 28 621 q 78 644 51 640 l 96 647 l 110 650 l 110 950 q 122 988 110 976 q 160 1000 133 1000 l 375 1000 q 413 988 401 1000 q 425 950 425 976 l 425 700 l 439 703 l 439 704 l 506 714 q 544 704 532 718 q 556 664 556 690 l 556 515 q 544 479 556 489 q 506 465 532 469 l 439 456 l 425 453 l 425 268 l 779 268 q 817 256 806 268 q 829 218 829 244 l 829 50 q 817 12 829 24 q 779 0 806 0 l 160 0 m 261 125 l 704 125 l 704 139 l 275 139 l 275 546 l 431 571 l 431 585 l 275 560 l 275 875 l 261 875 l 261 557 l 153 539 l 153 525 l 261 543 l 261 125 z "},"":{"ha":1486,"x_min":89,"x_max":1397,"o":"m 251 704 q 303 830 251 782 q 494 878 354 878 q 685 830 635 878 q 736 704 736 782 l 736 125 l 750 125 l 750 704 q 801 830 750 782 q 993 878 853 878 q 1184 830 1133 878 q 1235 704 1235 782 l 1235 125 l 1249 125 l 1249 704 q 1195 840 1249 788 q 993 892 1142 892 q 813 856 869 892 q 743 758 757 819 q 674 856 729 819 q 494 892 618 892 q 292 840 346 892 q 238 704 238 788 l 238 125 l 251 125 l 251 704 m 400 50 q 388 12 400 24 q 350 0 376 0 l 139 0 q 101 12 113 0 q 89 50 89 24 l 89 738 q 105 853 89 801 q 162 942 121 906 q 274 1000 203 979 q 456 1021 346 1021 q 631 1002 561 1021 q 743 949 701 983 q 855 1002 785 983 q 1031 1021 925 1021 q 1212 1000 1140 1021 q 1324 942 1283 979 q 1381 853 1365 906 q 1397 738 1397 801 l 1397 50 q 1385 12 1397 24 q 1347 0 1374 0 l 1136 0 q 1098 12 1110 0 q 1086 50 1086 24 l 1086 683 q 1069 730 1086 711 q 992 749 1051 749 q 915 730 932 749 q 899 683 899 711 l 899 50 q 887 12 899 24 q 849 0 875 0 l 638 0 q 599 12 611 0 q 588 50 588 24 l 588 683 q 571 730 588 711 q 494 749 554 749 q 417 730 435 749 q 400 683 400 711 l 400 50 z "},"":{"ha":1036,"x_min":89,"x_max":947,"o":"m 794 125 l 794 704 q 737 840 794 788 q 517 892 679 892 q 296 840 354 892 q 238 704 238 788 l 238 125 l 251 125 l 251 704 q 307 830 251 782 q 517 878 363 878 q 726 830 671 878 q 781 704 781 782 l 781 125 l 794 125 m 89 738 q 108 853 89 801 q 174 942 126 906 q 306 1000 222 979 q 518 1021 389 1021 q 731 1000 647 1021 q 862 942 814 979 q 928 853 910 906 q 947 738 947 801 l 947 50 q 935 12 947 24 q 897 0 924 0 l 679 0 q 641 12 653 0 q 629 50 629 24 l 629 683 q 608 730 629 711 q 515 749 588 749 q 421 730 442 749 q 400 683 400 711 l 400 50 q 388 12 400 24 q 350 0 376 0 l 139 0 q 101 12 113 0 q 89 50 89 24 l 89 738 z "},"":{"ha":1036,"x_min":89,"x_max":947,"o":"m 794 125 l 794 704 q 737 840 794 788 q 517 892 679 892 q 296 840 354 892 q 238 704 238 788 l 238 125 l 251 125 l 251 704 q 307 830 251 782 q 517 878 363 878 q 726 830 671 878 q 781 704 781 782 l 781 125 l 794 125 m 89 738 q 108 853 89 801 q 174 942 126 906 q 306 1000 222 979 q 518 1021 389 1021 q 731 1000 647 1021 q 862 942 814 979 q 928 853 910 906 q 947 738 947 801 l 947 50 q 935 12 947 24 q 897 0 924 0 l 679 0 q 641 12 653 0 q 629 50 629 24 l 629 683 q 608 730 629 711 q 515 749 588 749 q 421 730 442 749 q 400 683 400 711 l 400 50 q 388 12 400 24 q 350 0 376 0 l 139 0 q 101 12 113 0 q 89 50 89 24 l 89 738 m 517 1061 l 478 1067 q 413 1074 439 1072 q 365 1074 386 1076 q 324 1067 344 1072 q 276 1054 304 1063 q 239 1056 251 1047 q 226 1090 226 1064 l 226 1231 q 240 1267 226 1257 q 276 1288 253 1278 q 332 1302 310 1297 q 376 1307 354 1307 q 424 1303 397 1307 q 493 1294 451 1300 l 517 1292 l 547 1288 q 620 1278 593 1281 q 667 1276 647 1275 q 707 1283 688 1278 q 757 1299 726 1289 q 794 1297 782 1306 q 807 1263 807 1289 l 807 1122 q 794 1085 807 1096 q 757 1065 781 1075 q 701 1051 724 1056 q 657 1046 679 1046 q 608 1049 635 1046 q 539 1058 581 1053 l 517 1061 m 682 1168 q 624 1168 654 1165 q 540 1179 593 1171 l 518 1182 l 479 1188 q 403 1195 432 1193 q 351 1194 375 1197 l 351 1179 q 402 1182 374 1183 q 476 1174 431 1181 l 515 1168 l 538 1165 q 622 1154 590 1157 q 682 1154 654 1151 l 682 1168 z "},"":{"ha":1036,"x_min":89,"x_max":947,"o":"m 794 125 l 794 704 q 737 840 794 788 q 517 892 679 892 q 296 840 354 892 q 238 704 238 788 l 238 125 l 251 125 l 251 704 q 307 830 251 782 q 517 878 363 878 q 726 830 671 878 q 781 704 781 782 l 781 125 l 794 125 m 89 738 q 108 853 89 801 q 174 942 126 906 q 306 1000 222 979 q 518 1021 389 1021 q 731 1000 647 1021 q 862 942 814 979 q 928 853 910 906 q 947 738 947 801 l 947 50 q 935 12 947 24 q 897 0 924 0 l 679 0 q 641 12 653 0 q 629 50 629 24 l 629 683 q 608 730 629 711 q 515 749 588 749 q 421 730 442 749 q 400 683 400 711 l 400 50 q 388 12 400 24 q 350 0 376 0 l 139 0 q 101 12 113 0 q 89 50 89 24 l 89 738 m 772 1106 l 288 1046 q 252 1056 264 1043 q 240 1092 240 1068 l 240 1225 q 252 1262 240 1251 q 290 1275 264 1272 l 775 1335 q 810 1325 799 1338 q 822 1289 822 1313 l 822 1156 q 810 1119 822 1129 q 772 1106 799 1108 m 365 1176 l 365 1163 l 697 1204 l 697 1218 l 365 1176 z "},"":{"ha":1036,"x_min":89,"x_max":947,"o":"m 794 125 l 794 704 q 737 840 794 788 q 517 892 679 892 q 296 840 354 892 q 238 704 238 788 l 238 125 l 251 125 l 251 704 q 307 830 251 782 q 517 878 363 878 q 726 830 671 878 q 781 704 781 782 l 781 125 l 794 125 m 89 738 q 108 853 89 801 q 174 942 126 906 q 306 1000 222 979 q 518 1021 389 1021 q 731 1000 647 1021 q 862 942 814 979 q 928 853 910 906 q 947 738 947 801 l 947 50 q 935 12 947 24 q 897 0 924 0 l 679 0 q 641 12 653 0 q 629 50 629 24 l 629 683 q 608 730 629 711 q 515 749 588 749 q 421 730 442 749 q 400 683 400 711 l 400 50 q 388 12 400 24 q 350 0 376 0 l 139 0 q 101 12 113 0 q 89 50 89 24 l 89 738 m 506 -503 l 414 -503 q 382 -492 392 -503 q 372 -460 372 -482 l 372 -412 q 382 -381 372 -390 q 414 -371 392 -371 l 496 -371 q 519 -362 511 -371 q 528 -337 528 -353 l 528 -319 l 408 -319 q 368 -308 379 -319 q 357 -265 357 -296 l 357 -114 q 368 -72 357 -83 q 408 -60 379 -60 l 628 -60 q 668 -72 657 -60 q 679 -114 679 -83 l 679 -325 q 632 -458 679 -414 q 506 -503 585 -503 m 600 -183 l 436 -183 l 436 -197 l 586 -197 l 586 -318 q 560 -399 586 -374 q 485 -424 535 -424 l 436 -424 l 436 -437 l 485 -437 q 570 -410 540 -437 q 600 -318 600 -382 l 600 -183 z "},"":{"ha":1036,"x_min":89,"x_max":947,"o":"m 794 125 l 794 704 q 737 840 794 788 q 517 892 679 892 q 296 840 354 892 q 238 704 238 788 l 238 125 l 251 125 l 251 704 q 307 830 251 782 q 517 878 363 878 q 726 830 671 878 q 781 704 781 782 l 781 125 l 794 125 m 89 738 q 108 853 89 801 q 174 942 126 906 q 306 1000 222 979 q 518 1021 389 1021 q 731 1000 647 1021 q 862 942 814 979 q 928 853 910 906 q 947 738 947 801 l 947 50 q 935 12 947 24 q 897 0 924 0 l 679 0 q 641 12 653 0 q 629 50 629 24 l 629 683 q 608 730 629 711 q 515 749 588 749 q 421 730 442 749 q 400 683 400 711 l 400 50 q 388 12 400 24 q 350 0 376 0 l 139 0 q 101 12 113 0 q 89 50 89 24 l 89 738 m 561 1294 l 751 1350 q 797 1353 786 1361 q 808 1307 808 1344 l 808 1194 q 797 1146 808 1157 q 751 1121 785 1135 l 574 1057 q 547 1049 561 1051 q 519 1044 532 1046 q 496 1046 507 1044 q 475 1051 485 1047 l 285 1121 q 238 1146 250 1135 q 226 1194 226 1157 l 226 1307 q 238 1353 226 1344 q 285 1350 249 1361 l 475 1294 q 518 1289 499 1289 q 561 1294 538 1289 m 351 1221 l 351 1206 l 467 1168 q 490 1163 479 1165 q 517 1160 501 1160 q 543 1163 532 1160 q 567 1168 554 1165 l 682 1206 l 682 1221 l 561 1182 q 541 1176 551 1179 q 517 1174 531 1174 q 492 1176 503 1174 q 472 1182 482 1179 l 351 1221 z "},"":{"ha":1486,"x_min":89,"x_max":1397,"o":"m 1031 -21 q 855 -2 925 -21 q 743 51 785 17 q 631 -2 701 17 q 456 -21 561 -21 q 274 0 346 -21 q 162 58 203 21 q 105 147 121 94 q 89 263 89 199 l 89 950 q 101 988 89 976 q 139 1000 113 1000 l 350 1000 q 388 988 376 1000 q 400 950 400 976 l 400 317 q 417 270 400 289 q 494 251 435 251 q 571 270 554 251 q 588 317 588 289 l 588 950 q 599 988 588 976 q 638 1000 611 1000 l 849 1000 q 887 988 875 1000 q 899 950 899 976 l 899 317 q 915 270 899 289 q 992 251 932 251 q 1069 270 1051 251 q 1086 317 1086 289 l 1086 950 q 1098 988 1086 976 q 1136 1000 1110 1000 l 1347 1000 q 1385 988 1374 1000 q 1397 950 1397 976 l 1397 263 q 1381 147 1397 199 q 1324 58 1365 94 q 1212 0 1283 21 q 1031 -21 1140 -21 m 999 108 q 1207 160 1151 108 q 1263 296 1263 213 l 1263 875 l 1249 875 l 1249 296 q 1196 170 1249 218 q 999 122 1143 122 q 802 170 854 122 q 750 296 750 218 l 750 875 l 736 875 l 736 296 q 683 170 736 218 q 486 122 631 122 q 290 170 342 122 q 238 296 238 218 l 238 875 l 224 875 l 224 296 q 278 160 224 213 q 486 108 333 108 q 671 144 613 108 q 743 242 729 181 q 815 144 757 181 q 999 108 872 108 z "},"":{"ha":1486,"x_min":89,"x_max":1397,"o":"m 1031 -21 q 855 -2 925 -21 q 743 51 785 17 q 631 -2 701 17 q 456 -21 561 -21 q 274 0 346 -21 q 162 58 203 21 q 105 147 121 94 q 89 263 89 199 l 89 950 q 101 988 89 976 q 139 1000 113 1000 l 350 1000 q 388 988 376 1000 q 400 950 400 976 l 400 317 q 417 270 400 289 q 494 251 435 251 q 571 270 554 251 q 588 317 588 289 l 588 950 q 599 988 588 976 q 638 1000 611 1000 l 849 1000 q 887 988 875 1000 q 899 950 899 976 l 899 317 q 915 270 899 289 q 992 251 932 251 q 1069 270 1051 251 q 1086 317 1086 289 l 1086 950 q 1098 988 1086 976 q 1136 1000 1110 1000 l 1347 1000 q 1385 988 1374 1000 q 1397 950 1397 976 l 1397 263 q 1381 147 1397 199 q 1324 58 1365 94 q 1212 0 1283 21 q 1031 -21 1140 -21 m 999 108 q 1207 160 1151 108 q 1263 296 1263 213 l 1263 875 l 1249 875 l 1249 296 q 1196 170 1249 218 q 999 122 1143 122 q 802 170 854 122 q 750 296 750 218 l 750 875 l 736 875 l 736 296 q 683 170 736 218 q 486 122 631 122 q 290 170 342 122 q 238 296 238 218 l 238 875 l 224 875 l 224 296 q 278 160 224 213 q 486 108 333 108 q 671 144 613 108 q 743 242 729 181 q 815 144 757 181 q 999 108 872 108 m 699 1107 l 508 1051 q 463 1049 474 1040 q 451 1094 451 1057 l 451 1207 q 463 1256 451 1244 q 508 1281 475 1267 l 686 1344 q 713 1353 699 1350 q 740 1357 728 1356 q 764 1356 753 1357 q 785 1350 775 1354 l 975 1281 q 1022 1256 1010 1267 q 1033 1207 1033 1244 l 1033 1094 q 1022 1049 1033 1057 q 975 1051 1011 1040 l 785 1107 q 742 1113 761 1113 q 699 1107 722 1113 m 907 1181 l 907 1196 l 792 1233 q 768 1239 779 1236 q 742 1242 757 1242 q 715 1239 726 1242 q 692 1233 704 1236 l 576 1196 l 576 1181 l 697 1219 q 717 1225 707 1222 q 742 1228 728 1228 q 766 1225 756 1228 q 786 1219 776 1222 l 907 1181 z "}}}
